<svg width="13" height="14" viewBox="0 0 13 14" fill="none" xmlns="http://www.w3.org/2000/svg">
<path d="M6.5 13.0833C6.97037 13.0833 7.38636 12.715 7.38636 12.2306V7.87353H11.704C12.1785 7.87353 12.5833 7.48054 12.5833 7C12.5833 6.51588 12.1748 6.13342 11.704 6.13342H7.38636V1.76941C7.38636 1.28503 6.97037 0.916672 6.5 0.916672C6.02592 0.916672 5.62071 1.28856 5.62071 1.76941V6.13342H1.29596C0.82516 6.13342 0.416668 6.51588 0.416668 7C0.416668 7.48053 0.821493 7.87353 1.29596 7.87353H5.62071V12.2306C5.62071 12.7115 6.02592 13.0833 6.5 13.0833Z" fill="#533082" stroke="#533082" stroke-width="0.5"/>
</svg>
