<svg width="64" height="32" viewBox="0 0 64 32" fill="none" xmlns="http://www.w3.org/2000/svg">
<g id="Visa Card">
<rect id="Menu Items" width="64" height="32" rx="4" fill="#F8FAFF"/>
<g id="Visa Logo">
<path id="Vector" d="M18.4915 10.1917C18.0109 10.7659 17.2421 11.2188 16.4733 11.1541C16.3772 10.3777 16.7536 9.55281 17.1941 9.04329C17.6746 8.4529 18.5155 8.03235 19.1962 8C19.2763 8.80875 18.964 9.60133 18.4915 10.1917ZM19.1882 11.3078C18.075 11.2431 17.122 11.9467 16.5934 11.9467C16.0568 11.9467 15.2479 11.3402 14.367 11.3563C13.2217 11.3725 12.1566 12.0276 11.5719 13.0709C10.3706 15.1575 11.2596 18.2469 12.4209 19.9453C12.9895 20.7864 13.6702 21.7084 14.5672 21.676C15.4161 21.6437 15.7525 21.118 16.7776 21.118C17.8107 21.118 18.1071 21.676 19.004 21.6598C19.933 21.6437 20.5177 20.8187 21.0863 19.9776C21.735 19.0233 21.9993 18.0932 22.0153 18.0447C21.9993 18.0285 20.2214 17.3411 20.2053 15.2707C20.1893 13.54 21.6069 12.715 21.6709 12.6665C20.8701 11.4696 19.6207 11.3402 19.1882 11.3078ZM25.6192 8.96242V21.5709H27.5574V17.2602H30.2403C32.691 17.2602 34.4128 15.5618 34.4128 13.1032C34.4128 10.6446 32.723 8.96242 30.3043 8.96242H25.6192ZM27.5574 10.6123H29.7918C31.4736 10.6123 32.4347 11.5181 32.4347 13.1113C32.4347 14.7046 31.4736 15.6185 29.7838 15.6185H27.5574V10.6123ZM37.9527 21.6679C39.17 21.6679 40.2992 21.0452 40.8118 20.0585H40.8518V21.5709H42.6458V15.295C42.6458 13.4753 41.2042 12.3026 38.9858 12.3026C36.9276 12.3026 35.4059 13.4914 35.3498 15.1251H37.0958C37.2399 14.3487 37.9527 13.8392 38.9298 13.8392C40.115 13.8392 40.7798 14.3972 40.7798 15.4244V16.1199L38.3611 16.2655C36.1107 16.403 34.8934 17.333 34.8934 18.9505C34.8934 20.5842 36.1507 21.6679 37.9527 21.6679ZM38.4733 20.1717C37.4401 20.1717 36.7834 19.6703 36.7834 18.902C36.7834 18.1094 37.4161 17.6484 38.6254 17.5756L40.7798 17.4382V18.1499C40.7798 19.3306 39.7867 20.1717 38.4733 20.1717ZM45.0404 25C46.9305 25 47.8194 24.2721 48.5963 22.0642L52 12.4239H50.0299L47.7474 19.8725H47.7073L45.4248 12.4239H43.3986L46.6822 21.6032L46.506 22.1613C46.2097 23.1075 45.7292 23.4715 44.8722 23.4715C44.7201 23.4715 44.4237 23.4553 44.3036 23.4391V24.9515C44.4157 24.9838 44.8963 25 45.0404 25Z" fill="#231F20"/>
</g>
</g>
</svg>
