<svg width="24" height="20" viewBox="0 0 24 20" fill="none" xmlns="http://www.w3.org/2000/svg">
<path d="M0.000152588 10.1647C0.000152588 10.4878 0.142314 10.7851 0.400777 11.0306L8.9823 19.5992C9.24079 19.8448 9.5122 19.9611 9.82235 19.9611C10.4556 19.9611 10.9597 19.4958 10.9597 18.8496C10.9597 18.5394 10.8434 18.2293 10.6366 18.0354L7.7416 15.0887L3.38621 11.1211L6.51381 11.3149H22.8626C23.5346 11.3149 24 10.8368 24 10.1647C24 9.49266 23.5346 9.01448 22.8626 9.01448H6.51381L3.39916 9.20833L7.7416 5.24068L10.6366 2.29402C10.8434 2.08723 10.9597 1.78999 10.9597 1.4798C10.9597 0.833608 10.4556 0.368347 9.82235 0.368347C9.5122 0.368347 9.24079 0.471734 8.95647 0.756056L0.400777 9.2988C0.142314 9.54435 0.000152588 9.84162 0.000152588 10.1647Z" fill="#757982"/>
</svg>
