<svg width="20" height="20" viewBox="0 0 20 20" fill="none" xmlns="http://www.w3.org/2000/svg">
<g id="Alarm Check">
<g id="Group 112123">
<path id="Shape" fill-rule="evenodd" clip-rule="evenodd" d="M10 5.00004C6.77834 5.00004 4.16667 7.61171 4.16667 10.8334C4.16667 14.055 6.77834 16.6667 10 16.6667C13.2217 16.6667 15.8333 14.055 15.8333 10.8334C15.8333 7.61171 13.2217 5.00004 10 5.00004ZM2.5 10.8334C2.5 6.69124 5.85786 3.33337 10 3.33337C14.1421 3.33337 17.5 6.69124 17.5 10.8334C17.5 14.9755 14.1421 18.3334 10 18.3334C5.85786 18.3334 2.5 14.9755 2.5 10.8334Z" fill="#533082"/>
<path id="Shape_2" fill-rule="evenodd" clip-rule="evenodd" d="M13.0891 8.57745C13.4145 8.90289 13.4145 9.43053 13.0891 9.75596L9.75576 13.0893C9.43032 13.4147 8.90269 13.4147 8.57725 13.0893L6.91058 11.4226C6.58514 11.0972 6.58514 10.5696 6.91058 10.2441C7.23602 9.91868 7.76366 9.91868 8.08909 10.2441L9.1665 11.3215L11.9106 8.57745C12.236 8.25201 12.7637 8.25201 13.0891 8.57745Z" fill="#533082"/>
<g id="Shape_3">
<path d="M3.83338 4.41674C3.46519 4.69288 2.94286 4.61826 2.66672 4.25007C2.39057 3.88188 2.46519 3.35955 2.83338 3.0834L4.50005 1.8334C4.86824 1.55726 5.39057 1.63188 5.66672 2.00007C5.94286 2.36826 5.86824 2.89059 5.50005 3.16674L3.83338 4.41674Z" fill="#533082"/>
<path d="M15.5 1.8335C15.1319 1.55736 14.6095 1.63198 14.3334 2.00017C14.0572 2.36836 14.1319 2.89069 14.5 3.16683L16.1667 4.41683C16.5349 4.69298 17.0572 4.61836 17.3334 4.25017C17.6095 3.88198 17.5349 3.35964 17.1667 3.0835L15.5 1.8335Z" fill="#533082"/>
</g>
</g>
</g>
</svg>
