<svg width="56" height="24" viewBox="0 0 56 24" fill="none" xmlns="http://www.w3.org/2000/svg">
<path d="M32.5967 3.2627H23.4023V19.8927H32.5967V3.2627Z" fill="#EB611D"/>
<path d="M23.9878 11.5777C23.9862 9.97644 24.3466 8.39576 25.0417 6.95538C25.7369 5.51501 26.7486 4.2527 28.0003 3.26403C26.4501 2.03809 24.5885 1.27577 22.6282 1.0642C20.6679 0.852634 18.688 1.20035 16.9148 2.0676C15.1416 2.93486 13.6465 4.28667 12.6006 5.96854C11.5547 7.65041 11 9.59449 11 11.5786C11 13.5627 11.5547 15.5068 12.6006 17.1886C13.6465 18.8705 15.1416 20.2223 16.9148 21.0896C18.688 21.9568 20.6679 22.3046 22.6282 22.093C24.5885 21.8814 26.4501 21.1191 28.0003 19.8932C26.7488 18.9039 25.7373 17.6412 25.0421 16.2006C24.347 14.76 23.9865 13.1792 23.9878 11.5777Z" fill="#E41322"/>
<path d="M44.9983 11.5762C44.998 13.5604 44.4432 15.5046 43.3971 17.1865C42.351 18.8684 40.8558 20.2202 39.0825 21.0875C37.3091 21.9549 35.3291 22.3026 33.3687 22.0912C31.4083 21.8797 29.5465 21.1175 27.9961 19.8916C29.247 18.902 30.2582 17.6394 30.9536 16.1991C31.6489 14.7588 32.0102 13.1784 32.0102 11.5771C32.0102 9.97578 31.6489 8.39539 30.9536 6.95509C30.2582 5.51479 29.247 4.25219 27.9961 3.26252C29.5461 2.03572 31.4079 1.27265 33.3685 1.06056C35.3291 0.848478 37.3095 1.19594 39.0832 2.06322C40.8568 2.9305 42.3521 4.28259 43.3982 5.96487C44.4442 7.64715 44.9987 9.59172 44.9983 11.5762Z" fill="#F59E21"/>
</svg>
