<svg width="64" height="32" viewBox="0 0 64 32" fill="none" xmlns="http://www.w3.org/2000/svg">
<rect width="64" height="32" rx="4" fill="#F8FAFF"/>
<path fill-rule="evenodd" clip-rule="evenodd" d="M29 15V19H27V15H29ZM25 13H27H29H31V15V19V21H29H27H25V19V15V13ZM37 15V19H35V15H37ZM33 13H35H37H39V15V19V21H37H35H33V19V15V13Z" fill="#40495C"/>
<path fill-rule="evenodd" clip-rule="evenodd" d="M38 21H26C25.4477 21 25 21.4477 25 22C25 22.5523 25.4477 23 26 23H38C38.5523 23 39 22.5523 39 22C39 21.4477 38.5523 21 38 21ZM26 19C24.3431 19 23 20.3431 23 22C23 23.6569 24.3431 25 26 25H38C39.6569 25 41 23.6569 41 22C41 20.3431 39.6569 19 38 19H26Z" fill="#40495C"/>
<path fill-rule="evenodd" clip-rule="evenodd" d="M25.9287 13H38.0713C38.5842 13 39 12.5842 39 12.0713C39 11.6777 38.7518 11.3268 38.3807 11.1957L32.3331 9.05904C32.1176 8.98288 31.8824 8.98288 31.6669 9.05904L25.6193 11.1957C25.2482 11.3268 25 11.6777 25 12.0713C25 12.5842 25.4158 13 25.9287 13ZM24.953 9.30996C23.7826 9.72349 23 10.83 23 12.0713C23 13.6888 24.3112 15 25.9287 15H38.0713C39.6888 15 41 13.6888 41 12.0713C41 10.83 40.2174 9.72349 39.047 9.30996L32.9994 7.17328C32.3527 6.9448 31.6473 6.9448 31.0006 7.17328L24.953 9.30996Z" fill="#40495C"/>
</svg>
