<svg width="16" height="14" viewBox="0 0 16 14" fill="none" xmlns="http://www.w3.org/2000/svg">
<path d="M16 7.10981C16 7.32521 15.9052 7.52337 15.7329 7.68709L10.0119 13.3995C9.83955 13.5632 9.65861 13.6407 9.45184 13.6407C9.02965 13.6407 8.69363 13.3306 8.69363 12.8998C8.69363 12.693 8.77116 12.4862 8.90903 12.3569L10.839 10.3925L13.7426 7.7474L11.6575 7.87664H0.75831C0.310308 7.87664 0.000100136 7.55785 0.000100136 7.10981C0.000100136 6.66178 0.310308 6.34299 0.75831 6.34299H11.6575L13.734 6.47223L10.839 3.82713L8.90903 1.86269C8.77116 1.72482 8.69363 1.52666 8.69363 1.31987C8.69363 0.889077 9.02965 0.578903 9.45184 0.578903C9.65861 0.578903 9.83954 0.647828 10.0291 0.837376L15.7329 6.53254C15.9052 6.69624 16 6.89441 16 7.10981Z" fill="#474D58"/>
</svg>
