<svg width="64" height="32" viewBox="0 0 64 32" fill="none" xmlns="http://www.w3.org/2000/svg">
<rect width="64" height="32" rx="4" fill="#F8FAFF"/>
<g clip-path="url(#clip0_1_378)">
<path d="M27.048 10.2109L22.2037 21.817H19.0433L16.6606 12.5555C16.515 11.9844 16.3899 11.7763 15.9497 11.5354C15.2303 11.1432 14.0449 10.7768 13 10.548L13.0702 10.204H18.1577C18.4905 10.2033 18.8124 10.3223 19.0654 10.5394C19.3183 10.7565 19.4855 11.0573 19.5367 11.3875L20.7957 18.0962L23.9081 10.1954L27.048 10.2109ZM39.431 18.0274C39.4447 14.9655 35.2137 14.7969 35.2428 13.4276C35.2514 13.0113 35.6471 12.5675 36.5104 12.4557C37.5215 12.3576 38.5401 12.5359 39.4584 12.9718L39.9843 10.5102C39.0897 10.1732 38.1425 9.99843 37.187 9.99414C34.2322 9.99414 32.1509 11.5716 32.1355 13.8302C32.115 15.5022 33.6189 16.4328 34.7529 16.9884C35.916 17.5578 36.3066 17.9225 36.3031 18.4316C36.2946 19.2109 35.3747 19.5532 34.5131 19.567C33.0108 19.591 32.1372 19.1593 31.4435 18.8342L30.9022 21.3766C31.5994 21.7 32.8892 21.9804 34.227 21.9941C37.3669 21.9941 39.4207 20.4357 39.431 18.0222V18.0274ZM47.2353 21.8066H50L47.5864 10.2109H45.0341C44.7617 10.2097 44.4952 10.2901 44.2685 10.4418C44.0418 10.5934 43.8652 10.8095 43.7614 11.0624L39.2751 21.817H42.415L43.0385 20.083H46.8738L47.2353 21.8066ZM43.8984 17.6954L45.4726 13.3554L46.3788 17.7143L43.8984 17.6954ZM31.3201 10.2006L28.8483 21.8066H25.8575L28.331 10.2006H31.3201Z" fill="#211A7C"/>
</g>
<defs>
<clipPath id="clip0_1_378">
<rect width="37" height="12" fill="white" transform="translate(13 10)"/>
</clipPath>
</defs>
</svg>
