<svg width="64" height="32" viewBox="0 0 64 32" fill="none" xmlns="http://www.w3.org/2000/svg">
<rect width="64" height="32" rx="4" fill="#F8FAFF"/>
<path fill-rule="evenodd" clip-rule="evenodd" d="M37 13H42V19H37C35.3431 19 34 17.6569 34 16C34 14.3431 35.3431 13 37 13ZM37 17C37.5523 17 38 16.5523 38 16C38 15.4477 37.5523 15 37 15C36.4477 15 36 15.4477 36 16C36 16.5523 36.4477 17 37 17Z" fill="#40495C"/>
<path fill-rule="evenodd" clip-rule="evenodd" d="M27.7587 8H36.2413C37.0463 7.99999 37.7106 7.99998 38.2518 8.04419C38.8139 8.09012 39.3306 8.18868 39.816 8.43597C40.5686 8.81947 41.1805 9.43139 41.564 10.184C41.8113 10.6694 41.9099 11.1861 41.9558 11.7482C42 12.2894 42 12.9537 42 13.7587V18.2413C42 19.0463 42 19.7106 41.9558 20.2518C41.9099 20.8139 41.8113 21.3306 41.564 21.816C41.1805 22.5686 40.5686 23.1805 39.816 23.564C39.3306 23.8113 38.8139 23.9099 38.2518 23.9558C37.7106 24 37.0463 24 36.2413 24H27.7587C26.9537 24 26.2894 24 25.7482 23.9558C25.1861 23.9099 24.6694 23.8113 24.184 23.564C23.4314 23.1805 22.8195 22.5686 22.436 21.816C22.1887 21.3306 22.0901 20.8139 22.0442 20.2518C22 19.7106 22 19.0463 22 18.2413V13.7587C22 12.9537 22 12.2894 22.0442 11.7482C22.0901 11.1861 22.1887 10.6694 22.436 10.184C22.8195 9.43139 23.4314 8.81947 24.184 8.43597C24.6694 8.18868 25.1861 8.09012 25.7482 8.04419C26.2894 7.99998 26.9537 7.99999 27.7587 8ZM25.911 10.0376C25.4726 10.0734 25.2484 10.1383 25.092 10.218C24.7157 10.4097 24.4097 10.7157 24.218 11.092C24.1383 11.2484 24.0734 11.4726 24.0376 11.911C24.0008 12.3611 24 12.9434 24 13.8V18.2C24 19.0566 24.0008 19.6389 24.0376 20.089C24.0734 20.5274 24.1383 20.7516 24.218 20.908C24.4097 21.2843 24.7157 21.5903 25.092 21.782C25.2484 21.8617 25.4726 21.9266 25.911 21.9624C26.3611 21.9992 26.9434 22 27.8 22H36.2C37.0566 22 37.6389 21.9992 38.089 21.9624C38.5274 21.9266 38.7516 21.8617 38.908 21.782C39.2843 21.5903 39.5903 21.2843 39.782 20.908C39.8617 20.7516 39.9266 20.5274 39.9624 20.089C39.9992 19.6389 40 19.0566 40 18.2V13.8C40 12.9434 39.9992 12.3611 39.9624 11.911C39.9266 11.4726 39.8617 11.2484 39.782 11.092C39.5903 10.7157 39.2843 10.4097 38.908 10.218C38.7516 10.1383 38.5274 10.0734 38.089 10.0376C37.6389 10.0008 37.0566 10 36.2 10H27.8C26.9434 10 26.3611 10.0008 25.911 10.0376Z" fill="#40495C"/>
</svg>
