<svg width="64" height="32" viewBox="0 0 64 32" fill="none" xmlns="http://www.w3.org/2000/svg">
<rect width="64" height="32" rx="4" fill="url(#paint0_linear_954_3891)"/>
<mask id="mask0_954_3891" style="mask-type:alpha" maskUnits="userSpaceOnUse" x="21" y="0" width="23" height="32">
<rect opacity="0.1" x="21" width="23" height="32" fill="#C4C4C4"/>
</mask>
<g mask="url(#mask0_954_3891)">
<path d="M23.3545 22.4312C24.0315 23.0757 24.8308 23.5761 25.7045 23.9024C26.5783 24.2287 27.5084 24.3741 28.4394 24.33C29.5049 24.3767 30.5659 24.1648 31.533 23.7122C32.5 23.2596 33.3447 22.5795 33.9958 21.7295L32.9293 29.0249C32.7861 30.0024 32.3329 30.9072 31.6372 31.6045C30.9415 32.3019 30.0406 32.7544 29.0686 32.8947C28.2953 33.0065 20.2757 33.101 19.9267 33.132H19.7618C19.7196 33.1233 19.6902 33.1212 19.6902 33.132C19.6247 33.1337 19.5602 33.1489 19.5008 33.1767C19.4414 33.2045 19.3883 33.2443 19.3447 33.2935C19.2371 33.4002 19.1648 33.5377 19.1376 33.6873L18.4926 38.8733C18.4288 39.4286 19.091 39.4286 19.091 39.4286C21.9742 39.4286 31.5519 39.1401 33.178 38.5718C39.4432 36.8655 40.5197 28.9766 40.5197 28.9766L43.9877 0.556443C44.0048 0.488158 44.0053 0.41675 43.9892 0.34822C43.9731 0.27969 43.9409 0.216057 43.8952 0.162688C43.8502 0.109179 43.7936 0.0667487 43.7297 0.0386256C43.6659 0.0105025 43.5965 -0.00257343 43.5269 0.000418722H37.1778C37.105 -0.00105762 37.0327 0.0125991 36.9653 0.0405183C36.898 0.0684376 36.8371 0.110024 36.7865 0.162688C36.6794 0.269775 36.6072 0.407093 36.5794 0.556443L34.7038 15.9254C34.5333 16.2308 34.3219 16.5111 34.0753 16.7584C33.7761 17.0752 33.4156 17.327 33.016 17.4983C32.6164 17.6696 32.1862 17.7567 31.7518 17.7543C31.3881 17.7679 31.0259 17.7002 30.6914 17.556C30.3568 17.4119 30.0581 17.1949 29.8168 16.9207C29.3035 16.2987 29.0409 15.5055 29.0808 14.698L29.1274 14.1427L30.7836 0.575921C30.8007 0.507804 30.8013 0.436538 30.7854 0.368138C30.7694 0.299737 30.7374 0.236194 30.6919 0.18287C30.6468 0.129361 30.5902 0.0869305 30.5264 0.0588074C30.4625 0.0306843 30.3931 0.0176304 30.3235 0.0206226H23.9752C23.9024 0.0191895 23.8301 0.0328495 23.7627 0.0607662C23.6954 0.0886829 23.6345 0.130241 23.5839 0.18287C23.477 0.289871 23.4048 0.426889 23.3768 0.575921L21.5363 15.8086C21.4752 16.4865 21.4446 16.9495 21.4446 17.1976C21.391 18.1549 21.5328 19.1132 21.8613 20.0133C22.1898 20.9134 22.698 21.7363 23.3545 22.4312Z" fill="url(#paint1_linear_954_3891)"/>
</g>
<defs>
<linearGradient id="paint0_linear_954_3891" x1="9.74302" y1="16" x2="28.4888" y2="-0.0261797" gradientUnits="userSpaceOnUse">
<stop stop-color="#533082"/>
<stop offset="1" stop-color="#694C9F"/>
</linearGradient>
<linearGradient id="paint1_linear_954_3891" x1="31.138" y1="3.63614" x2="24.2953" y2="33.4846" gradientUnits="userSpaceOnUse">
<stop stop-color="white"/>
<stop offset="1" stop-color="white" stop-opacity="0"/>
</linearGradient>
</defs>
</svg>
