<svg width="20" height="20" viewBox="0 0 20 20" fill="none" xmlns="http://www.w3.org/2000/svg">
<path d="M10 16.0833C10.4704 16.0833 10.8864 15.715 10.8864 15.2306V10.8735H15.204C15.6785 10.8735 16.0833 10.4805 16.0833 10C16.0833 9.51588 15.6748 9.13342 15.204 9.13342H10.8864V4.76941C10.8864 4.28503 10.4704 3.91667 10 3.91667C9.52593 3.91667 9.12071 4.28856 9.12071 4.76941V9.13342H4.79596C4.32516 9.13342 3.91667 9.51588 3.91667 10C3.91667 10.4805 4.3215 10.8735 4.79596 10.8735H9.12071V15.2306C9.12071 15.7115 9.52593 16.0833 10 16.0833Z" fill="#533082" stroke="#533082" stroke-width="0.5"/>
</svg>
