<svg width="21" height="20" viewBox="0 0 21 20" fill="none" xmlns="http://www.w3.org/2000/svg">
<g id="Add">
<g id="Regular-M">
<path id="Vector" d="M10.4998 16.0833C10.9702 16.0833 11.3862 15.715 11.3862 15.2306V10.8735H15.7039C16.1783 10.8735 16.5832 10.4805 16.5832 10C16.5832 9.51587 16.1747 9.13341 15.7039 9.13341H11.3862V4.7694C11.3862 4.28503 10.9702 3.91666 10.4998 3.91666C10.0258 3.91666 9.62054 4.28855 9.62054 4.7694V9.13341H5.2958C4.825 9.13341 4.4165 9.51587 4.4165 10C4.4165 10.4805 4.82133 10.8735 5.2958 10.8735H9.62054V15.2306C9.62054 15.7114 10.0258 16.0833 10.4998 16.0833Z" fill="#667B87" stroke="#667B87" stroke-width="0.5"/>
</g>
</g>
</svg>
