<svg width="16" height="16" viewBox="0 0 16 16" fill="none" xmlns="http://www.w3.org/2000/svg">
<path fill-rule="evenodd" clip-rule="evenodd" d="M0.636727 3.57069C0.808196 2.57622 1.37619 1.77848 1.98801 1.16668C2.96556 0.18915 4.58256 0.30534 5.41031 1.41258L6.76154 3.22005C7.50559 4.21532 7.40567 5.60602 6.52698 6.48471L6.43435 6.57735C6.10891 6.90278 6.10891 7.43042 6.43435 7.75586L8.24399 9.5655C8.56942 9.89094 9.09706 9.89094 9.4225 9.5655L9.51514 9.47286C10.3938 8.59417 11.7845 8.49425 12.7798 9.2383L14.6009 10.5997C15.701 11.4221 15.8164 13.0286 14.8452 13.9998C14.2266 14.6185 13.4201 15.1957 12.4134 15.3695C10.56 15.6895 7.00767 15.6862 3.66066 12.3392C0.312098 8.99063 0.317952 5.41951 0.636727 3.57069ZM3.16651 2.3452C2.68641 2.82529 2.37007 3.32662 2.27916 3.85388C2.02209 5.34483 1.98436 8.30587 4.83917 11.1607C7.69532 14.0168 10.6398 13.9844 12.1299 13.7271C12.6673 13.6344 13.1773 13.3107 13.6667 12.8213C13.92 12.568 13.8899 12.1491 13.603 11.9346L11.7819 10.5732C11.4501 10.3252 10.9865 10.3585 10.6937 10.6514L10.601 10.744C9.6247 11.7203 8.04179 11.7203 7.06548 10.744L5.25583 8.93437C4.27953 7.95806 4.27952 6.37515 5.25583 5.39884L5.34847 5.3062C5.64137 5.0133 5.67467 4.54974 5.42666 4.21798L4.07543 2.41051C3.85559 2.11644 3.42613 2.08558 3.16651 2.3452Z" fill="#667B87"/>
</svg>
