<svg width="24" height="24" viewBox="0 0 24 24" fill="none" xmlns="http://www.w3.org/2000/svg">
<path d="M0.000152588 12.1647C0.000152588 12.4878 0.142314 12.7851 0.400777 13.0306L8.9823 21.5992C9.24079 21.8448 9.5122 21.9611 9.82235 21.9611C10.4556 21.9611 10.9597 21.4958 10.9597 20.8496C10.9597 20.5394 10.8434 20.2293 10.6366 20.0354L7.7416 17.0887L3.38621 13.1211L6.51381 13.3149H22.8626C23.5346 13.3149 24 12.8368 24 12.1647C24 11.4927 23.5346 11.0145 22.8626 11.0145H6.51381L3.39916 11.2083L7.7416 7.24068L10.6366 4.29402C10.8434 4.08723 10.9597 3.78999 10.9597 3.4798C10.9597 2.83361 10.4556 2.36835 9.82235 2.36835C9.5122 2.36835 9.24079 2.47173 8.95647 2.75606L0.400777 11.2988C0.142314 11.5444 0.000152588 11.8416 0.000152588 12.1647Z" fill="#757982"/>
</svg>
