<svg width="20" height="20" viewBox="0 0 20 20" fill="none" xmlns="http://www.w3.org/2000/svg">
<g id="bankCards">
<g id="Group 112124">
<path id="Shape" fill-rule="evenodd" clip-rule="evenodd" d="M8.46788 3.33331H14.8655C15.3047 3.3333 15.6837 3.33329 15.9959 3.35879C16.3253 3.38571 16.653 3.44514 16.9683 3.6058C17.4387 3.84548 17.8212 4.22793 18.0609 4.69834C18.2215 5.01365 18.2809 5.34134 18.3079 5.67079C18.3334 5.98294 18.3334 6.36191 18.3333 6.80121V9.86542C18.3334 10.3047 18.3334 10.6837 18.3079 10.9958C18.2809 11.3253 18.2215 11.653 18.0609 11.9683C17.8212 12.4387 17.4387 12.8211 16.9683 13.0608C16.653 13.2215 16.3253 13.2809 15.9959 13.3078C15.6837 13.3333 15.3047 13.3333 14.8654 13.3333H13.3333V11.6666H14.8333C15.3138 11.6666 15.624 11.666 15.8601 11.6467C16.0865 11.6282 16.1705 11.5968 16.2117 11.5758C16.3685 11.4959 16.4959 11.3684 16.5758 11.2116C16.5968 11.1704 16.6282 11.0865 16.6467 10.8601C16.666 10.624 16.6667 10.3138 16.6667 9.83331V6.83331C16.6667 6.35285 16.666 6.04263 16.6467 5.80651C16.6282 5.58012 16.5968 5.49619 16.5758 5.45499C16.4959 5.29819 16.3685 5.1707 16.2117 5.09081C16.1705 5.06981 16.0865 5.03842 15.8601 5.01992C15.624 5.00063 15.3138 4.99998 14.8333 4.99998H8.5C8.01954 4.99998 7.70931 5.00063 7.4732 5.01992C7.24681 5.03842 7.16288 5.06981 7.12168 5.09081C6.96487 5.1707 6.83739 5.29819 6.7575 5.45499C6.7365 5.49619 6.7051 5.58012 6.68661 5.80651C6.66732 6.04263 6.66667 6.35285 6.66667 6.83331V7.49998H5L5 6.80119C4.99999 6.3619 4.99997 5.98293 5.02548 5.67079C5.05239 5.34134 5.11182 5.01365 5.27249 4.69834C5.51217 4.22793 5.89462 3.84548 6.36503 3.6058C6.68034 3.44514 7.00802 3.38571 7.33748 3.35879C7.64962 3.33329 8.02859 3.3333 8.46788 3.33331Z" fill="#533082"/>
<path id="Shape_2" d="M1.6665 10H14.9998V11.6667H1.6665V10Z" fill="#533082"/>
<path id="Shape_3" fill-rule="evenodd" clip-rule="evenodd" d="M5.13439 6.66663H11.532C11.9712 6.66661 12.3502 6.6666 12.6624 6.6921C12.9918 6.71902 13.3195 6.77845 13.6348 6.93911C14.1052 7.17879 14.4877 7.56125 14.7274 8.03165C14.888 8.34697 14.9474 8.67465 14.9744 9.0041C14.9999 9.31625 14.9999 9.69523 14.9998 10.1345V13.1987C14.9999 13.638 14.9999 14.017 14.9744 14.3292C14.9474 14.6586 14.888 14.9863 14.7274 15.3016C14.4877 15.772 14.1052 16.1545 13.6348 16.3941C13.3195 16.5548 12.9918 16.6142 12.6624 16.6412C12.3502 16.6667 11.9712 16.6666 11.5319 16.6666H5.1344C4.6951 16.6666 4.31613 16.6667 4.00398 16.6412C3.67453 16.6142 3.34685 16.5548 3.03153 16.3941C2.56112 16.1545 2.17867 15.772 1.93899 15.3016C1.77833 14.9863 1.7189 14.6586 1.69198 14.3292C1.66648 14.017 1.66649 13.638 1.6665 13.1987V10.1345C1.66649 9.69522 1.66648 9.31625 1.69198 9.0041C1.7189 8.67465 1.77833 8.34697 1.93899 8.03165C2.17867 7.56125 2.56112 7.17879 3.03153 6.93911C3.34685 6.77845 3.67453 6.71902 4.00398 6.6921C4.31613 6.6666 4.69509 6.66661 5.13439 6.66663ZM4.1397 8.35323C3.91332 8.37173 3.82938 8.40313 3.78818 8.42412C3.63138 8.50402 3.50389 8.6315 3.424 8.7883C3.40301 8.82951 3.37161 8.91344 3.35311 9.13982C3.33382 9.37594 3.33317 9.68617 3.33317 10.1666V13.1666C3.33317 13.6471 3.33382 13.9573 3.35311 14.1934C3.37161 14.4198 3.40301 14.5038 3.424 14.545C3.50389 14.7018 3.63138 14.8292 3.78818 14.9091C3.82938 14.9301 3.91332 14.9615 4.1397 14.98C4.37582 14.9993 4.68604 15 5.16651 15H11.4998C11.9803 15 12.2905 14.9993 12.5266 14.98C12.753 14.9615 12.837 14.9301 12.8782 14.9091C13.035 14.8292 13.1624 14.7018 13.2423 14.545C13.2633 14.5038 13.2947 14.4198 13.3132 14.1934C13.3325 13.9573 13.3332 13.6471 13.3332 13.1666V10.1666C13.3332 9.68617 13.3325 9.37594 13.3132 9.13982C13.2947 8.91344 13.2633 8.82951 13.2423 8.7883C13.1624 8.6315 13.035 8.50402 12.8782 8.42412C12.837 8.40313 12.753 8.37173 12.5266 8.35323C12.2905 8.33394 11.9803 8.33329 11.4998 8.33329H5.16651C4.68604 8.33329 4.37582 8.33394 4.1397 8.35323Z" fill="#533082"/>
</g>
</g>
</svg>
