<svg width="7" height="6" viewBox="0 0 7 6" fill="none" xmlns="http://www.w3.org/2000/svg">
<path id="Vector" d="M3.36968 5.55058L3.36969 5.55058L3.37027 5.54977L6.66104 0.906112L6.66104 0.906116L6.66165 0.90523C6.73133 0.804632 6.7665 0.716283 6.7665 0.617357C6.7665 0.505784 6.72498 0.406751 6.64662 0.33653C6.56933 0.267266 6.4646 0.233374 6.34962 0.233374C6.2704 0.233374 6.19853 0.244873 6.13208 0.280161C6.06601 0.315247 6.01509 0.368673 5.9684 0.434925L5.96823 0.43517L2.91527 4.79505L1.37742 2.99099C1.32817 2.92947 1.27443 2.88075 1.21024 2.8481C1.14502 2.81493 1.07568 2.80174 1.0008 2.80174C0.881307 2.80174 0.772943 2.83853 0.693035 2.90908C0.612257 2.9804 0.566504 3.08128 0.566504 3.19509C0.566504 3.29813 0.615463 3.40178 0.692401 3.48894C0.692448 3.489 0.692495 3.48905 0.692542 3.4891L2.49892 5.55084C2.49904 5.55097 2.49915 5.5511 2.49926 5.55123C2.61847 5.68996 2.75238 5.76671 2.93696 5.76671C3.11723 5.76671 3.26642 5.69325 3.36968 5.55058Z" fill="#FCFDFF" stroke="#FCFDFF" stroke-width="0.2"/>
</svg>
