<svg width="24" height="24" viewBox="0 0 24 24" fill="none" xmlns="http://www.w3.org/2000/svg">
<path d="M5.64882 19.8449L5.54275 19.7389L5.64882 19.8449L12.0013 13.4925L18.3537 19.8449C18.7534 20.2447 19.4451 20.2592 19.849 19.8434C20.2478 19.4328 20.25 18.7638 19.8475 18.3613L13.4949 11.9988L19.8475 5.64628C20.2469 5.24682 20.2617 4.56588 19.8467 4.16187C19.436 3.75197 18.7557 3.74973 18.353 4.1634L12.0013 10.5151L5.64956 4.16337C5.24958 3.75255 4.55684 3.73805 4.15281 4.16494C3.75471 4.57555 3.75278 5.24401 4.15507 5.64628C4.15507 5.64628 4.15507 5.64628 4.15507 5.64628L10.5076 11.9988L4.15507 18.3613C3.75534 18.761 3.74081 19.4425 4.15662 19.8465C4.56717 20.2453 5.24629 20.2475 5.64882 19.8449Z" fill="#6B7A99" stroke="#6B7A99" stroke-width="0.3"/>
</svg>
