<svg width="20" height="20" viewBox="0 0 20 20" fill="none" xmlns="http://www.w3.org/2000/svg">
<g id="Image">
<g id="Shape">
<path d="M2.66987 14.4273C2.60922 14.1632 2.57209 13.8856 2.54798 13.5905C2.52328 13.2882 2.51124 12.9494 2.50537 12.5694L4.45799 11.3621L4.52353 11.3214C4.79827 11.1508 5.0746 10.9792 5.38591 10.8992C5.65765 10.8293 5.94071 10.815 6.21811 10.8571C6.5359 10.9055 6.8281 11.0484 7.11863 11.1904L7.18792 11.2243L7.62822 11.4385C8.06938 11.6532 8.122 11.6675 8.15714 11.6721C8.21647 11.6799 8.27678 11.6749 8.33398 11.6573C8.36787 11.6469 8.41738 11.6241 8.81667 11.339L10.9047 9.84813L10.9823 9.79255C11.3025 9.56282 11.6238 9.3323 11.9947 9.23335C12.3176 9.14717 12.6566 9.13996 12.9829 9.21234C13.3576 9.29544 13.6884 9.5121 14.0181 9.72801L14.098 9.78024L17.4991 11.9966C17.497 12.6178 17.4881 13.1439 17.4516 13.5905C17.4421 13.707 17.4306 13.8207 17.4163 13.932L13.1881 11.1766C12.7192 10.871 12.6603 10.848 12.622 10.8395C12.5568 10.825 12.489 10.8264 12.4244 10.8437C12.3865 10.8538 12.3286 10.8793 11.8732 11.2045L9.78514 12.6954L9.71746 12.7438C9.43518 12.9462 9.15147 13.1497 8.8236 13.2504C8.5376 13.3383 8.23603 13.3636 7.93939 13.3245C7.59932 13.2797 7.28572 13.1263 6.9737 12.9737L6.8989 12.9371L6.45861 12.7229C6.04893 12.5235 6.00058 12.5099 5.96756 12.5049C5.91208 12.4964 5.85546 12.4993 5.80112 12.5133C5.76876 12.5216 5.72203 12.54 5.33452 12.7796L2.66987 14.4273Z" fill="#667B87"/>
<path d="M9.16647 7.50001C9.16647 8.42048 8.42027 9.16668 7.4998 9.16668C6.57932 9.16668 5.83313 8.42048 5.83313 7.50001C5.83313 6.57954 6.57932 5.83334 7.4998 5.83334C8.42027 5.83334 9.16647 6.57954 9.16647 7.50001Z" fill="#667B87"/>
</g>
<path id="Shape_2" fill-rule="evenodd" clip-rule="evenodd" d="M8.63099 2.5H11.369C12.2722 2.49999 13.0006 2.49999 13.5905 2.54818C14.1979 2.59781 14.7314 2.70265 15.225 2.95414C16.009 3.35361 16.6464 3.99103 17.0459 4.77504C17.2974 5.26862 17.4022 5.80211 17.4518 6.40948C17.5 6.99938 17.5 7.72783 17.5 8.63097V11.369C17.5 12.2722 17.5 13.0006 17.4518 13.5905C17.4022 14.1979 17.2974 14.7314 17.0459 15.225C16.6464 16.009 16.009 16.6464 15.225 17.0459C14.7314 17.2974 14.1979 17.4022 13.5905 17.4518C13.0006 17.5 12.2722 17.5 11.369 17.5H8.63097C7.72783 17.5 6.99937 17.5 6.40948 17.4518C5.80211 17.4022 5.26862 17.2974 4.77504 17.0459C3.99103 16.6464 3.35361 16.009 2.95414 15.225C2.70265 14.7314 2.59781 14.1979 2.54818 13.5905C2.49999 13.0006 2.49999 12.2722 2.5 11.369V8.63099C2.49999 7.72784 2.49999 6.99938 2.54818 6.40948C2.59781 5.80211 2.70265 5.26862 2.95414 4.77504C3.35361 3.99103 3.99103 3.35361 4.77504 2.95414C5.26862 2.70265 5.80211 2.59781 6.40948 2.54818C6.99938 2.49999 7.72784 2.49999 8.63099 2.5ZM6.5452 4.20931C6.04089 4.25052 5.75115 4.32733 5.53169 4.43915C5.06129 4.67883 4.67883 5.06129 4.43915 5.53169C4.32733 5.75115 4.25052 6.04089 4.20931 6.5452C4.16732 7.05923 4.16667 7.7195 4.16667 8.66667V11.3333C4.16667 12.2805 4.16732 12.9408 4.20931 13.4548C4.25052 13.9591 4.32733 14.2488 4.43915 14.4683C4.67883 14.9387 5.06129 15.3212 5.53169 15.5608C5.75115 15.6727 6.04089 15.7495 6.5452 15.7907C7.05923 15.8327 7.7195 15.8333 8.66667 15.8333H11.3333C12.2805 15.8333 12.9408 15.8327 13.4548 15.7907C13.9591 15.7495 14.2488 15.6727 14.4683 15.5608C14.9387 15.3212 15.3212 14.9387 15.5608 14.4683C15.6727 14.2488 15.7495 13.9591 15.7907 13.4548C15.8327 12.9408 15.8333 12.2805 15.8333 11.3333V8.66667C15.8333 7.7195 15.8327 7.05923 15.7907 6.5452C15.7495 6.04089 15.6727 5.75115 15.5608 5.53169C15.3212 5.06129 14.9387 4.67883 14.4683 4.43915C14.2488 4.32733 13.9591 4.25052 13.4548 4.20931C12.9408 4.16732 12.2805 4.16667 11.3333 4.16667H8.66667C7.7195 4.16667 7.05923 4.16732 6.5452 4.20931Z" fill="#667B87"/>
</g>
</svg>
