<svg width="39" height="39" viewBox="0 0 39 39" fill="none" xmlns="http://www.w3.org/2000/svg">
<path d="M5.09737 27.543C4.98159 27.0389 4.91069 26.5089 4.86467 25.9457C4.81751 25.3684 4.79453 24.7217 4.78333 23.9963L8.51106 21.6913L8.63617 21.6137C9.16069 21.288 9.68821 20.9605 10.2825 20.8076C10.8013 20.6741 11.3417 20.6468 11.8713 20.7274C12.478 20.8196 13.0358 21.0924 13.5905 21.3636L13.7227 21.4282L14.5633 21.8373C15.4055 22.2471 15.506 22.2744 15.5731 22.2832C15.6863 22.2982 15.8015 22.2885 15.9107 22.255C15.9754 22.2351 16.0699 22.1915 16.8322 21.6472L20.8184 18.8011L20.9666 18.695C21.5779 18.2564 22.1913 17.8163 22.8992 17.6274C23.5158 17.4629 24.1629 17.4491 24.7859 17.5873C25.5012 17.7459 26.1328 18.1596 26.7622 18.5717L26.9147 18.6715L33.4077 22.9027C33.4036 24.0886 33.3867 25.093 33.3171 25.9457C33.2989 26.168 33.2769 26.3851 33.2497 26.5975L25.1776 21.3372C24.2825 20.7539 24.17 20.7098 24.0969 20.6936C23.9723 20.666 23.8429 20.6687 23.7196 20.7016C23.6473 20.7209 23.5368 20.7698 22.6673 21.3906L18.6811 24.2367L18.5519 24.3293C18.013 24.7157 17.4713 25.104 16.8454 25.2964C16.2994 25.4642 15.7237 25.5124 15.1574 25.4378C14.5081 25.3522 13.9094 25.0594 13.3138 24.768L13.171 24.6983L12.3304 24.2892C11.5483 23.9086 11.456 23.8826 11.393 23.873C11.287 23.8569 11.179 23.8624 11.0752 23.8891C11.0134 23.905 10.9242 23.9401 10.1844 24.3975L5.09737 27.543Z" fill="#667B87"/>
<path d="M17.5 14.3183C17.5 16.0756 16.0754 17.5001 14.3181 17.5001C12.5609 17.5001 11.1363 16.0756 11.1363 14.3183C11.1363 12.561 12.5609 11.1365 14.3181 11.1365C16.0754 11.1365 17.5 12.561 17.5 14.3183Z" fill="#667B87"/>
<path fill-rule="evenodd" clip-rule="evenodd" d="M16.4772 4.77271H21.7043C23.4285 4.77269 24.8192 4.77268 25.9454 4.86469C27.1049 4.95943 28.1234 5.15958 29.0657 5.6397C30.5624 6.40233 31.7793 7.61922 32.542 9.11596C33.0221 10.0582 33.2222 11.0767 33.317 12.2363C33.409 13.3624 33.409 14.7531 33.4089 16.4773V21.7045C33.409 23.4287 33.409 24.8194 33.317 25.9455C33.2222 27.1051 33.0221 28.1235 32.542 29.0658C31.7793 30.5626 30.5624 31.7794 29.0657 32.5421C28.1234 33.0222 27.1049 33.2223 25.9454 33.3171C24.8192 33.4091 23.4285 33.4091 21.7044 33.4091H16.4772C14.753 33.4091 13.3623 33.4091 12.2361 33.3171C11.0766 33.2223 10.0581 33.0222 9.11584 32.5421C7.6191 31.7794 6.40221 30.5626 5.63958 29.0658C5.15946 28.1235 4.9593 27.1051 4.86457 25.9455C4.77255 24.8193 4.77257 23.4286 4.77258 21.7044V16.4773C4.77257 14.7531 4.77255 13.3624 4.86457 12.2363C4.9593 11.0767 5.15946 10.0582 5.63958 9.11596C6.40221 7.61922 7.6191 6.40233 9.11584 5.6397C10.0581 5.15958 11.0766 4.95943 12.2361 4.86469C13.3623 4.77268 14.753 4.77269 16.4772 4.77271ZM12.4952 8.03594C11.5325 8.1146 10.9793 8.26124 10.5604 8.47472C9.66231 8.9323 8.93218 9.66243 8.4746 10.5605C8.26112 10.9795 8.11448 11.5326 8.03582 12.4954C7.95564 13.4767 7.9544 14.7372 7.9544 16.5454V21.6363C7.9544 23.4446 7.95564 24.7051 8.03582 25.6864C8.11448 26.6492 8.26112 27.2023 8.4746 27.6213C8.93218 28.5193 9.66231 29.2495 10.5604 29.7071C10.9793 29.9205 11.5325 30.0672 12.4952 30.1458C13.4766 30.226 14.7371 30.2273 16.5453 30.2273H21.6362C23.4445 30.2273 24.705 30.226 25.6863 30.1458C26.6491 30.0672 27.2022 29.9205 27.6212 29.7071C28.5192 29.2495 29.2494 28.5193 29.7069 27.6213C29.9204 27.2023 30.0671 26.6492 30.1457 25.6864C30.2259 24.7051 30.2271 23.4446 30.2271 21.6363V16.5454C30.2271 14.7372 30.2259 13.4767 30.1457 12.4954C30.0671 11.5326 29.9204 10.9795 29.7069 10.5605C29.2494 9.66243 28.5192 8.9323 27.6212 8.47472C27.2022 8.26124 26.6491 8.1146 25.6863 8.03594C24.705 7.95576 23.4445 7.95452 21.6362 7.95452H16.5453C14.7371 7.95452 13.4766 7.95576 12.4952 8.03594Z" fill="#667B87"/>
</svg>
