<svg width="44" height="44" viewBox="0 0 44 44" fill="none" xmlns="http://www.w3.org/2000/svg">
<g id="Logo">
<rect x="0.5" y="0.5" width="43" height="43" rx="21.5" fill="#EAF4FA"/>
<g id="Image">
<g id="Shape">
<path d="M14.6699 26.4272C14.6092 26.1632 14.5721 25.8855 14.548 25.5905C14.5233 25.2882 14.5112 24.9494 14.5054 24.5694L16.458 23.362L16.5235 23.3214C16.7983 23.1508 17.0746 22.9792 17.3859 22.8991C17.6576 22.8292 17.9407 22.8149 18.2181 22.8571C18.5359 22.9054 18.8281 23.0483 19.1186 23.1904L19.1879 23.2242L19.6282 23.4385C20.0694 23.6532 20.122 23.6675 20.1571 23.6721C20.2165 23.6799 20.2768 23.6749 20.334 23.6573C20.3679 23.6469 20.4174 23.624 20.8167 23.3389L22.9047 21.8481L22.9823 21.7925C23.3025 21.5628 23.6238 21.3323 23.9947 21.2333C24.3176 21.1471 24.6566 21.1399 24.9829 21.2123C25.3576 21.2954 25.6884 21.5121 26.0181 21.728L26.098 21.7802L29.4991 23.9966C29.497 24.6178 29.4881 25.1439 29.4516 25.5905C29.4421 25.707 29.4306 25.8207 29.4163 25.932L25.1881 23.1765C24.7192 22.871 24.6603 22.8479 24.622 22.8394C24.5568 22.825 24.489 22.8264 24.4244 22.8436C24.3865 22.8537 24.3286 22.8793 23.8732 23.2045L21.7851 24.6954L21.7175 24.7438C21.4352 24.9462 21.1515 25.1497 20.8236 25.2504C20.5376 25.3383 20.236 25.3636 19.9394 25.3245C19.5993 25.2797 19.2857 25.1263 18.9737 24.9736L18.8989 24.9371L18.4586 24.7228C18.0489 24.5235 18.0006 24.5099 17.9676 24.5048C17.9121 24.4964 17.8555 24.4993 17.8011 24.5132C17.7688 24.5216 17.722 24.54 17.3345 24.7796L14.6699 26.4272Z" fill="#667B87"/>
<path d="M21.1665 19.5C21.1665 20.4205 20.4203 21.1666 19.4998 21.1666C18.5793 21.1666 17.8331 20.4205 17.8331 19.5C17.8331 18.5795 18.5793 17.8333 19.4998 17.8333C20.4203 17.8333 21.1665 18.5795 21.1665 19.5Z" fill="#667B87"/>
</g>
<path id="Shape_2" fill-rule="evenodd" clip-rule="evenodd" d="M20.631 14.5H23.369C24.2722 14.5 25.0006 14.5 25.5905 14.5482C26.1979 14.5978 26.7314 14.7027 27.225 14.9541C28.009 15.3536 28.6464 15.991 29.0459 16.775C29.2973 17.2686 29.4022 17.8021 29.4518 18.4095C29.5 18.9994 29.5 19.7278 29.5 20.631V23.369C29.5 24.2722 29.5 25.0006 29.4518 25.5905C29.4022 26.1979 29.2973 26.7314 29.0459 27.225C28.6464 28.009 28.009 28.6464 27.225 29.0459C26.7314 29.2973 26.1979 29.4022 25.5905 29.4518C25.0006 29.5 24.2722 29.5 23.369 29.5H20.631C19.7278 29.5 18.9994 29.5 18.4095 29.4518C17.8021 29.4022 17.2686 29.2973 16.775 29.0459C15.991 28.6464 15.3536 28.009 14.9541 27.225C14.7027 26.7314 14.5978 26.1979 14.5482 25.5905C14.5 25.0006 14.5 24.2722 14.5 23.369V20.631C14.5 19.7278 14.5 18.9994 14.5482 18.4095C14.5978 17.8021 14.7027 17.2686 14.9541 16.775C15.3536 15.991 15.991 15.3536 16.775 14.9541C17.2686 14.7027 17.8021 14.5978 18.4095 14.5482C18.9994 14.5 19.7278 14.5 20.631 14.5ZM18.5452 16.2093C18.0409 16.2505 17.7512 16.3273 17.5317 16.4392C17.0613 16.6788 16.6788 17.0613 16.4392 17.5317C16.3273 17.7512 16.2505 18.0409 16.2093 18.5452C16.1673 19.0592 16.1667 19.7195 16.1667 20.6667V23.3333C16.1667 24.2805 16.1673 24.9408 16.2093 25.4548C16.2505 25.9591 16.3273 26.2488 16.4392 26.4683C16.6788 26.9387 17.0613 27.3212 17.5317 27.5609C17.7512 27.6727 18.0409 27.7495 18.5452 27.7907C19.0592 27.8327 19.7195 27.8333 20.6667 27.8333H23.3333C24.2805 27.8333 24.9408 27.8327 25.4548 27.7907C25.9591 27.7495 26.2488 27.6727 26.4683 27.5609C26.9387 27.3212 27.3212 26.9387 27.5609 26.4683C27.6727 26.2488 27.7495 25.9591 27.7907 25.4548C27.8327 24.9408 27.8333 24.2805 27.8333 23.3333V20.6667C27.8333 19.7195 27.8327 19.0592 27.7907 18.5452C27.7495 18.0409 27.6727 17.7512 27.5609 17.5317C27.3212 17.0613 26.9387 16.6788 26.4683 16.4392C26.2488 16.3273 25.9591 16.2505 25.4548 16.2093C24.9408 16.1673 24.2805 16.1667 23.3333 16.1667H20.6667C19.7195 16.1667 19.0592 16.1673 18.5452 16.2093Z" fill="#667B87"/>
</g>
<rect x="0.5" y="0.5" width="43" height="43" rx="21.5" stroke="#C4D5DF"/>
</g>
</svg>
