<svg width="24" height="24" viewBox="0 0 24 24" fill="none" xmlns="http://www.w3.org/2000/svg">
<g id="Bank">
<path id="Shape" fill-rule="evenodd" clip-rule="evenodd" d="M9 11V15H7V11H9ZM5 9H7H9H11V11V15V17H9H7H5V15V11V9ZM17 11V15H15V11H17ZM13 9H15H17H19V11V15V17H17H15H13V15V11V9Z" fill="#667B87"/>
<path id="Shape_2" fill-rule="evenodd" clip-rule="evenodd" d="M18 17H6C5.44772 17 5 17.4477 5 18C5 18.5523 5.44772 19 6 19H18C18.5523 19 19 18.5523 19 18C19 17.4477 18.5523 17 18 17ZM6 15C4.34315 15 3 16.3431 3 18C3 19.6569 4.34315 21 6 21H18C19.6569 21 21 19.6569 21 18C21 16.3431 19.6569 15 18 15H6Z" fill="#667B87"/>
<path id="Shape_3" fill-rule="evenodd" clip-rule="evenodd" d="M5.92866 9H18.0713C18.5842 9 19 8.58423 19 8.07134C19 7.67772 18.7518 7.32686 18.3807 7.19573L12.3331 5.05905C12.1176 4.98289 11.8824 4.98289 11.6669 5.05905L5.61929 7.19573C5.24815 7.32686 5 7.67772 5 8.07134C5 8.58423 5.41577 9 5.92866 9ZM4.95303 5.30997C3.78259 5.7235 3 6.83 3 8.07134C3 9.6888 4.3112 11 5.92866 11H18.0713C19.6888 11 21 9.6888 21 8.07134C21 6.83 20.2174 5.7235 19.047 5.30997L12.9994 3.17329C12.3527 2.94481 11.6473 2.94481 11.0006 3.17329L4.95303 5.30997Z" fill="#667B87"/>
</g>
</svg>
