<svg width="74" height="16" viewBox="0 0 74 16" fill="none" xmlns="http://www.w3.org/2000/svg">
<rect x="1.5" y="1.5" width="13" height="13" rx="2.5" stroke="#667B87"/>
<path d="M7.44106 4.81818C7.68948 4.39394 8.31052 4.39394 8.55894 4.81818L11.9126 10.5455C12.161 10.9697 11.8505 11.5 11.3536 11.5H4.64637C4.14953 11.5 3.83901 10.9697 4.08743 10.5455L7.44106 4.81818Z" fill="#667B87"/>
<circle cx="28" cy="8" r="3.5" fill="#667B87" stroke="#667B87"/>
<rect x="21.5" y="1.5" width="13" height="13" rx="2.5" stroke="#667B87"/>
<circle cx="48" cy="8" r="3.5" fill="#95AFBE" stroke="#95AFBE"/>
<rect x="41.5" y="1.5" width="13" height="13" rx="2.5" stroke="#95AFBE"/>
<path d="M66.084 13C66.012 13 65.964 12.968 65.94 12.904L65.508 11.5C65.5 11.476 65.484 11.464 65.46 11.464H62.088C62.064 11.464 62.048 11.476 62.04 11.5L61.608 12.904C61.584 12.968 61.536 13 61.464 13H60.492C60.404 13 60.372 12.956 60.396 12.868L63.024 4.696C63.048 4.632 63.096 4.6 63.168 4.6H64.368C64.44 4.6 64.488 4.632 64.512 4.696L67.164 12.868L67.176 12.916C67.176 12.972 67.14 13 67.068 13H66.084ZM62.34 10.492C62.332 10.508 62.332 10.524 62.34 10.54C62.356 10.548 62.372 10.552 62.388 10.552H65.148C65.164 10.552 65.176 10.548 65.184 10.54C65.2 10.524 65.204 10.508 65.196 10.492L63.804 6.04C63.796 6.024 63.784 6.016 63.768 6.016C63.752 6.016 63.74 6.024 63.732 6.04L62.34 10.492ZM68.5186 13C68.4386 13 68.3986 12.96 68.3986 12.88V4.72C68.3986 4.64 68.4386 4.6 68.5186 4.6H69.4306C69.5106 4.6 69.5506 4.64 69.5506 4.72V12.88C69.5506 12.96 69.5106 13 69.4306 13H68.5186ZM71.3428 13C71.2628 13 71.2228 12.96 71.2228 12.88V4.72C71.2228 4.64 71.2628 4.6 71.3428 4.6H72.2548C72.3348 4.6 72.3748 4.64 72.3748 4.72V12.88C72.3748 12.96 72.3348 13 72.2548 13H71.3428Z" fill="#667B87"/>
</svg>
