<svg width="18" height="18" viewBox="0 0 18 18" fill="none" xmlns="http://www.w3.org/2000/svg">
<g id="Minus Icon">
<g id="Regular-M">
<path id="Vector" d="M2.97818 9.87245H15.0218C15.4145 9.87245 15.75 9.53699 15.75 9.13608C15.75 8.73517 15.4145 8.4079 15.0218 8.4079H2.97818C2.58545 8.4079 2.25 8.73517 2.25 9.13608C2.25 9.53699 2.58545 9.87245 2.97818 9.87245Z" fill="#533082"/>
</g>
<g id="Regular-M_2">
<path id="Vector_2" d="M8.24597 2.97818L8.24597 15.0218C8.24597 15.4145 8.58143 15.75 8.98234 15.75C9.38326 15.75 9.71052 15.4145 9.71052 15.0218L9.71053 2.97818C9.71053 2.58545 9.38326 2.25 8.98234 2.25C8.58143 2.25 8.24597 2.58545 8.24597 2.97818Z" fill="#533082"/>
</g>
</g>
</svg>
