<svg width="18" height="18" viewBox="0 0 18 18" fill="none" xmlns="http://www.w3.org/2000/svg">
<path d="M2.97818 9.87239H15.0218C15.4145 9.87239 15.75 9.53693 15.75 9.13602C15.75 8.73511 15.4145 8.40784 15.0218 8.40784H2.97818C2.58545 8.40784 2.25 8.73511 2.25 9.13602C2.25 9.53693 2.58545 9.87239 2.97818 9.87239Z" fill="#533082"/>
<path d="M8.24589 2.97818L8.24589 15.0218C8.24589 15.4145 8.58135 15.75 8.98227 15.75C9.38318 15.75 9.71045 15.4145 9.71045 15.0218L9.71045 2.97818C9.71045 2.58545 9.38318 2.25 8.98227 2.25C8.58136 2.25 8.24589 2.58545 8.24589 2.97818Z" fill="#533082"/>
</svg>
