<svg width="103" height="44" viewBox="0 0 103 44" fill="none" xmlns="http://www.w3.org/2000/svg">
<g opacity="0.5" clip-path="url(#clip0_1011_13661)">
<path fill-rule="evenodd" clip-rule="evenodd" d="M74.2845 -0.207929C73.2012 -1.23599 71.8967 -1.98832 70.1702 -2.98401L61.0509 -8.24894C58.8629 -9.51223 57.057 -10.5549 55.5166 -11.284C53.9167 -12.0413 52.3575 -12.5842 50.6502 -12.6737C48.0026 -12.8125 45.379 -12.1095 43.1554 -10.6655C41.7216 -9.73434 40.6428 -8.48455 39.6359 -7.02875C38.6664 -5.62711 37.6238 -3.82127 36.3606 -1.63324L23.0486 21.4238C21.7854 23.6118 20.7427 25.4176 20.0136 26.958C19.2563 28.558 18.7134 30.1171 18.6239 31.8244C18.4851 34.4721 19.1881 37.0956 20.6321 39.3192C21.5632 40.753 22.813 41.8318 24.2688 42.8387C25.6705 43.8082 27.4763 44.8508 29.6643 46.114L41.8488 53.1487C44.0368 54.412 45.8426 55.4546 47.383 56.1837C48.9829 56.941 50.5421 57.484 52.2494 57.5734C54.897 57.7122 57.5206 57.0092 59.7442 55.5652C61.178 54.6341 62.2568 53.3843 63.2637 51.9285C64.2332 50.5268 65.2758 48.721 66.539 46.5329L78.0814 26.5411C79.0787 24.8156 79.8323 23.5118 80.2565 22.0798C80.6307 20.8166 80.8037 19.5024 80.7692 18.1855C80.7301 16.6925 80.3397 15.2381 79.8229 13.3132L78.2923 7.60097C77.7774 5.67561 77.3883 4.22083 76.6757 2.90832C76.0471 1.75054 75.2401 0.698925 74.2845 -0.207929ZM66.7225 2.27401L58.0245 -2.74783C55.6962 -4.09208 54.1122 -5.00377 52.8311 -5.61015C51.5832 -6.2008 50.8719 -6.37617 50.3217 -6.40501C48.9979 -6.47438 47.6861 -6.12289 46.5743 -5.4009C46.1122 -5.10084 45.5839 -4.59331 44.7985 -3.45784C43.9922 -2.29214 43.0763 -0.710604 41.7321 1.61771L28.5498 24.4502C27.2055 26.7785 26.2938 28.3624 25.6874 29.6436C25.0968 30.8915 24.9214 31.6028 24.8926 32.1529C24.8232 33.4768 25.1747 34.7886 25.8967 35.9003C26.1967 36.3624 26.7043 36.8907 27.8397 37.6761C29.0054 38.4824 30.587 39.3983 32.9153 40.7426L44.8751 47.6476C47.2035 48.9918 48.7874 49.9035 50.0686 50.5099C51.3164 51.1005 52.0278 51.2759 52.5779 51.3048C53.9017 51.3741 55.2135 51.0226 56.3253 50.3006C56.7874 50.0006 57.3157 49.4931 58.1011 48.3576C58.9074 47.1919 59.8233 45.6104 61.1675 43.282L72.4667 23.7114L67.0304 20.5727C62.5268 17.9726 60.9838 12.2139 63.5839 7.7103L66.7225 2.27401ZM74.4093 17.5845C74.3056 17.0097 74.0912 16.1763 73.6766 14.629L72.3116 9.53456C71.897 7.98729 71.666 7.15836 71.4683 6.60871L69.0202 10.8489C68.1535 12.3501 68.6678 14.2697 70.169 15.1364L74.4093 17.5845Z" fill="#DCE6FF"/>
<path d="M43.2953 17.7417C41.7941 16.875 39.8745 17.3893 39.0078 18.8905C38.1411 20.3917 38.6555 22.3113 40.1566 23.178L56.4655 32.5939C57.9667 33.4606 59.8863 32.9463 60.753 31.4451C61.6197 29.9439 61.1054 28.0243 59.6042 27.1576L43.2953 17.7417Z" fill="#DCE6FF"/>
<path d="M37.018 28.6143C35.5168 27.7476 33.5972 28.2619 32.7305 29.7631C31.8638 31.2643 32.3782 33.1839 33.8794 34.0506L42.0338 38.7586C43.535 39.6253 45.4546 39.1109 46.3213 37.6097C47.188 36.1085 46.6736 34.189 45.1724 33.3223L37.018 28.6143Z" fill="#DCE6FF"/>
</g>
<defs>
<clipPath id="clip0_1011_13661">
<rect width="75.3276" height="75.3276" fill="white" transform="translate(37.6641 -29) rotate(30)"/>
</clipPath>
</defs>
</svg>
