<svg width="14" height="14" viewBox="0 0 14 14" fill="none" xmlns="http://www.w3.org/2000/svg">
<g id="Regular-M">
<path id="Vector" d="M7.00001 13.0833C7.47037 13.0833 7.88636 12.715 7.88636 12.2306V7.87353H12.204C12.6785 7.87353 13.0833 7.48054 13.0833 7C13.0833 6.51588 12.6748 6.13342 12.204 6.13342H7.88636V1.76941C7.88636 1.28503 7.47037 0.916672 7.00001 0.916672C6.52593 0.916672 6.12071 1.28856 6.12071 1.76941V6.13342H1.79596C1.32516 6.13342 0.916672 6.51588 0.916672 7C0.916672 7.48053 1.3215 7.87353 1.79596 7.87353H6.12071V12.2306C6.12071 12.7115 6.52593 13.0833 7.00001 13.0833Z" fill="#533082" stroke="#533082" stroke-width="0.5"/>
</g>
</svg>
