<svg width="16" height="16" viewBox="0 0 16 16" fill="none" xmlns="http://www.w3.org/2000/svg">
<path d="M16 8.10983C16 8.32523 15.9052 8.52339 15.7329 8.6871L10.0119 14.3995C9.83958 14.5632 9.65864 14.6407 9.45187 14.6407C9.02968 14.6407 8.69366 14.3306 8.69366 13.8998C8.69366 13.693 8.77119 13.4862 8.90906 13.357L10.839 11.3925L13.7426 8.74741L11.6576 8.87665H0.75834C0.310338 8.87665 0.000130178 8.55787 0.000130178 8.10983C0.000130178 7.66179 0.310338 7.34301 0.75834 7.34301H11.6576L13.734 7.47224L10.839 4.82714L8.90906 2.8627C8.77119 2.72484 8.69366 2.52668 8.69366 2.31989C8.69366 1.88909 9.02968 1.57892 9.45187 1.57892C9.65864 1.57892 9.83958 1.64784 10.0291 1.83739L15.7329 7.53256C15.9052 7.69625 16 7.89443 16 8.10983Z" fill="#474D58"/>
</svg>
