<svg width="174" height="48" viewBox="0 0 174 48" fill="none" xmlns="http://www.w3.org/2000/svg">
<g id="Search Field">
<rect width="174" height="48" rx="8" fill="#667B87"/>
<g id="Details">
<path id="2 Items" d="M18.128 28.562C18.1 28.6087 18.1093 28.632 18.156 28.632H22.552C22.6453 28.632 22.692 28.6787 22.692 28.772V29.36C22.692 29.4533 22.6453 29.5 22.552 29.5H16.966C16.8727 29.5 16.826 29.4533 16.826 29.36V28.772C16.826 28.7067 16.8493 28.6507 16.896 28.604C17.2133 28.2307 17.9273 27.3533 19.038 25.972L20.074 24.684C20.9513 23.5733 21.39 22.71 21.39 22.094C21.39 21.5993 21.222 21.2027 20.886 20.904C20.55 20.6053 20.1113 20.456 19.57 20.456C19.038 20.456 18.6087 20.61 18.282 20.918C17.9553 21.2167 17.7967 21.6133 17.806 22.108V22.542C17.806 22.6353 17.7593 22.682 17.666 22.682H16.938C16.8447 22.682 16.798 22.6353 16.798 22.542V21.982C16.8167 21.2633 17.0827 20.6847 17.596 20.246C18.1187 19.8073 18.7767 19.588 19.57 19.588C20.13 19.588 20.6247 19.6953 21.054 19.91C21.4833 20.1247 21.8147 20.4233 22.048 20.806C22.2813 21.1793 22.398 21.604 22.398 22.08C22.398 22.8733 21.9593 23.83 21.082 24.95C20.6247 25.538 19.7427 26.6207 18.436 28.198L18.128 28.562ZM27.7646 29.5C27.6713 29.5 27.6246 29.4533 27.6246 29.36V19.84C27.6246 19.7467 27.6713 19.7 27.7646 19.7H28.4786C28.5719 19.7 28.6186 19.7467 28.6186 19.84V29.36C28.6186 29.4533 28.5719 29.5 28.4786 29.5H27.7646ZM34.2296 23.102C34.2296 23.1953 34.183 23.242 34.0896 23.242H32.5076C32.4703 23.242 32.4516 23.2607 32.4516 23.298V27.428C32.4516 27.876 32.5496 28.1933 32.7456 28.38C32.951 28.5573 33.2683 28.646 33.6976 28.646H34.0476C34.141 28.646 34.1876 28.6927 34.1876 28.786V29.36C34.1876 29.4533 34.141 29.5 34.0476 29.5C33.9356 29.5093 33.763 29.514 33.5296 29.514C32.8576 29.514 32.349 29.388 32.0036 29.136C31.6583 28.884 31.4856 28.4173 31.4856 27.736V23.298C31.4856 23.2607 31.467 23.242 31.4296 23.242H30.5756C30.4823 23.242 30.4356 23.1953 30.4356 23.102V22.556C30.4356 22.4627 30.4823 22.416 30.5756 22.416H31.4296C31.467 22.416 31.4856 22.3973 31.4856 22.36V20.736C31.4856 20.6427 31.5323 20.596 31.6256 20.596H32.3116C32.405 20.596 32.4516 20.6427 32.4516 20.736V22.36C32.4516 22.3973 32.4703 22.416 32.5076 22.416H34.0896C34.183 22.416 34.2296 22.4627 34.2296 22.556V23.102ZM41.3782 24.768C41.4155 25.0293 41.4342 25.356 41.4342 25.748V26.196C41.4342 26.2893 41.3875 26.336 41.2942 26.336H36.7722C36.7348 26.336 36.7162 26.3547 36.7162 26.392C36.7348 26.9053 36.7628 27.2367 36.8002 27.386C36.9028 27.806 37.1222 28.1373 37.4582 28.38C37.7942 28.6227 38.2235 28.744 38.7462 28.744C39.1382 28.744 39.4835 28.6553 39.7822 28.478C40.0808 28.3007 40.3142 28.0487 40.4822 27.722C40.5382 27.638 40.6035 27.6193 40.6782 27.666L41.2242 27.988C41.2988 28.0347 41.3175 28.1 41.2802 28.184C41.0468 28.632 40.6968 28.9867 40.2302 29.248C39.7635 29.5 39.2268 29.626 38.6202 29.626C37.9575 29.6167 37.4022 29.458 36.9542 29.15C36.5062 28.842 36.1842 28.4127 35.9882 27.862C35.8202 27.414 35.7362 26.77 35.7362 25.93C35.7362 25.538 35.7408 25.2207 35.7502 24.978C35.7688 24.726 35.8062 24.502 35.8622 24.306C36.0208 23.6993 36.3382 23.214 36.8142 22.85C37.2995 22.486 37.8828 22.304 38.5642 22.304C39.4135 22.304 40.0668 22.5187 40.5242 22.948C40.9815 23.3773 41.2662 23.984 41.3782 24.768ZM38.5642 23.172C38.1068 23.172 37.7242 23.2933 37.4162 23.536C37.1175 23.7693 36.9215 24.0867 36.8282 24.488C36.7722 24.684 36.7348 25.0013 36.7162 25.44C36.7162 25.4773 36.7348 25.496 36.7722 25.496H40.3982C40.4355 25.496 40.4542 25.4773 40.4542 25.44C40.4355 25.02 40.4075 24.7213 40.3702 24.544C40.2675 24.124 40.0575 23.7927 39.7402 23.55C39.4322 23.298 39.0402 23.172 38.5642 23.172ZM50.579 22.318C51.279 22.318 51.8297 22.528 52.231 22.948C52.6417 23.368 52.847 23.942 52.847 24.67V29.36C52.847 29.4533 52.8003 29.5 52.707 29.5H52.007C51.9137 29.5 51.867 29.4533 51.867 29.36V24.866C51.867 24.3527 51.7177 23.9467 51.419 23.648C51.1297 23.34 50.747 23.186 50.271 23.186C49.7763 23.186 49.375 23.3353 49.067 23.634C48.7683 23.9327 48.619 24.334 48.619 24.838V29.36C48.619 29.4533 48.5723 29.5 48.479 29.5H47.765C47.6717 29.5 47.625 29.4533 47.625 29.36V24.866C47.625 24.3527 47.4803 23.9467 47.191 23.648C46.9017 23.34 46.5143 23.186 46.029 23.186C45.5343 23.186 45.1377 23.3353 44.839 23.634C44.5497 23.9327 44.405 24.334 44.405 24.838V29.36C44.405 29.4533 44.3583 29.5 44.265 29.5H43.551C43.4577 29.5 43.411 29.4533 43.411 29.36V22.556C43.411 22.4627 43.4577 22.416 43.551 22.416H44.265C44.3583 22.416 44.405 22.4627 44.405 22.556V23.116C44.405 23.1347 44.4097 23.1487 44.419 23.158C44.4377 23.158 44.4563 23.1487 44.475 23.13C44.6803 22.8593 44.9417 22.6587 45.259 22.528C45.5857 22.388 45.945 22.318 46.337 22.318C46.8223 22.318 47.2377 22.416 47.583 22.612C47.9283 22.808 48.1897 23.0927 48.367 23.466C48.3857 23.5127 48.409 23.5127 48.437 23.466C48.6423 23.0833 48.9317 22.7987 49.305 22.612C49.6783 22.416 50.103 22.318 50.579 22.318ZM57.3151 29.57C56.7924 29.57 56.3258 29.486 55.9151 29.318C55.5138 29.15 55.2011 28.926 54.9771 28.646C54.7624 28.366 54.6551 28.0533 54.6551 27.708V27.54C54.6551 27.4467 54.7018 27.4 54.7951 27.4H55.4671C55.5604 27.4 55.6071 27.4467 55.6071 27.54V27.652C55.6071 27.96 55.7658 28.2307 56.0831 28.464C56.4098 28.688 56.8158 28.8 57.3011 28.8C57.7864 28.8 58.1784 28.6927 58.4771 28.478C58.7758 28.254 58.9251 27.974 58.9251 27.638C58.9251 27.4047 58.8458 27.2133 58.6871 27.064C58.5378 26.9147 58.3558 26.798 58.1411 26.714C57.9358 26.63 57.6138 26.5227 57.1751 26.392C56.6524 26.2427 56.2231 26.0933 55.8871 25.944C55.5511 25.7947 55.2664 25.5893 55.0331 25.328C54.8091 25.0573 54.6971 24.7167 54.6971 24.306C54.6971 23.7087 54.9304 23.2327 55.3971 22.878C55.8638 22.5233 56.4798 22.346 57.2451 22.346C57.7584 22.346 58.2111 22.43 58.6031 22.598C59.0044 22.766 59.3124 22.9993 59.5271 23.298C59.7418 23.5873 59.8491 23.914 59.8491 24.278V24.32C59.8491 24.4133 59.8024 24.46 59.7091 24.46H59.0511C58.9578 24.46 58.9111 24.4133 58.9111 24.32V24.278C58.9111 23.9607 58.7571 23.6947 58.4491 23.48C58.1504 23.2653 57.7444 23.158 57.2311 23.158C56.7551 23.158 56.3724 23.256 56.0831 23.452C55.7938 23.6387 55.6491 23.9 55.6491 24.236C55.6491 24.5533 55.7891 24.796 56.0691 24.964C56.3491 25.132 56.7831 25.3 57.3711 25.468C57.9124 25.6267 58.3511 25.776 58.6871 25.916C59.0231 26.056 59.3124 26.2613 59.5551 26.532C59.7978 26.7933 59.9191 27.1387 59.9191 27.568C59.9191 28.1747 59.6811 28.66 59.2051 29.024C58.7291 29.388 58.0991 29.57 57.3151 29.57Z" fill="#F6FCFF"/>
<rect id="Rectangle 20948" opacity="0.2" x="69" y="19" width="2" height="10" rx="1" fill="#F6FCFF"/>
<path id="AED 14" d="M86.084 29.5C85.9907 29.5 85.93 29.4533 85.902 29.36L85.482 27.988C85.4633 27.9507 85.44 27.932 85.412 27.932H81.968C81.94 27.932 81.9167 27.9507 81.898 27.988L81.492 29.36C81.464 29.4533 81.4033 29.5 81.31 29.5H79.532C79.476 29.5 79.434 29.486 79.406 29.458C79.378 29.4207 79.3733 29.3693 79.392 29.304L82.416 19.84C82.444 19.7467 82.5047 19.7 82.598 19.7H84.796C84.8893 19.7 84.95 19.7467 84.978 19.84L88.002 29.304C88.0113 29.3227 88.016 29.346 88.016 29.374C88.016 29.458 87.9647 29.5 87.862 29.5H86.084ZM82.402 26.322C82.3927 26.378 82.4113 26.406 82.458 26.406H84.922C84.978 26.406 84.9967 26.378 84.978 26.322L83.718 22.164C83.7087 22.1267 83.6947 22.1127 83.676 22.122C83.6573 22.122 83.6433 22.136 83.634 22.164L82.402 26.322ZM96.0506 21.226C96.0506 21.2727 96.0319 21.3147 95.9946 21.352C95.9666 21.38 95.9292 21.394 95.8826 21.394H91.2906C91.2439 21.394 91.2206 21.4173 91.2206 21.464V23.634C91.2206 23.6807 91.2439 23.704 91.2906 23.704H94.3006C94.3472 23.704 94.3846 23.7227 94.4126 23.76C94.4499 23.788 94.4686 23.8253 94.4686 23.872V25.23C94.4686 25.2767 94.4499 25.3187 94.4126 25.356C94.3846 25.384 94.3472 25.398 94.3006 25.398H91.2906C91.2439 25.398 91.2206 25.4213 91.2206 25.468V27.736C91.2206 27.7827 91.2439 27.806 91.2906 27.806H95.8826C95.9292 27.806 95.9666 27.8247 95.9946 27.862C96.0319 27.89 96.0506 27.9273 96.0506 27.974V29.332C96.0506 29.3787 96.0319 29.4207 95.9946 29.458C95.9666 29.486 95.9292 29.5 95.8826 29.5H89.4146C89.3679 29.5 89.3259 29.486 89.2886 29.458C89.2606 29.4207 89.2466 29.3787 89.2466 29.332V19.868C89.2466 19.8213 89.2606 19.784 89.2886 19.756C89.3259 19.7187 89.3679 19.7 89.4146 19.7H95.8826C95.9292 19.7 95.9666 19.7187 95.9946 19.756C96.0319 19.784 96.0506 19.8213 96.0506 19.868V21.226ZM97.5904 29.5C97.5437 29.5 97.5017 29.486 97.4644 29.458C97.4364 29.4207 97.4224 29.3787 97.4224 29.332V19.868C97.4224 19.8213 97.4364 19.784 97.4644 19.756C97.5017 19.7187 97.5437 19.7 97.5904 19.7H101.09C101.79 19.7 102.402 19.826 102.924 20.078C103.456 20.3207 103.867 20.666 104.156 21.114C104.446 21.562 104.59 22.08 104.59 22.668V26.532C104.59 27.12 104.446 27.638 104.156 28.086C103.867 28.534 103.456 28.884 102.924 29.136C102.402 29.3787 101.79 29.5 101.09 29.5H97.5904ZM99.3964 27.736C99.3964 27.7827 99.4197 27.806 99.4664 27.806H101.16C101.59 27.806 101.935 27.6613 102.196 27.372C102.467 27.0827 102.607 26.6953 102.616 26.21V22.99C102.616 22.5047 102.481 22.1173 102.21 21.828C101.949 21.5387 101.594 21.394 101.146 21.394H99.4664C99.4197 21.394 99.3964 21.4173 99.3964 21.464V27.736ZM110.125 19.742C110.172 19.714 110.242 19.7 110.335 19.7H112.029C112.076 19.7 112.113 19.7187 112.141 19.756C112.179 19.784 112.197 19.8213 112.197 19.868V29.332C112.197 29.3787 112.179 29.4207 112.141 29.458C112.113 29.486 112.076 29.5 112.029 29.5H110.391C110.345 29.5 110.303 29.486 110.265 29.458C110.237 29.4207 110.223 29.3787 110.223 29.332V21.66C110.223 21.6413 110.214 21.6227 110.195 21.604C110.177 21.5853 110.158 21.5807 110.139 21.59L108.753 21.968L108.697 21.982C108.613 21.982 108.571 21.9307 108.571 21.828L108.529 20.624C108.529 20.5307 108.571 20.4653 108.655 20.428L110.125 19.742ZM120.619 25.23C120.665 25.23 120.703 25.2487 120.731 25.286C120.768 25.314 120.787 25.3513 120.787 25.398V26.812C120.787 26.8587 120.768 26.9007 120.731 26.938C120.703 26.966 120.665 26.98 120.619 26.98H120.017C119.97 26.98 119.947 27.0033 119.947 27.05V29.332C119.947 29.3787 119.928 29.4207 119.891 29.458C119.863 29.486 119.825 29.5 119.779 29.5H118.141C118.094 29.5 118.052 29.486 118.015 29.458C117.987 29.4207 117.973 29.3787 117.973 29.332V27.05C117.973 27.0033 117.949 26.98 117.903 26.98H113.605C113.558 26.98 113.516 26.966 113.479 26.938C113.451 26.9007 113.437 26.8587 113.437 26.812V25.692C113.437 25.636 113.451 25.566 113.479 25.482L115.999 19.826C116.036 19.742 116.101 19.7 116.195 19.7H117.945C118.01 19.7 118.052 19.7187 118.071 19.756C118.099 19.784 118.099 19.8307 118.071 19.896L115.733 25.146C115.723 25.1647 115.723 25.1833 115.733 25.202C115.742 25.2207 115.756 25.23 115.775 25.23H117.903C117.949 25.23 117.973 25.2067 117.973 25.16V23.424C117.973 23.3773 117.987 23.34 118.015 23.312C118.052 23.2747 118.094 23.256 118.141 23.256H119.779C119.825 23.256 119.863 23.2747 119.891 23.312C119.928 23.34 119.947 23.3773 119.947 23.424V25.16C119.947 25.2067 119.97 25.23 120.017 25.23H120.619Z" fill="#F6FCFF"/>
</g>
<g id="Shopping Bag">
<path id="Shape" fill-rule="evenodd" clip-rule="evenodd" d="M137.025 23.4505C136.756 21.0781 138.612 19 141 19H151.001C153.389 19 155.245 21.0781 154.976 23.4505L154.296 29.4504C154.067 31.4723 152.356 33 150.321 33H141.68C139.645 33 137.934 31.4724 137.705 29.4504L137.025 23.4505ZM141 21C139.806 21 138.878 22.039 139.012 23.2252L139.692 29.2252C139.807 30.2362 140.662 31 141.68 31H150.321C151.339 31 152.194 30.2362 152.308 29.2252L152.988 23.2252C153.123 22.039 152.195 21 151.001 21H141Z" fill="#F6FCFF"/>
<path id="Shape_2" fill-rule="evenodd" clip-rule="evenodd" d="M142 19C142 16.7909 143.791 15 146 15C148.209 15 150 16.7909 150 19V22C150 22.5523 149.552 23 149 23C148.448 23 148 22.5523 148 22V19C148 17.8954 147.105 17 146 17C144.895 17 144 17.8954 144 19V22C144 22.5523 143.552 23 143 23C142.448 23 142 22.5523 142 22V19Z" fill="#F6FCFF"/>
</g>
</g>
</svg>
