<svg width="36" height="36" viewBox="0 0 36 36" fill="none" xmlns="http://www.w3.org/2000/svg">
<rect x="0.5" y="0.5" width="35" height="35" rx="17.5" fill="#EAF4FA"/>
<path fill-rule="evenodd" clip-rule="evenodd" d="M17.9998 11.3333C14.3179 11.3333 11.3332 14.3181 11.3332 18C11.3332 21.6819 14.3179 24.6667 17.9998 24.6667C21.6817 24.6667 24.6665 21.6819 24.6665 18C24.6665 14.3181 21.6817 11.3333 17.9998 11.3333ZM9.6665 18C9.6665 13.3976 13.3975 9.66666 17.9998 9.66666C22.6022 9.66666 26.3332 13.3976 26.3332 18C26.3332 22.6024 22.6022 26.3333 17.9998 26.3333C13.3975 26.3333 9.6665 22.6024 9.6665 18Z" fill="#667B87"/>
<path d="M22.9994 17.5835C22.7977 15.1528 20.8473 13.2023 18.4165 13.0006C18.1872 12.9816 18 13.1699 18 13.4V17.5833C18 17.8135 18.1865 18 18.4167 18H22.6C22.8301 18 23.0185 17.8128 22.9994 17.5835Z" fill="#667B87"/>
<rect x="0.5" y="0.5" width="35" height="35" rx="17.5" stroke="#C4D5DF"/>
</svg>
