<svg width="181" height="38" viewBox="0 0 181 38" fill="none" xmlns="http://www.w3.org/2000/svg">
<g id="Details">
<path id="Your Split &#226;&#128;&#162; 2 Items" d="M3.096 12.988C3.016 12.988 2.976 12.948 2.976 12.868V9.316C2.976 9.284 2.972 9.264 2.964 9.256L0.468 4.744C0.452 4.712 0.444 4.688 0.444 4.672C0.444 4.624 0.48 4.6 0.552 4.6H1.2C1.272 4.6 1.32 4.628 1.344 4.684L3.36 8.344C3.368 8.352 3.38 8.356 3.396 8.356C3.412 8.356 3.424 8.352 3.432 8.344L5.46 4.684C5.492 4.628 5.54 4.6 5.604 4.6H6.252C6.3 4.6 6.332 4.616 6.348 4.648C6.364 4.672 6.36 4.704 6.336 4.744L3.84 9.256C3.832 9.264 3.828 9.284 3.828 9.316V12.868C3.828 12.948 3.788 12.988 3.708 12.988H3.096ZM9.34631 13.096C8.77031 13.096 8.27431 12.948 7.85831 12.652C7.44231 12.356 7.15431 11.948 6.99431 11.428C6.88231 11.06 6.82631 10.568 6.82631 9.952C6.82631 9.336 6.88231 8.848 6.99431 8.488C7.14631 7.976 7.43031 7.572 7.84631 7.276C8.26231 6.98 8.76631 6.832 9.35831 6.832C9.92631 6.832 10.4143 6.98 10.8223 7.276C11.2383 7.572 11.5223 7.972 11.6743 8.476C11.7863 8.82 11.8423 9.312 11.8423 9.952C11.8423 10.6 11.7863 11.092 11.6743 11.428C11.5223 11.948 11.2383 12.356 10.8223 12.652C10.4143 12.948 9.92231 13.096 9.34631 13.096ZM9.34631 12.352C9.73031 12.352 10.0583 12.248 10.3303 12.04C10.6023 11.824 10.7863 11.536 10.8823 11.176C10.9543 10.888 10.9903 10.484 10.9903 9.964C10.9903 9.436 10.9583 9.032 10.8943 8.752C10.7983 8.392 10.6103 8.108 10.3303 7.9C10.0583 7.684 9.72631 7.576 9.33431 7.576C8.94231 7.576 8.61031 7.684 8.33831 7.9C8.06631 8.108 7.88231 8.392 7.78631 8.752C7.72231 9.032 7.69031 9.436 7.69031 9.964C7.69031 10.492 7.72231 10.896 7.78631 11.176C7.87431 11.536 8.05431 11.824 8.32631 12.04C8.60631 12.248 8.94631 12.352 9.34631 12.352ZM17.2414 7.048C17.2414 6.968 17.2814 6.928 17.3614 6.928H17.9734C18.0534 6.928 18.0934 6.968 18.0934 7.048V12.88C18.0934 12.96 18.0534 13 17.9734 13H17.3614C17.2814 13 17.2414 12.96 17.2414 12.88V12.364C17.2414 12.348 17.2334 12.336 17.2174 12.328C17.2014 12.32 17.1894 12.324 17.1814 12.34C16.8454 12.836 16.3134 13.084 15.5854 13.084C15.2014 13.084 14.8454 13.008 14.5174 12.856C14.1974 12.696 13.9414 12.468 13.7494 12.172C13.5654 11.876 13.4734 11.52 13.4734 11.104V7.048C13.4734 6.968 13.5134 6.928 13.5934 6.928H14.2054C14.2854 6.928 14.3254 6.968 14.3254 7.048V10.852C14.3254 11.308 14.4534 11.672 14.7094 11.944C14.9654 12.208 15.3134 12.34 15.7534 12.34C16.2094 12.34 16.5694 12.204 16.8334 11.932C17.1054 11.66 17.2414 11.3 17.2414 10.852V7.048ZM22.451 6.868C22.715 6.868 22.943 6.92 23.135 7.024C23.199 7.056 23.223 7.108 23.207 7.18L23.075 7.768C23.051 7.848 22.999 7.872 22.919 7.84C22.783 7.784 22.627 7.756 22.451 7.756L22.295 7.768C21.879 7.784 21.535 7.94 21.263 8.236C20.991 8.524 20.855 8.892 20.855 9.34V12.88C20.855 12.96 20.815 13 20.735 13H20.123C20.043 13 20.003 12.96 20.003 12.88V7.048C20.003 6.968 20.043 6.928 20.123 6.928H20.735C20.815 6.928 20.855 6.968 20.855 7.048V7.78C20.855 7.804 20.859 7.82 20.867 7.828C20.883 7.828 20.895 7.82 20.903 7.804C21.071 7.508 21.283 7.28 21.539 7.12C21.803 6.952 22.107 6.868 22.451 6.868ZM29.3684 13.096C28.4644 13.096 27.7484 12.892 27.2204 12.484C26.7004 12.076 26.4404 11.532 26.4404 10.852V10.48C26.4404 10.4 26.4804 10.36 26.5604 10.36H27.1484C27.2284 10.36 27.2684 10.4 27.2684 10.48V10.804C27.2684 11.268 27.4604 11.644 27.8444 11.932C28.2284 12.212 28.7604 12.352 29.4404 12.352C30.0564 12.352 30.5244 12.224 30.8444 11.968C31.1644 11.704 31.3244 11.356 31.3244 10.924C31.3244 10.644 31.2484 10.404 31.0964 10.204C30.9524 10.004 30.7244 9.816 30.4124 9.64C30.1084 9.464 29.6764 9.26 29.1164 9.028C28.5164 8.788 28.0484 8.58 27.7124 8.404C27.3844 8.22 27.1164 7.988 26.9084 7.708C26.7084 7.42 26.6084 7.06 26.6084 6.628C26.6084 5.956 26.8404 5.436 27.3044 5.068C27.7764 4.692 28.4204 4.504 29.2364 4.504C30.1244 4.504 30.8244 4.712 31.3364 5.128C31.8484 5.544 32.1044 6.096 32.1044 6.784V7.048C32.1044 7.128 32.0644 7.168 31.9844 7.168H31.3844C31.3044 7.168 31.2644 7.128 31.2644 7.048V6.832C31.2644 6.368 31.0804 5.988 30.7124 5.692C30.3524 5.396 29.8484 5.248 29.2004 5.248C28.6324 5.248 28.1964 5.364 27.8924 5.596C27.5884 5.828 27.4364 6.164 27.4364 6.604C27.4364 6.892 27.5084 7.132 27.6524 7.324C27.8044 7.508 28.0164 7.672 28.2884 7.816C28.5684 7.952 28.9964 8.132 29.5724 8.356C30.1564 8.596 30.6244 8.82 30.9764 9.028C31.3364 9.236 31.6244 9.492 31.8404 9.796C32.0644 10.092 32.1764 10.456 32.1764 10.888C32.1764 11.56 31.9284 12.096 31.4324 12.496C30.9364 12.896 30.2484 13.096 29.3684 13.096ZM38.5002 8.44C38.6202 8.824 38.6802 9.332 38.6802 9.964C38.6802 10.604 38.6282 11.1 38.5242 11.452C38.3802 11.964 38.1162 12.368 37.7322 12.664C37.3562 12.952 36.8802 13.096 36.3042 13.096C35.9922 13.096 35.7042 13.036 35.4402 12.916C35.1762 12.788 34.9562 12.608 34.7802 12.376C34.7642 12.36 34.7482 12.356 34.7322 12.364C34.7242 12.364 34.7202 12.372 34.7202 12.388V15.208C34.7202 15.288 34.6802 15.328 34.6002 15.328H33.9882C33.9082 15.328 33.8682 15.288 33.8682 15.208V7.048C33.8682 6.968 33.9082 6.928 33.9882 6.928H34.6002C34.6802 6.928 34.7202 6.968 34.7202 7.048V7.552C34.7202 7.568 34.7242 7.58 34.7322 7.588C34.7482 7.588 34.7642 7.58 34.7802 7.564C34.9562 7.332 35.1722 7.152 35.4282 7.024C35.6922 6.896 35.9842 6.832 36.3042 6.832C36.8642 6.832 37.3322 6.976 37.7082 7.264C38.0922 7.552 38.3562 7.944 38.5002 8.44ZM37.5522 11.476C37.6402 11.3 37.7042 11.104 37.7442 10.888C37.7922 10.664 37.8162 10.356 37.8162 9.964C37.8162 9.588 37.8002 9.296 37.7682 9.088C37.7362 8.872 37.6802 8.68 37.6002 8.512C37.5042 8.224 37.3322 7.996 37.0842 7.828C36.8442 7.66 36.5562 7.576 36.2202 7.576C35.9002 7.576 35.6322 7.66 35.4162 7.828C35.2002 7.996 35.0402 8.22 34.9362 8.5C34.8642 8.66 34.8122 8.848 34.7802 9.064C34.7482 9.28 34.7322 9.58 34.7322 9.964C34.7322 10.348 34.7482 10.652 34.7802 10.876C34.8122 11.092 34.8682 11.284 34.9482 11.452C35.0442 11.724 35.2002 11.944 35.4162 12.112C35.6402 12.272 35.9042 12.352 36.2082 12.352C36.5282 12.352 36.8042 12.272 37.0362 12.112C37.2762 11.952 37.4482 11.74 37.5522 11.476ZM40.5253 13C40.4453 13 40.4053 12.96 40.4053 12.88V4.72C40.4053 4.64 40.4453 4.6 40.5253 4.6H41.1373C41.2173 4.6 41.2573 4.64 41.2573 4.72V12.88C41.2573 12.96 41.2173 13 41.1373 13H40.5253ZM43.7469 5.824C43.5549 5.824 43.3949 5.76 43.2669 5.632C43.1389 5.504 43.0749 5.344 43.0749 5.152C43.0749 4.952 43.1389 4.792 43.2669 4.672C43.3949 4.544 43.5549 4.48 43.7469 4.48C43.9389 4.48 44.0989 4.544 44.2269 4.672C44.3549 4.792 44.4189 4.952 44.4189 5.152C44.4189 5.344 44.3549 5.504 44.2269 5.632C44.0989 5.76 43.9389 5.824 43.7469 5.824ZM43.4109 12.988C43.3309 12.988 43.2909 12.948 43.2909 12.868V7.036C43.2909 6.956 43.3309 6.916 43.4109 6.916H44.0229C44.1029 6.916 44.1429 6.956 44.1429 7.036V12.868C44.1429 12.948 44.1029 12.988 44.0229 12.988H43.4109ZM48.9535 7.516C48.9535 7.596 48.9135 7.636 48.8335 7.636H47.4775C47.4455 7.636 47.4295 7.652 47.4295 7.684V11.224C47.4295 11.608 47.5135 11.88 47.6815 12.04C47.8575 12.192 48.1295 12.268 48.4975 12.268H48.7975C48.8775 12.268 48.9175 12.308 48.9175 12.388V12.88C48.9175 12.96 48.8775 13 48.7975 13C48.7015 13.008 48.5535 13.012 48.3535 13.012C47.7775 13.012 47.3415 12.904 47.0455 12.688C46.7495 12.472 46.6015 12.072 46.6015 11.488V7.684C46.6015 7.652 46.5855 7.636 46.5535 7.636H45.8215C45.7415 7.636 45.7015 7.596 45.7015 7.516V7.048C45.7015 6.968 45.7415 6.928 45.8215 6.928H46.5535C46.5855 6.928 46.6015 6.912 46.6015 6.88V5.488C46.6015 5.408 46.6415 5.368 46.7215 5.368H47.3095C47.3895 5.368 47.4295 5.408 47.4295 5.488V6.88C47.4295 6.912 47.4455 6.928 47.4775 6.928H48.8335C48.9135 6.928 48.9535 6.968 48.9535 7.048V7.516ZM56.3053 11.188C55.9213 11.188 55.5933 11.052 55.3213 10.78C55.0493 10.5 54.9133 10.172 54.9133 9.796C54.9133 9.412 55.0493 9.088 55.3213 8.824C55.5933 8.552 55.9213 8.416 56.3053 8.416C56.6813 8.416 57.0053 8.552 57.2773 8.824C57.5493 9.088 57.6853 9.412 57.6853 9.796C57.6853 10.172 57.5493 10.5 57.2773 10.78C57.0053 11.052 56.6813 11.188 56.3053 11.188ZM64.7771 12.196C64.7531 12.236 64.7611 12.256 64.8011 12.256H68.5691C68.6491 12.256 68.6891 12.296 68.6891 12.376V12.88C68.6891 12.96 68.6491 13 68.5691 13H63.7811C63.7011 13 63.6611 12.96 63.6611 12.88V12.376C63.6611 12.32 63.6811 12.272 63.7211 12.232C63.9931 11.912 64.6051 11.16 65.5571 9.976L66.4451 8.872C67.1971 7.92 67.5731 7.18 67.5731 6.652C67.5731 6.228 67.4291 5.888 67.1411 5.632C66.8531 5.376 66.4771 5.248 66.0131 5.248C65.5571 5.248 65.1891 5.38 64.9091 5.644C64.6291 5.9 64.4931 6.24 64.5011 6.664V7.036C64.5011 7.116 64.4611 7.156 64.3811 7.156H63.7571C63.6771 7.156 63.6371 7.116 63.6371 7.036V6.556C63.6531 5.94 63.8811 5.444 64.3211 5.068C64.7691 4.692 65.3331 4.504 66.0131 4.504C66.4931 4.504 66.9171 4.596 67.2851 4.78C67.6531 4.964 67.9371 5.22 68.1371 5.548C68.3371 5.868 68.4371 6.232 68.4371 6.64C68.4371 7.32 68.0611 8.14 67.3091 9.1C66.9171 9.604 66.1611 10.532 65.0411 11.884L64.7771 12.196ZM73.0371 13C72.9571 13 72.9171 12.96 72.9171 12.88V4.72C72.9171 4.64 72.9571 4.6 73.0371 4.6H73.6491C73.7291 4.6 73.7691 4.64 73.7691 4.72V12.88C73.7691 12.96 73.7291 13 73.6491 13H73.0371ZM78.5785 7.516C78.5785 7.596 78.5385 7.636 78.4585 7.636H77.1025C77.0705 7.636 77.0545 7.652 77.0545 7.684V11.224C77.0545 11.608 77.1385 11.88 77.3065 12.04C77.4825 12.192 77.7545 12.268 78.1225 12.268H78.4225C78.5025 12.268 78.5425 12.308 78.5425 12.388V12.88C78.5425 12.96 78.5025 13 78.4225 13C78.3265 13.008 78.1785 13.012 77.9785 13.012C77.4025 13.012 76.9665 12.904 76.6705 12.688C76.3745 12.472 76.2265 12.072 76.2265 11.488V7.684C76.2265 7.652 76.2105 7.636 76.1785 7.636H75.4465C75.3665 7.636 75.3265 7.596 75.3265 7.516V7.048C75.3265 6.968 75.3665 6.928 75.4465 6.928H76.1785C76.2105 6.928 76.2265 6.912 76.2265 6.88V5.488C76.2265 5.408 76.2665 5.368 76.3465 5.368H76.9345C77.0145 5.368 77.0545 5.408 77.0545 5.488V6.88C77.0545 6.912 77.0705 6.928 77.1025 6.928H78.4585C78.5385 6.928 78.5785 6.968 78.5785 7.048V7.516ZM84.7058 8.944C84.7378 9.168 84.7538 9.448 84.7538 9.784V10.168C84.7538 10.248 84.7138 10.288 84.6338 10.288H80.7578C80.7258 10.288 80.7098 10.304 80.7098 10.336C80.7258 10.776 80.7498 11.06 80.7818 11.188C80.8698 11.548 81.0578 11.832 81.3458 12.04C81.6338 12.248 82.0018 12.352 82.4498 12.352C82.7858 12.352 83.0818 12.276 83.3378 12.124C83.5938 11.972 83.7938 11.756 83.9378 11.476C83.9858 11.404 84.0418 11.388 84.1058 11.428L84.5738 11.704C84.6378 11.744 84.6538 11.8 84.6218 11.872C84.4218 12.256 84.1218 12.56 83.7218 12.784C83.3218 13 82.8618 13.108 82.3418 13.108C81.7738 13.1 81.2978 12.964 80.9138 12.7C80.5298 12.436 80.2538 12.068 80.0858 11.596C79.9418 11.212 79.8698 10.66 79.8698 9.94C79.8698 9.604 79.8738 9.332 79.8818 9.124C79.8978 8.908 79.9298 8.716 79.9778 8.548C80.1138 8.028 80.3858 7.612 80.7938 7.3C81.2098 6.988 81.7098 6.832 82.2938 6.832C83.0218 6.832 83.5818 7.016 83.9738 7.384C84.3658 7.752 84.6098 8.272 84.7058 8.944ZM82.2938 7.576C81.9018 7.576 81.5738 7.68 81.3098 7.888C81.0538 8.088 80.8858 8.36 80.8058 8.704C80.7578 8.872 80.7258 9.144 80.7098 9.52C80.7098 9.552 80.7258 9.568 80.7578 9.568H83.8658C83.8978 9.568 83.9138 9.552 83.9138 9.52C83.8978 9.16 83.8738 8.904 83.8418 8.752C83.7538 8.392 83.5738 8.108 83.3018 7.9C83.0378 7.684 82.7018 7.576 82.2938 7.576ZM92.5923 6.844C93.1923 6.844 93.6643 7.024 94.0083 7.384C94.3603 7.744 94.5363 8.236 94.5363 8.86V12.88C94.5363 12.96 94.4963 13 94.4163 13H93.8163C93.7363 13 93.6963 12.96 93.6963 12.88V9.028C93.6963 8.588 93.5683 8.24 93.3123 7.984C93.0643 7.72 92.7363 7.588 92.3283 7.588C91.9043 7.588 91.5603 7.716 91.2963 7.972C91.0403 8.228 90.9123 8.572 90.9123 9.004V12.88C90.9123 12.96 90.8723 13 90.7923 13H90.1803C90.1003 13 90.0603 12.96 90.0603 12.88V9.028C90.0603 8.588 89.9363 8.24 89.6883 7.984C89.4403 7.72 89.1083 7.588 88.6923 7.588C88.2683 7.588 87.9283 7.716 87.6723 7.972C87.4243 8.228 87.3003 8.572 87.3003 9.004V12.88C87.3003 12.96 87.2603 13 87.1803 13H86.5683C86.4883 13 86.4483 12.96 86.4483 12.88V7.048C86.4483 6.968 86.4883 6.928 86.5683 6.928H87.1803C87.2603 6.928 87.3003 6.968 87.3003 7.048V7.528C87.3003 7.544 87.3043 7.556 87.3123 7.564C87.3283 7.564 87.3443 7.556 87.3603 7.54C87.5363 7.308 87.7603 7.136 88.0323 7.024C88.3123 6.904 88.6203 6.844 88.9563 6.844C89.3723 6.844 89.7283 6.928 90.0243 7.096C90.3203 7.264 90.5443 7.508 90.6963 7.828C90.7123 7.868 90.7323 7.868 90.7563 7.828C90.9323 7.5 91.1803 7.256 91.5003 7.096C91.8203 6.928 92.1843 6.844 92.5923 6.844ZM98.3661 13.06C97.9181 13.06 97.5181 12.988 97.1661 12.844C96.8221 12.7 96.5541 12.508 96.3621 12.268C96.1781 12.028 96.0861 11.76 96.0861 11.464V11.32C96.0861 11.24 96.1261 11.2 96.2061 11.2H96.7821C96.8621 11.2 96.9021 11.24 96.9021 11.32V11.416C96.9021 11.68 97.0381 11.912 97.3101 12.112C97.5901 12.304 97.9381 12.4 98.3541 12.4C98.7701 12.4 99.1061 12.308 99.3621 12.124C99.6181 11.932 99.7461 11.692 99.7461 11.404C99.7461 11.204 99.6781 11.04 99.5421 10.912C99.4141 10.784 99.2581 10.684 99.0741 10.612C98.8981 10.54 98.6221 10.448 98.2461 10.336C97.7981 10.208 97.4301 10.08 97.1421 9.952C96.8541 9.824 96.6101 9.648 96.4101 9.424C96.2181 9.192 96.1221 8.9 96.1221 8.548C96.1221 8.036 96.3221 7.628 96.7221 7.324C97.1221 7.02 97.6501 6.868 98.3061 6.868C98.7461 6.868 99.1341 6.94 99.4701 7.084C99.8141 7.228 100.078 7.428 100.262 7.684C100.446 7.932 100.538 8.212 100.538 8.524V8.56C100.538 8.64 100.498 8.68 100.418 8.68H99.8541C99.7741 8.68 99.7341 8.64 99.7341 8.56V8.524C99.7341 8.252 99.6021 8.024 99.3381 7.84C99.0821 7.656 98.7341 7.564 98.2941 7.564C97.8861 7.564 97.5581 7.648 97.3101 7.816C97.0621 7.976 96.9381 8.2 96.9381 8.488C96.9381 8.76 97.0581 8.968 97.2981 9.112C97.5381 9.256 97.9101 9.4 98.4141 9.544C98.8781 9.68 99.2541 9.808 99.5421 9.928C99.8301 10.048 100.078 10.224 100.286 10.456C100.494 10.68 100.598 10.976 100.598 11.344C100.598 11.864 100.394 12.28 99.9861 12.592C99.5781 12.904 99.0381 13.06 98.3661 13.06Z" fill="#FCFDFF"/>
<path id="AED 18" d="M8.096 33C7.98933 33 7.92 32.9467 7.888 32.84L7.408 31.272C7.38667 31.2293 7.36 31.208 7.328 31.208H3.392C3.36 31.208 3.33333 31.2293 3.312 31.272L2.848 32.84C2.816 32.9467 2.74667 33 2.64 33H0.608C0.544 33 0.496 32.984 0.464 32.952C0.432 32.9093 0.426667 32.8507 0.448 32.776L3.904 21.96C3.936 21.8533 4.00533 21.8 4.112 21.8H6.624C6.73067 21.8 6.8 21.8533 6.832 21.96L10.288 32.776C10.2987 32.7973 10.304 32.824 10.304 32.856C10.304 32.952 10.2453 33 10.128 33H8.096ZM3.888 29.368C3.87733 29.432 3.89867 29.464 3.952 29.464H6.768C6.832 29.464 6.85333 29.432 6.832 29.368L5.392 24.616C5.38133 24.5733 5.36533 24.5573 5.344 24.568C5.32267 24.568 5.30667 24.584 5.296 24.616L3.888 29.368ZM19.4864 23.544C19.4864 23.5973 19.465 23.6453 19.4224 23.688C19.3904 23.72 19.3477 23.736 19.2944 23.736H14.0464C13.993 23.736 13.9664 23.7627 13.9664 23.816V26.296C13.9664 26.3493 13.993 26.376 14.0464 26.376H17.4864C17.5397 26.376 17.5824 26.3973 17.6144 26.44C17.657 26.472 17.6784 26.5147 17.6784 26.568V28.12C17.6784 28.1733 17.657 28.2213 17.6144 28.264C17.5824 28.296 17.5397 28.312 17.4864 28.312H14.0464C13.993 28.312 13.9664 28.3387 13.9664 28.392V30.984C13.9664 31.0373 13.993 31.064 14.0464 31.064H19.2944C19.3477 31.064 19.3904 31.0853 19.4224 31.128C19.465 31.16 19.4864 31.2027 19.4864 31.256V32.808C19.4864 32.8613 19.465 32.9093 19.4224 32.952C19.3904 32.984 19.3477 33 19.2944 33H11.9024C11.849 33 11.801 32.984 11.7584 32.952C11.7264 32.9093 11.7104 32.8613 11.7104 32.808V21.992C11.7104 21.9387 11.7264 21.896 11.7584 21.864C11.801 21.8213 11.849 21.8 11.9024 21.8H19.2944C19.3477 21.8 19.3904 21.8213 19.4224 21.864C19.465 21.896 19.4864 21.9387 19.4864 21.992V23.544ZM21.2461 33C21.1928 33 21.1448 32.984 21.1021 32.952C21.0701 32.9093 21.0541 32.8613 21.0541 32.808V21.992C21.0541 21.9387 21.0701 21.896 21.1021 21.864C21.1448 21.8213 21.1928 21.8 21.2461 21.8H25.2461C26.0461 21.8 26.7448 21.944 27.3421 22.232C27.9501 22.5093 28.4195 22.904 28.7501 23.416C29.0808 23.928 29.2461 24.52 29.2461 25.192V29.608C29.2461 30.28 29.0808 30.872 28.7501 31.384C28.4195 31.896 27.9501 32.296 27.3421 32.584C26.7448 32.8613 26.0461 33 25.2461 33H21.2461ZM23.3101 30.984C23.3101 31.0373 23.3368 31.064 23.3901 31.064H25.3261C25.8168 31.064 26.2115 30.8987 26.5101 30.568C26.8195 30.2373 26.9795 29.7947 26.9901 29.24V25.56C26.9901 25.0053 26.8355 24.5627 26.5261 24.232C26.2275 23.9013 25.8221 23.736 25.3101 23.736H23.3901C23.3368 23.736 23.3101 23.7627 23.3101 23.816V30.984ZM35.5719 21.848C35.6252 21.816 35.7052 21.8 35.8119 21.8H37.7479C37.8012 21.8 37.8439 21.8213 37.8759 21.864C37.9185 21.896 37.9399 21.9387 37.9399 21.992V32.808C37.9399 32.8613 37.9185 32.9093 37.8759 32.952C37.8439 32.984 37.8012 33 37.7479 33H35.8759C35.8225 33 35.7745 32.984 35.7319 32.952C35.6999 32.9093 35.6839 32.8613 35.6839 32.808V24.04C35.6839 24.0187 35.6732 23.9973 35.6519 23.976C35.6305 23.9547 35.6092 23.9493 35.5879 23.96L34.0039 24.392L33.9399 24.408C33.8439 24.408 33.7959 24.3493 33.7959 24.232L33.7479 22.856C33.7479 22.7493 33.7959 22.6747 33.8919 22.632L35.5719 21.848ZM46.5081 28.072C46.7535 28.5627 46.8761 29.112 46.8761 29.72C46.8761 30.36 46.7428 30.9093 46.4761 31.368C46.1988 31.912 45.7721 32.344 45.1961 32.664C44.6308 32.9733 43.9535 33.128 43.1641 33.128C42.4175 33.128 41.7455 32.9787 41.1481 32.68C40.5508 32.3707 40.1028 31.928 39.8041 31.352C39.5481 30.8507 39.4201 30.3013 39.4201 29.704C39.4201 29.1173 39.5428 28.568 39.7881 28.056C39.9695 27.6827 40.2361 27.3787 40.5881 27.144C40.6308 27.112 40.6308 27.0747 40.5881 27.032C40.3321 26.84 40.1135 26.584 39.9321 26.264C39.6868 25.8373 39.5641 25.3573 39.5641 24.824C39.5641 24.0667 39.7775 23.4267 40.2041 22.904C40.5135 22.488 40.9241 22.168 41.4361 21.944C41.9588 21.7093 42.5348 21.592 43.1641 21.592C43.8148 21.592 44.3908 21.7093 44.8921 21.944C45.3935 22.1787 45.7988 22.4987 46.1081 22.904C46.5348 23.4587 46.7481 24.0987 46.7481 24.824C46.7481 25.3787 46.6095 25.8747 46.3321 26.312C46.1508 26.5893 45.9321 26.824 45.6761 27.016C45.6335 27.0587 45.6335 27.096 45.6761 27.128C46.0281 27.352 46.3055 27.6667 46.5081 28.072ZM41.9641 24.232C41.8575 24.4453 41.8041 24.6693 41.8041 24.904C41.8041 25.2133 41.8735 25.4907 42.0121 25.736C42.2575 26.12 42.6361 26.312 43.1481 26.312C43.6601 26.312 44.0495 26.12 44.3161 25.736C44.4548 25.5013 44.5241 25.2187 44.5241 24.888C44.5241 24.6533 44.4708 24.4293 44.3641 24.216C44.2575 24.0027 44.0975 23.8373 43.8841 23.72C43.6708 23.592 43.4201 23.528 43.1321 23.528C42.8761 23.528 42.6415 23.592 42.4281 23.72C42.2255 23.8373 42.0708 24.008 41.9641 24.232ZM44.3001 30.632C44.5028 30.344 44.6041 29.9707 44.6041 29.512C44.6041 29.1173 44.5295 28.7867 44.3801 28.52C44.1455 28.072 43.7348 27.848 43.1481 27.848C42.5935 27.848 42.1988 28.0667 41.9641 28.504C41.8041 28.7707 41.7241 29.1173 41.7241 29.544C41.7241 29.96 41.8148 30.3067 41.9961 30.584C42.2415 30.9893 42.6308 31.192 43.1641 31.192C43.6761 31.192 44.0548 31.0053 44.3001 30.632Z" fill="#FCFDFF"/>
</g>
</svg>
