<svg width="84" height="84" viewBox="0 0 84 84" fill="none" xmlns="http://www.w3.org/2000/svg">
<rect x="0.954545" y="0.954545" width="82.0909" height="82.0909" rx="41.0455" fill="#EAF4FA"/>
<path d="M28.0064 50.4521C27.8906 49.948 27.8197 49.418 27.7737 48.8547C27.7266 48.2775 27.7036 47.6308 27.6924 46.9053L31.4201 44.6003L31.5452 44.5228C32.0697 44.1971 32.5973 43.8695 33.1916 43.7166C33.7104 43.5832 34.2508 43.5559 34.7803 43.6364C35.387 43.7287 35.9449 44.0015 36.4995 44.2727L36.6318 44.3373L37.4724 44.7463C38.3146 45.1562 38.415 45.1835 38.4821 45.1923C38.5954 45.2072 38.7105 45.1976 38.8197 45.164C38.8844 45.1441 38.9789 45.1005 39.7412 44.5563L43.7275 41.7101L43.8756 41.604C44.4869 41.1654 45.1004 40.7254 45.8083 40.5365C46.4249 40.3719 47.072 40.3582 47.695 40.4963C48.4103 40.655 49.0419 41.0686 49.6713 41.4808L49.8238 41.5805L56.3168 45.8118C56.3127 46.9977 56.2958 48.002 56.2261 48.8547C56.208 49.077 56.1859 49.2942 56.1588 49.5066L48.0866 44.2463C47.1915 43.663 47.0791 43.6189 47.006 43.6027C46.8814 43.575 46.752 43.5778 46.6287 43.6107C46.5563 43.63 46.4459 43.6788 45.5764 44.2996L41.5901 47.1458L41.4609 47.2383C40.922 47.6247 40.3804 48.0131 39.7544 48.2055C39.2085 48.3733 38.6327 48.4215 38.0664 48.3469C37.4172 48.2613 36.8185 47.9684 36.2228 47.6771L36.08 47.6073L35.2395 47.1983C34.4574 46.8177 34.3651 46.7917 34.302 46.7821C34.1961 46.766 34.088 46.7714 33.9843 46.7981C33.9225 46.814 33.8333 46.8492 33.0935 47.3066L28.0064 50.4521Z" fill="#667B87"/>
<path d="M40.409 37.2274C40.409 38.9846 38.9845 40.4092 37.2272 40.4092C35.4699 40.4092 34.0454 38.9846 34.0454 37.2274C34.0454 35.4701 35.4699 34.0455 37.2272 34.0455C38.9845 34.0455 40.409 35.4701 40.409 37.2274Z" fill="#667B87"/>
<path fill-rule="evenodd" clip-rule="evenodd" d="M39.3863 27.6818H44.6134C46.3376 27.6817 47.7283 27.6817 48.8545 27.7737C50.014 27.8685 51.0325 28.0686 51.9747 28.5488C53.4715 29.3114 54.6884 30.5283 55.451 32.025C55.9311 32.9673 56.1313 33.9858 56.226 35.1453C56.318 36.2715 56.318 37.6622 56.318 39.3863V44.6135C56.318 46.3377 56.318 47.7284 56.226 48.8546C56.1313 50.0141 55.9311 51.0326 55.451 51.9749C54.6884 53.4716 53.4715 54.6885 51.9747 55.4511C51.0325 55.9313 50.014 56.1314 48.8545 56.2261C47.7283 56.3182 46.3376 56.3181 44.6134 56.3181H39.3862C37.662 56.3181 36.2714 56.3182 35.1452 56.2261C33.9857 56.1314 32.9672 55.9313 32.0249 55.4511C30.5282 54.6885 29.3113 53.4716 28.5486 51.9749C28.0685 51.0326 27.8684 50.0141 27.7736 48.8546C27.6816 47.7284 27.6816 46.3377 27.6816 44.6135V39.3864C27.6816 37.6622 27.6816 36.2715 27.7736 35.1453C27.8684 33.9858 28.0685 32.9673 28.5486 32.025C29.3113 30.5283 30.5282 29.3114 32.0249 28.5488C32.9672 28.0686 33.9857 27.8685 35.1452 27.7737C36.2714 27.6817 37.6621 27.6817 39.3863 27.6818ZM35.4043 30.945C34.4415 31.0237 33.8884 31.1703 33.4694 31.3838C32.5714 31.8414 31.8412 32.5715 31.3837 33.4695C31.1702 33.8885 31.0235 34.4417 30.9449 35.4044C30.8647 36.3858 30.8635 37.6463 30.8635 39.4545V44.5454C30.8635 46.3536 30.8647 47.6141 30.9449 48.5955C31.0235 49.5582 31.1702 50.1114 31.3837 50.5304C31.8412 51.4284 32.5714 52.1585 33.4694 52.6161C33.8884 52.8296 34.4415 52.9762 35.4043 53.0549C36.3856 53.1351 37.6461 53.1363 39.4544 53.1363H44.5453C46.3535 53.1363 47.614 53.1351 48.5954 53.0549C49.5581 52.9762 50.1113 52.8296 50.5302 52.6161C51.4283 52.1585 52.1584 51.4284 52.616 50.5304C52.8295 50.1114 52.9761 49.5582 53.0548 48.5955C53.135 47.6141 53.1362 46.3536 53.1362 44.5454V39.4545C53.1362 37.6463 53.135 36.3858 53.0548 35.4044C52.9761 34.4417 52.8295 33.8885 52.616 33.4695C52.1584 32.5715 51.4283 31.8414 50.5302 31.3838C50.1113 31.1703 49.5581 31.0237 48.5954 30.945C47.614 30.8648 46.3535 30.8636 44.5453 30.8636H39.4544C37.6461 30.8636 36.3856 30.8648 35.4043 30.945Z" fill="#667B87"/>
<rect x="0.954545" y="0.954545" width="82.0909" height="82.0909" rx="41.0455" stroke="#C4D5DF" stroke-width="1.90909"/>
</svg>
