<svg width="133" height="36" viewBox="0 0 133 36" fill="none" xmlns="http://www.w3.org/2000/svg">
<g id="Information">
<g id="Icon">
<rect x="0.5" y="0.5" width="35" height="35" rx="17.5" fill="#EAF4FA"/>
<g id="Timelapse 25%">
<path id="Shape" fill-rule="evenodd" clip-rule="evenodd" d="M17.9998 11.3333C14.3179 11.3333 11.3332 14.3181 11.3332 18C11.3332 21.6819 14.3179 24.6667 17.9998 24.6667C21.6817 24.6667 24.6665 21.6819 24.6665 18C24.6665 14.3181 21.6817 11.3333 17.9998 11.3333ZM9.6665 18C9.6665 13.3976 13.3975 9.66666 17.9998 9.66666C22.6022 9.66666 26.3332 13.3976 26.3332 18C26.3332 22.6024 22.6022 26.3333 17.9998 26.3333C13.3975 26.3333 9.6665 22.6024 9.6665 18Z" fill="#667B87"/>
<path id="Shape_2" d="M22.9994 17.5835C22.7977 15.1528 20.8473 13.2023 18.4165 13.0006C18.1872 12.9816 18 13.1699 18 13.4V17.5833C18 17.8135 18.1865 18 18.4167 18H22.6C22.8301 18 23.0185 17.8128 22.9994 17.5835Z" fill="#667B87"/>
</g>
<rect x="0.5" y="0.5" width="35" height="35" rx="17.5" stroke="#C4D5DF"/>
</g>
<g id="Data">
<path id="20 Mins" d="M46.506 14.768C46.4967 14.7867 46.4967 14.8053 46.506 14.824C46.5153 14.8333 46.5293 14.838 46.548 14.838H50.762C50.8553 14.838 50.902 14.8847 50.902 14.978V15.86C50.902 15.9533 50.8553 16 50.762 16H44.896C44.8027 16 44.756 15.9533 44.756 15.86V15.006C44.756 14.9407 44.7793 14.8847 44.826 14.838C45.1433 14.474 45.8713 13.62 47.01 12.276L47.976 11.114C48.844 10.078 49.278 9.27533 49.278 8.706C49.278 8.26733 49.1287 7.91733 48.83 7.656C48.5407 7.38533 48.1533 7.25 47.668 7.25C47.1827 7.25 46.7953 7.38533 46.506 7.656C46.2167 7.92667 46.0767 8.28133 46.086 8.72V9.14C46.086 9.23333 46.0393 9.28 45.946 9.28H44.868C44.7747 9.28 44.728 9.23333 44.728 9.14V8.538C44.7467 8.05267 44.882 7.62333 45.134 7.25C45.3953 6.87667 45.7453 6.592 46.184 6.396C46.6227 6.19067 47.1173 6.088 47.668 6.088C48.2653 6.088 48.788 6.2 49.236 6.424C49.684 6.648 50.0293 6.956 50.272 7.348C50.5147 7.74 50.636 8.18333 50.636 8.678C50.636 9.45267 50.216 10.3673 49.376 11.422C49.0027 11.898 48.5593 12.4347 48.046 13.032C47.5327 13.62 47.0193 14.1987 46.506 14.768ZM55.5632 16.14C54.6206 16.14 53.8692 15.874 53.3092 15.342C52.7586 14.8007 52.4832 14.0773 52.4832 13.172V9.028C52.4832 8.12267 52.7586 7.404 53.3092 6.872C53.8692 6.34 54.6206 6.074 55.5632 6.074C56.5059 6.074 57.2572 6.34 57.8172 6.872C58.3866 7.404 58.6712 8.12267 58.6712 9.028V13.172C58.6712 14.0773 58.3866 14.8007 57.8172 15.342C57.2572 15.874 56.5059 16.14 55.5632 16.14ZM55.5632 14.978C56.1046 14.978 56.5339 14.824 56.8512 14.516C57.1686 14.1987 57.3272 13.7787 57.3272 13.256V8.972C57.3272 8.44933 57.1686 8.034 56.8512 7.726C56.5339 7.40867 56.1046 7.25 55.5632 7.25C55.0406 7.25 54.6206 7.40867 54.3032 7.726C53.9859 8.034 53.8272 8.44933 53.8272 8.972V13.256C53.8272 13.7787 53.9859 14.1987 54.3032 14.516C54.6206 14.824 55.0406 14.978 55.5632 14.978ZM69.8377 6.284C69.8843 6.228 69.9403 6.2 70.0057 6.2H71.0697C71.163 6.2 71.2097 6.24667 71.2097 6.34V15.86C71.2097 15.9533 71.163 16 71.0697 16H70.0057C69.9123 16 69.8657 15.9533 69.8657 15.86V8.692C69.8657 8.664 69.8563 8.64533 69.8377 8.636C69.819 8.62667 69.805 8.636 69.7957 8.664L67.7937 11.716C67.7563 11.772 67.7003 11.8 67.6257 11.8H67.0937C67.0283 11.8 66.9723 11.772 66.9257 11.716L64.9097 8.692C64.9003 8.664 64.8863 8.65467 64.8677 8.664C64.849 8.67333 64.8397 8.692 64.8397 8.72V15.86C64.8397 15.9533 64.793 16 64.6997 16H63.6357C63.5423 16 63.4957 15.9533 63.4957 15.86V6.34C63.4957 6.24667 63.5423 6.2 63.6357 6.2H64.6997C64.7743 6.2 64.8303 6.228 64.8677 6.284L67.3177 9.952C67.327 9.96133 67.341 9.966 67.3597 9.966C67.3783 9.966 67.3923 9.96133 67.4017 9.952L69.8377 6.284ZM74.1475 7.754C73.8861 7.754 73.6715 7.67 73.5035 7.502C73.3355 7.334 73.2515 7.11933 73.2515 6.858C73.2515 6.59667 73.3355 6.382 73.5035 6.214C73.6715 6.046 73.8861 5.962 74.1475 5.962C74.4088 5.962 74.6235 6.046 74.7915 6.214C74.9595 6.382 75.0435 6.59667 75.0435 6.858C75.0435 7.11933 74.9595 7.334 74.7915 7.502C74.6235 7.67 74.4088 7.754 74.1475 7.754ZM73.5875 15.986C73.4941 15.986 73.4475 15.9393 73.4475 15.846V9.014C73.4475 8.92067 73.4941 8.874 73.5875 8.874H74.6515C74.7448 8.874 74.7915 8.92067 74.7915 9.014V15.846C74.7915 15.9393 74.7448 15.986 74.6515 15.986H73.5875ZM80.0818 8.776C80.8472 8.776 81.4538 9 81.9018 9.448C82.3498 9.88667 82.5738 10.484 82.5738 11.24V15.86C82.5738 15.9533 82.5272 16 82.4338 16H81.3698C81.2765 16 81.2298 15.9533 81.2298 15.86V11.506C81.2298 11.0393 81.0945 10.6613 80.8238 10.372C80.5532 10.0827 80.1938 9.938 79.7458 9.938C79.3072 9.938 78.9478 10.0827 78.6678 10.372C78.3878 10.6613 78.2478 11.0347 78.2478 11.492V15.86C78.2478 15.9533 78.2012 16 78.1078 16H77.0438C76.9505 16 76.9038 15.9533 76.9038 15.86V9.014C76.9038 8.92067 76.9505 8.874 77.0438 8.874H78.1078C78.2012 8.874 78.2478 8.92067 78.2478 9.014V9.518C78.2478 9.53667 78.2525 9.55067 78.2618 9.56C78.2805 9.56933 78.2945 9.56467 78.3038 9.546C78.7052 9.03267 79.2978 8.776 80.0818 8.776ZM86.9977 16.084C86.4377 16.084 85.9431 16 85.5137 15.832C85.0937 15.664 84.7671 15.4353 84.5337 15.146C84.3004 14.8473 84.1837 14.5207 84.1837 14.166V14.012C84.1837 13.9187 84.2304 13.872 84.3237 13.872H85.3317C85.4251 13.872 85.4717 13.9187 85.4717 14.012V14.082C85.4717 14.3433 85.6117 14.572 85.8917 14.768C86.1811 14.964 86.5451 15.062 86.9837 15.062C87.4037 15.062 87.7444 14.9733 88.0057 14.796C88.2671 14.6093 88.3977 14.376 88.3977 14.096C88.3977 13.8253 88.2764 13.6247 88.0337 13.494C87.7911 13.354 87.3991 13.2093 86.8577 13.06C86.3257 12.9107 85.8777 12.7613 85.5137 12.612C85.1591 12.4533 84.8557 12.234 84.6037 11.954C84.3611 11.6647 84.2397 11.296 84.2397 10.848C84.2397 10.2227 84.4824 9.728 84.9677 9.364C85.4624 8.99067 86.1157 8.804 86.9277 8.804C87.4691 8.804 87.9451 8.89267 88.3557 9.07C88.7757 9.238 89.0977 9.476 89.3217 9.784C89.5457 10.092 89.6577 10.4373 89.6577 10.82V10.862C89.6577 10.9553 89.6111 11.002 89.5177 11.002H88.5377C88.4444 11.002 88.3977 10.9553 88.3977 10.862V10.82C88.3977 10.5493 88.2624 10.3253 87.9917 10.148C87.7304 9.96133 87.3711 9.868 86.9137 9.868C86.5031 9.868 86.1671 9.94733 85.9057 10.106C85.6537 10.2647 85.5277 10.4793 85.5277 10.75C85.5277 11.0207 85.6491 11.226 85.8917 11.366C86.1437 11.506 86.5451 11.6553 87.0957 11.814C87.6371 11.9633 88.0851 12.1127 88.4397 12.262C88.8037 12.402 89.1117 12.6167 89.3637 12.906C89.6157 13.186 89.7417 13.5547 89.7417 14.012C89.7417 14.6467 89.4897 15.1507 88.9857 15.524C88.4911 15.8973 87.8284 16.084 86.9977 16.084Z" fill="#667B87"/>
<path id="Delivery Time" d="M45.104 33C45.024 33 44.984 32.96 44.984 32.88V24.72C44.984 24.64 45.024 24.6 45.104 24.6H48.008C48.84 24.6 49.504 24.82 50 25.26C50.496 25.692 50.744 26.272 50.744 27V30.6C50.744 31.328 50.496 31.912 50 32.352C49.504 32.784 48.84 33 48.008 33H45.104ZM46.136 31.956C46.136 31.988 46.152 32.004 46.184 32.004H48.056C48.52 32.004 48.888 31.864 49.16 31.584C49.44 31.296 49.584 30.912 49.592 30.432V27.168C49.592 26.688 49.452 26.308 49.172 26.028C48.9 25.74 48.528 25.596 48.056 25.596H46.184C46.152 25.596 46.136 25.612 46.136 25.644V31.956ZM57.202 29.184C57.234 29.512 57.246 29.88 57.238 30.288C57.238 30.368 57.198 30.408 57.118 30.408H53.29C53.258 30.408 53.242 30.424 53.242 30.456C53.242 30.728 53.266 30.936 53.314 31.08C53.402 31.4 53.578 31.652 53.842 31.836C54.114 32.012 54.454 32.1 54.862 32.1C55.454 32.1 55.91 31.856 56.23 31.368C56.27 31.288 56.322 31.276 56.386 31.332L57.07 31.788C57.126 31.836 57.138 31.888 57.106 31.944C56.882 32.304 56.562 32.588 56.146 32.796C55.738 33.004 55.274 33.108 54.754 33.108C54.17 33.108 53.678 32.98 53.278 32.724C52.878 32.468 52.578 32.104 52.378 31.632C52.186 31.16 52.09 30.588 52.09 29.916C52.09 29.332 52.134 28.888 52.222 28.584C52.366 28.032 52.654 27.596 53.086 27.276C53.518 26.956 54.042 26.796 54.658 26.796C55.466 26.796 56.07 27 56.47 27.408C56.87 27.808 57.114 28.4 57.202 29.184ZM54.658 27.792C54.314 27.792 54.03 27.88 53.806 28.056C53.582 28.224 53.43 28.452 53.35 28.74C53.294 28.916 53.258 29.14 53.242 29.412C53.242 29.444 53.258 29.46 53.29 29.46H56.038C56.07 29.46 56.086 29.444 56.086 29.412C56.07 29.148 56.046 28.952 56.014 28.824C55.934 28.512 55.774 28.264 55.534 28.08C55.302 27.888 55.01 27.792 54.658 27.792ZM58.8116 33C58.7316 33 58.6916 32.96 58.6916 32.88V24.72C58.6916 24.64 58.7316 24.6 58.8116 24.6H59.7236C59.8036 24.6 59.8436 24.64 59.8436 24.72V32.88C59.8436 32.96 59.8036 33 59.7236 33H58.8116ZM62.2118 25.932C61.9878 25.932 61.8038 25.86 61.6598 25.716C61.5158 25.572 61.4438 25.388 61.4438 25.164C61.4438 24.94 61.5158 24.756 61.6598 24.612C61.8038 24.468 61.9878 24.396 62.2118 24.396C62.4358 24.396 62.6198 24.468 62.7638 24.612C62.9078 24.756 62.9798 24.94 62.9798 25.164C62.9798 25.388 62.9078 25.572 62.7638 25.716C62.6198 25.86 62.4358 25.932 62.2118 25.932ZM61.7318 32.988C61.6518 32.988 61.6118 32.948 61.6118 32.868V27.012C61.6118 26.932 61.6518 26.892 61.7318 26.892H62.6438C62.7238 26.892 62.7638 26.932 62.7638 27.012V32.868C62.7638 32.948 62.7238 32.988 62.6438 32.988H61.7318ZM66.1824 33C66.1104 33 66.0624 32.968 66.0384 32.904L64.0824 27.024L64.0704 26.976C64.0704 26.92 64.1064 26.892 64.1784 26.892H65.1864C65.2584 26.892 65.3064 26.924 65.3304 26.988L66.6504 31.332C66.6584 31.348 66.6704 31.356 66.6864 31.356C66.7024 31.356 66.7144 31.348 66.7224 31.332L68.0304 26.988C68.0544 26.924 68.1024 26.892 68.1744 26.892L69.1824 26.904C69.2704 26.904 69.3024 26.948 69.2784 27.036L67.3344 32.904C67.3104 32.968 67.2624 33 67.1904 33H66.1824ZM75.1434 29.184C75.1754 29.512 75.1874 29.88 75.1794 30.288C75.1794 30.368 75.1394 30.408 75.0594 30.408H71.2314C71.1994 30.408 71.1834 30.424 71.1834 30.456C71.1834 30.728 71.2074 30.936 71.2554 31.08C71.3434 31.4 71.5194 31.652 71.7834 31.836C72.0554 32.012 72.3954 32.1 72.8034 32.1C73.3954 32.1 73.8514 31.856 74.1714 31.368C74.2114 31.288 74.2634 31.276 74.3274 31.332L75.0114 31.788C75.0674 31.836 75.0794 31.888 75.0474 31.944C74.8234 32.304 74.5034 32.588 74.0874 32.796C73.6794 33.004 73.2154 33.108 72.6954 33.108C72.1114 33.108 71.6194 32.98 71.2194 32.724C70.8194 32.468 70.5194 32.104 70.3194 31.632C70.1274 31.16 70.0314 30.588 70.0314 29.916C70.0314 29.332 70.0754 28.888 70.1634 28.584C70.3074 28.032 70.5954 27.596 71.0274 27.276C71.4594 26.956 71.9834 26.796 72.5994 26.796C73.4074 26.796 74.0114 27 74.4114 27.408C74.8114 27.808 75.0554 28.4 75.1434 29.184ZM72.5994 27.792C72.2554 27.792 71.9714 27.88 71.7474 28.056C71.5234 28.224 71.3714 28.452 71.2914 28.74C71.2354 28.916 71.1994 29.14 71.1834 29.412C71.1834 29.444 71.1994 29.46 71.2314 29.46H73.9794C74.0114 29.46 74.0274 29.444 74.0274 29.412C74.0114 29.148 73.9874 28.952 73.9554 28.824C73.8754 28.512 73.7154 28.264 73.4754 28.08C73.2434 27.888 72.9514 27.792 72.5994 27.792ZM79.309 26.832C79.565 26.832 79.797 26.884 80.005 26.988C80.061 27.012 80.081 27.06 80.065 27.132L79.873 28.032C79.865 28.104 79.817 28.128 79.729 28.104C79.593 28.048 79.433 28.02 79.249 28.02L79.081 28.032C78.705 28.048 78.393 28.18 78.145 28.428C77.905 28.668 77.785 28.984 77.785 29.376V32.88C77.785 32.96 77.745 33 77.665 33H76.753C76.673 33 76.633 32.96 76.633 32.88V27.012C76.633 26.932 76.673 26.892 76.753 26.892H77.665C77.745 26.892 77.785 26.932 77.785 27.012V27.648C77.785 27.672 77.789 27.688 77.797 27.696C77.813 27.696 77.825 27.688 77.833 27.672C78.193 27.112 78.685 26.832 79.309 26.832ZM81.1756 35.388C81.1196 35.388 81.0916 35.348 81.0916 35.268V34.56C81.0916 34.48 81.1316 34.44 81.2116 34.44H81.2356C81.5556 34.432 81.8076 34.392 81.9916 34.32C82.1756 34.248 82.3276 34.112 82.4476 33.912C82.5676 33.72 82.6836 33.428 82.7956 33.036C82.8036 33.028 82.8036 33.016 82.7956 33C82.7956 32.976 82.7956 32.964 82.7956 32.964L80.7916 27.024L80.7796 26.976C80.7796 26.92 80.8156 26.892 80.8876 26.892H81.8596C81.9316 26.892 81.9796 26.924 82.0036 26.988L83.3596 31.512C83.3676 31.528 83.3796 31.536 83.3956 31.536C83.4116 31.536 83.4236 31.528 83.4316 31.512L84.7756 26.988C84.7996 26.924 84.8476 26.892 84.9196 26.892H85.8676C85.9556 26.892 85.9876 26.936 85.9636 27.024L83.7796 33.42C83.5956 33.972 83.4116 34.38 83.2276 34.644C83.0436 34.916 82.8036 35.108 82.5076 35.22C82.2116 35.332 81.7956 35.388 81.2596 35.388H81.1756ZM94.949 24.6C95.029 24.6 95.069 24.64 95.069 24.72V25.488C95.069 25.568 95.029 25.608 94.949 25.608H92.645C92.613 25.608 92.597 25.624 92.597 25.656V32.88C92.597 32.96 92.557 33 92.477 33H91.565C91.485 33 91.445 32.96 91.445 32.88V25.656C91.445 25.624 91.429 25.608 91.397 25.608H89.201C89.121 25.608 89.081 25.568 89.081 25.488V24.72C89.081 24.64 89.121 24.6 89.201 24.6H94.949ZM96.9227 25.932C96.6987 25.932 96.5147 25.86 96.3707 25.716C96.2267 25.572 96.1547 25.388 96.1547 25.164C96.1547 24.94 96.2267 24.756 96.3707 24.612C96.5147 24.468 96.6987 24.396 96.9227 24.396C97.1467 24.396 97.3307 24.468 97.4747 24.612C97.6187 24.756 97.6907 24.94 97.6907 25.164C97.6907 25.388 97.6187 25.572 97.4747 25.716C97.3307 25.86 97.1467 25.932 96.9227 25.932ZM96.4427 32.988C96.3627 32.988 96.3227 32.948 96.3227 32.868V27.012C96.3227 26.932 96.3627 26.892 96.4427 26.892H97.3547C97.4347 26.892 97.4747 26.932 97.4747 27.012V32.868C97.4747 32.948 97.4347 32.988 97.3547 32.988H96.4427ZM105.633 26.808C106.241 26.808 106.721 26.992 107.073 27.36C107.425 27.72 107.601 28.224 107.601 28.872V32.88C107.601 32.96 107.561 33 107.481 33H106.581C106.501 33 106.461 32.96 106.461 32.88V29.112C106.461 28.712 106.349 28.396 106.125 28.164C105.909 27.924 105.617 27.804 105.249 27.804C104.881 27.804 104.581 27.92 104.349 28.152C104.117 28.384 104.001 28.696 104.001 29.088V32.88C104.001 32.96 103.961 33 103.881 33H102.981C102.901 33 102.861 32.96 102.861 32.88V29.112C102.861 28.712 102.749 28.396 102.525 28.164C102.309 27.924 102.017 27.804 101.649 27.804C101.281 27.804 100.985 27.92 100.761 28.152C100.545 28.384 100.437 28.696 100.437 29.088V32.88C100.437 32.96 100.397 33 100.317 33H99.4053C99.3253 33 99.2853 32.96 99.2853 32.88V27.012C99.2853 26.932 99.3253 26.892 99.4053 26.892H100.317C100.397 26.892 100.437 26.932 100.437 27.012V27.42C100.437 27.436 100.441 27.448 100.449 27.456C100.465 27.464 100.481 27.46 100.497 27.444C100.849 27.02 101.361 26.808 102.033 26.808C102.441 26.808 102.789 26.888 103.077 27.048C103.365 27.2 103.589 27.428 103.749 27.732C103.773 27.764 103.797 27.764 103.821 27.732C104.013 27.42 104.265 27.188 104.577 27.036C104.897 26.884 105.249 26.808 105.633 26.808ZM114.073 29.184C114.105 29.512 114.117 29.88 114.109 30.288C114.109 30.368 114.069 30.408 113.989 30.408H110.161C110.129 30.408 110.113 30.424 110.113 30.456C110.113 30.728 110.137 30.936 110.185 31.08C110.273 31.4 110.449 31.652 110.713 31.836C110.985 32.012 111.325 32.1 111.733 32.1C112.325 32.1 112.781 31.856 113.101 31.368C113.141 31.288 113.193 31.276 113.257 31.332L113.941 31.788C113.997 31.836 114.009 31.888 113.977 31.944C113.753 32.304 113.433 32.588 113.017 32.796C112.609 33.004 112.145 33.108 111.625 33.108C111.041 33.108 110.549 32.98 110.149 32.724C109.749 32.468 109.449 32.104 109.249 31.632C109.057 31.16 108.961 30.588 108.961 29.916C108.961 29.332 109.005 28.888 109.093 28.584C109.237 28.032 109.525 27.596 109.957 27.276C110.389 26.956 110.913 26.796 111.529 26.796C112.337 26.796 112.941 27 113.341 27.408C113.741 27.808 113.985 28.4 114.073 29.184ZM111.529 27.792C111.185 27.792 110.901 27.88 110.677 28.056C110.453 28.224 110.301 28.452 110.221 28.74C110.165 28.916 110.129 29.14 110.113 29.412C110.113 29.444 110.129 29.46 110.161 29.46H112.909C112.941 29.46 112.957 29.444 112.957 29.412C112.941 29.148 112.917 28.952 112.885 28.824C112.805 28.512 112.645 28.264 112.405 28.08C112.173 27.888 111.881 27.792 111.529 27.792Z" fill="#667B87"/>
</g>
</g>
</svg>
