<svg width="16" height="18" viewBox="0 0 16 18" fill="none" xmlns="http://www.w3.org/2000/svg">
<path fill-rule="evenodd" clip-rule="evenodd" d="M8 3.99999C4.77834 3.99999 2.16667 6.61167 2.16667 9.83333C2.16667 13.055 4.77834 15.6667 8 15.6667C11.2217 15.6667 13.8333 13.055 13.8333 9.83333C13.8333 6.61167 11.2217 3.99999 8 3.99999ZM0.5 9.83333C0.5 5.69119 3.85786 2.33333 8 2.33333C12.1421 2.33333 15.5 5.69119 15.5 9.83333C15.5 13.9755 12.1421 17.3333 8 17.3333C3.85786 17.3333 0.5 13.9755 0.5 9.83333Z" fill="#533082"/>
<path fill-rule="evenodd" clip-rule="evenodd" d="M11.0891 7.57741C11.4145 7.90284 11.4145 8.43048 11.0891 8.75592L7.75576 12.0893C7.43032 12.4147 6.90269 12.4147 6.57725 12.0893L4.91058 10.4226C4.58514 10.0971 4.58514 9.56951 4.91058 9.24407C5.23602 8.91864 5.76366 8.91864 6.08909 9.24407L7.1665 10.3215L9.91058 7.57741C10.236 7.25197 10.7637 7.25197 11.0891 7.57741Z" fill="#533082"/>
<path d="M1.83338 3.41672C1.46519 3.69286 0.942858 3.61824 0.666716 3.25005C0.390573 2.88186 0.465193 2.35953 0.833382 2.08339L2.50005 0.833387C2.86824 0.557245 3.39057 0.631864 3.66672 1.00005C3.94286 1.36824 3.86824 1.89058 3.50005 2.16672L1.83338 3.41672Z" fill="#533082"/>
<path d="M13.5 0.833486C13.1319 0.557343 12.6095 0.631962 12.3334 1.00015C12.0572 1.36834 12.1319 1.89068 12.5 2.16682L14.1667 3.41682C14.5349 3.69296 15.0572 3.61834 15.3334 3.25015C15.6095 2.88196 15.5349 2.35963 15.1667 2.08349L13.5 0.833486Z" fill="#533082"/>
</svg>
