<svg width="24" height="20" viewBox="0 0 24 20" fill="none" xmlns="http://www.w3.org/2000/svg">
<path d="M0.00012207 10.1648C0.00012207 10.4879 0.142283 10.7851 0.400746 11.0307L8.98227 19.5993C9.24076 19.8448 9.51217 19.9611 9.82232 19.9611C10.4556 19.9611 10.9596 19.4959 10.9596 18.8497C10.9596 18.5395 10.8433 18.2293 10.6365 18.0355L7.74157 15.0888L3.38618 11.1212L6.51378 11.315H22.8626C23.5346 11.315 23.9999 10.8368 23.9999 10.1648C23.9999 9.49272 23.5346 9.01454 22.8626 9.01454H6.51378L3.39913 9.2084L7.74157 5.24075L10.6365 2.29408C10.8433 2.08729 10.9596 1.79005 10.9596 1.47987C10.9596 0.833669 10.4556 0.368408 9.82232 0.368408C9.51217 0.368408 9.24076 0.471795 8.95644 0.756117L0.400746 9.29887C0.142283 9.54441 0.00012207 9.84168 0.00012207 10.1648Z" fill="#667B87"/>
</svg>
