<svg width="18" height="14" viewBox="0 0 18 14" fill="none" xmlns="http://www.w3.org/2000/svg">
<path fill-rule="evenodd" clip-rule="evenodd" d="M7.46788 0.333329H13.8655C14.3047 0.333314 14.6837 0.333301 14.9959 0.358804C15.3253 0.385722 15.653 0.445152 15.9683 0.605813C16.4387 0.845497 16.8212 1.22795 17.0609 1.69835C17.2215 2.01367 17.2809 2.34135 17.3079 2.67081C17.3334 2.98295 17.3334 3.36193 17.3333 3.80123V6.86543C17.3334 7.30473 17.3334 7.68371 17.3079 7.99585C17.2809 8.32531 17.2215 8.65299 17.0609 8.96831C16.8212 9.43871 16.4387 9.82116 15.9683 10.0608C15.653 10.2215 15.3253 10.2809 14.9959 10.3079C14.6837 10.3334 14.3047 10.3333 13.8654 10.3333H12.3333V8.66666H13.8333C14.3138 8.66666 14.624 8.66602 14.8601 8.64672C15.0865 8.62823 15.1705 8.59683 15.2117 8.57584C15.3685 8.49594 15.4959 8.36846 15.5758 8.21166C15.5968 8.17045 15.6282 8.08652 15.6467 7.86013C15.666 7.62402 15.6667 7.31379 15.6667 6.83333V3.83333C15.6667 3.35287 15.666 3.04264 15.6467 2.80653C15.6282 2.58014 15.5968 2.49621 15.5758 2.455C15.4959 2.2982 15.3685 2.17072 15.2117 2.09082C15.1705 2.06983 15.0865 2.03843 14.8601 2.01994C14.624 2.00064 14.3138 2 13.8333 2H7.5C7.01954 2 6.70931 2.00064 6.4732 2.01994C6.24681 2.03843 6.16288 2.06983 6.12168 2.09082C5.96487 2.17072 5.83739 2.2982 5.7575 2.455C5.7365 2.49621 5.7051 2.58014 5.68661 2.80653C5.66732 3.04264 5.66667 3.35287 5.66667 3.83333V4.5H4L4 3.80121C3.99999 3.36192 3.99997 2.98295 4.02548 2.67081C4.05239 2.34135 4.11182 2.01367 4.27249 1.69835C4.51217 1.22795 4.89462 0.845497 5.36503 0.605813C5.68034 0.445152 6.00802 0.385722 6.33748 0.358804C6.64962 0.333301 7.02859 0.333314 7.46788 0.333329Z" fill="#533082"/>
<path d="M0.666504 7H13.9998V8.66667H0.666504V7Z" fill="#533082"/>
<path fill-rule="evenodd" clip-rule="evenodd" d="M4.13439 3.66667H10.532C10.9712 3.66666 11.3502 3.66664 11.6624 3.69215C11.9918 3.71907 12.3195 3.7785 12.6348 3.93916C13.1052 4.17884 13.4877 4.56129 13.7274 5.0317C13.888 5.34701 13.9474 5.6747 13.9744 6.00415C13.9999 6.3163 13.9999 6.69527 13.9998 7.13457V10.1988C13.9999 10.6381 13.9999 11.017 13.9744 11.3292C13.9474 11.6587 13.888 11.9863 13.7274 12.3017C13.4877 12.7721 13.1052 13.1545 12.6348 13.3942C12.3195 13.5549 11.9918 13.6143 11.6624 13.6412C11.3502 13.6667 10.9712 13.6667 10.5319 13.6667H4.1344C3.6951 13.6667 3.31613 13.6667 3.00398 13.6412C2.67453 13.6143 2.34685 13.5549 2.03153 13.3942C1.56112 13.1545 1.17867 12.7721 0.938989 12.3017C0.778327 11.9863 0.718897 11.6587 0.69198 11.3292C0.666477 11.0171 0.66649 10.6381 0.666505 10.1988V7.13455C0.66649 6.69526 0.666477 6.31629 0.69198 6.00415C0.718897 5.6747 0.778327 5.34701 0.938989 5.0317C1.17867 4.56129 1.56112 4.17884 2.03153 3.93916C2.34685 3.7785 2.67453 3.71907 3.00398 3.69215C3.31613 3.66664 3.69509 3.66666 4.13439 3.66667ZM3.1397 5.35328C2.91332 5.37178 2.82938 5.40317 2.78818 5.42417C2.63138 5.50406 2.50389 5.63155 2.424 5.78835C2.40301 5.82955 2.37161 5.91348 2.35311 6.13987C2.33382 6.37598 2.33317 6.68621 2.33317 7.16667V10.1667C2.33317 10.6471 2.33382 10.9574 2.35311 11.1935C2.37161 11.4199 2.40301 11.5038 2.424 11.545C2.50389 11.7018 2.63138 11.8293 2.78818 11.9092C2.82938 11.9302 2.91332 11.9616 3.1397 11.9801C3.37582 11.9994 3.68604 12 4.16651 12H10.4998C10.9803 12 11.2905 11.9994 11.5266 11.9801C11.753 11.9616 11.837 11.9302 11.8782 11.9092C12.035 11.8293 12.1624 11.7018 12.2423 11.545C12.2633 11.5038 12.2947 11.4199 12.3132 11.1935C12.3325 10.9574 12.3332 10.6471 12.3332 10.1667V7.16667C12.3332 6.68621 12.3325 6.37598 12.3132 6.13987C12.2947 5.91348 12.2633 5.82955 12.2423 5.78835C12.1624 5.63155 12.035 5.50406 11.8782 5.42417C11.837 5.40317 11.753 5.37178 11.5266 5.35328C11.2905 5.33399 10.9803 5.33334 10.4998 5.33334H4.16651C3.68604 5.33334 3.37582 5.33399 3.1397 5.35328Z" fill="#533082"/>
</svg>
