<svg width="24" height="24" viewBox="0 0 24 24" fill="none" xmlns="http://www.w3.org/2000/svg">
<path d="M4.15662 19.8465C3.74084 19.4426 3.75534 18.7611 4.15499 18.3614L4.15662 19.8465ZM4.15662 19.8465C4.56717 20.2453 5.24629 20.2475 5.64882 19.8449L12.0013 13.4925L18.3537 19.8449C18.7534 20.2447 19.4451 20.2592 19.849 19.8434C20.2478 19.4329 20.25 18.7639 19.8475 18.3614C19.8475 18.3613 19.8475 18.3613 19.8475 18.3613L13.4949 11.9988L19.8475 5.64628C20.2469 5.24682 20.2617 4.56587 19.8467 4.16186C19.436 3.75198 18.7557 3.74973 18.353 4.16336L12.0013 10.5151L5.64956 4.16337C5.24958 3.75255 4.55684 3.73805 4.15281 4.16494C3.75471 4.57555 3.75278 5.24401 4.15507 5.64628C4.15507 5.64628 4.15507 5.64628 4.15507 5.64628L10.5076 11.9988L4.15507 18.3613L4.15662 19.8465Z" fill="#6B7A99" stroke="#6B7A99" stroke-width="0.3"/>
</svg>
