<svg width="52" height="24" viewBox="0 0 52 24" fill="none" xmlns="http://www.w3.org/2000/svg">
<path d="M28.0001 12.1647C28.0001 12.4878 28.1423 12.7851 28.4008 13.0306L36.9823 21.5992C37.2408 21.8448 37.5122 21.9611 37.8223 21.9611C38.4556 21.9611 38.9597 21.4958 38.9597 20.8496C38.9597 20.5394 38.8434 20.2293 38.6366 20.0354L35.7416 17.0887L31.3862 13.1211L34.5138 13.3149H50.8626C51.5346 13.3149 52 12.8368 52 12.1647C52 11.4927 51.5346 11.0145 50.8626 11.0145H34.5138L31.3991 11.2083L35.7416 7.24068L38.6366 4.29402C38.8434 4.08723 38.9597 3.78999 38.9597 3.4798C38.9597 2.83361 38.4556 2.36835 37.8223 2.36835C37.5122 2.36835 37.2408 2.47173 36.9565 2.75606L28.4008 11.2988C28.1423 11.5444 28.0001 11.8416 28.0001 12.1647Z" fill="#667B87"/>
</svg>
