<svg width="105" height="24" viewBox="0 0 105 24" fill="none" xmlns="http://www.w3.org/2000/svg">
<path fill-rule="evenodd" clip-rule="evenodd" d="M3.02496 11.4505C2.75609 9.07808 4.61196 7 6.99952 7H17.0011C19.3887 7 21.2445 9.07808 20.9757 11.4505L20.2957 17.4504C20.0665 19.4723 18.3559 21 16.3211 21H7.67951C5.64467 21 3.93411 19.4724 3.70496 17.4504L3.02496 11.4505ZM6.99952 9C5.80574 9 4.8778 10.039 5.01224 11.2252L5.69224 17.2252C5.80681 18.2362 6.66209 19 7.67951 19H16.3211C17.3385 19 18.1938 18.2362 18.3084 17.2252L18.9884 11.2252C19.1228 10.039 18.1949 9 17.0011 9H6.99952Z" fill="#667B87"/>
<path fill-rule="evenodd" clip-rule="evenodd" d="M8 7C8 4.79086 9.79086 3 12 3C14.2091 3 16 4.79086 16 7V10C16 10.5523 15.5523 11 15 11C14.4477 11 14 10.5523 14 10V7C14 5.89543 13.1046 5 12 5C10.8954 5 10 5.89543 10 7V10C10 10.5523 9.55228 11 9 11C8.44772 11 8 10.5523 8 10V7Z" fill="#667B87"/>
<path d="M32.572 19C32.452 19 32.374 18.94 32.338 18.82L28.558 6.652L28.54 6.58C28.54 6.46 28.606 6.4 28.738 6.4H30.52C30.652 6.4 30.736 6.46 30.772 6.58L33.472 15.976C33.484 16.012 33.502 16.03 33.526 16.03C33.55 16.03 33.568 16.012 33.58 15.976L36.262 6.58C36.298 6.46 36.382 6.4 36.514 6.4H38.26C38.332 6.4 38.386 6.424 38.422 6.472C38.458 6.52 38.464 6.58 38.44 6.652L34.606 18.82C34.57 18.94 34.492 19 34.372 19H32.572ZM41.2903 8.542C40.9183 8.542 40.6123 8.422 40.3723 8.182C40.1323 7.942 40.0123 7.636 40.0123 7.264C40.0123 6.892 40.1323 6.586 40.3723 6.346C40.6123 6.106 40.9183 5.986 41.2903 5.986C41.6623 5.986 41.9683 6.106 42.2083 6.346C42.4483 6.586 42.5683 6.892 42.5683 7.264C42.5683 7.636 42.4483 7.942 42.2083 8.182C41.9683 8.422 41.6623 8.542 41.2903 8.542ZM40.4263 19C40.3663 19 40.3123 18.982 40.2643 18.946C40.2283 18.898 40.2103 18.844 40.2103 18.784V10C40.2103 9.94 40.2283 9.892 40.2643 9.856C40.3123 9.808 40.3663 9.784 40.4263 9.784H42.0823C42.1423 9.784 42.1903 9.808 42.2263 9.856C42.2743 9.892 42.2983 9.94 42.2983 10V18.784C42.2983 18.844 42.2743 18.898 42.2263 18.946C42.1903 18.982 42.1423 19 42.0823 19H40.4263ZM52.4482 13.366C52.4962 13.666 52.5202 14.002 52.5202 14.374L52.5022 14.932C52.5022 15.076 52.4302 15.148 52.2862 15.148H46.6522C46.5922 15.148 46.5622 15.178 46.5622 15.238C46.5982 15.634 46.6522 15.904 46.7242 16.048C47.0122 16.912 47.7142 17.35 48.8302 17.362C49.6462 17.362 50.2942 17.026 50.7742 16.354C50.8222 16.282 50.8822 16.246 50.9542 16.246C51.0022 16.246 51.0442 16.264 51.0802 16.3L52.1962 17.218C52.3042 17.302 52.3222 17.398 52.2502 17.506C51.8782 18.034 51.3802 18.442 50.7562 18.73C50.1442 19.018 49.4602 19.162 48.7042 19.162C47.7682 19.162 46.9702 18.952 46.3102 18.532C45.6622 18.112 45.1882 17.524 44.8882 16.768C44.6122 16.12 44.4742 15.22 44.4742 14.068C44.4742 13.372 44.5462 12.808 44.6902 12.376C44.9302 11.536 45.3802 10.876 46.0402 10.396C46.7122 9.904 47.5162 9.658 48.4522 9.658C50.8162 9.658 52.1482 10.894 52.4482 13.366ZM48.4522 11.458C48.0082 11.458 47.6362 11.572 47.3362 11.8C47.0482 12.016 46.8442 12.322 46.7242 12.718C46.6522 12.922 46.6042 13.186 46.5802 13.51C46.5562 13.57 46.5802 13.6 46.6522 13.6H50.3062C50.3662 13.6 50.3962 13.57 50.3962 13.51C50.3722 13.21 50.3362 12.982 50.2882 12.826C50.1802 12.394 49.9642 12.058 49.6402 11.818C49.3282 11.578 48.9322 11.458 48.4522 11.458ZM56.2022 19C56.0702 19 55.9862 18.94 55.9502 18.82L53.3762 10.036L53.3582 9.964C53.3582 9.844 53.4242 9.784 53.5562 9.784H55.2662C55.3982 9.784 55.4822 9.844 55.5182 9.964L57.0122 15.976C57.0242 16.012 57.0422 16.03 57.0662 16.03C57.0902 16.03 57.1082 16.012 57.1202 15.976L58.6862 9.964C58.7222 9.844 58.8062 9.784 58.9382 9.784H60.4322C60.5642 9.784 60.6482 9.844 60.6842 9.964L62.2862 15.976C62.2982 16.012 62.3162 16.03 62.3402 16.03C62.3642 16.03 62.3822 16.012 62.3942 15.976L63.9962 9.964C64.0322 9.844 64.1162 9.784 64.2482 9.784L65.9402 9.82C66.0122 9.82 66.0602 9.844 66.0842 9.892C66.1202 9.928 66.1322 9.982 66.1202 10.054L63.5282 18.82C63.4922 18.94 63.4142 19 63.2942 19H61.5662C61.4342 19 61.3502 18.94 61.3142 18.82L59.7302 13.33C59.7182 13.294 59.7002 13.276 59.6762 13.276C59.6522 13.276 59.6342 13.294 59.6222 13.33L58.1642 18.82C58.1282 18.94 58.0442 19 57.9122 19H56.2022ZM75.7311 19.144C74.8311 19.144 74.0391 18.97 73.3551 18.622C72.6711 18.262 72.1431 17.764 71.7711 17.128C71.3991 16.492 71.2131 15.754 71.2131 14.914V10.468C71.2131 9.628 71.3991 8.89 71.7711 8.254C72.1431 7.618 72.6711 7.126 73.3551 6.778C74.0391 6.43 74.8311 6.256 75.7311 6.256C76.6191 6.256 77.4051 6.424 78.0891 6.76C78.7731 7.096 79.3011 7.57 79.6731 8.182C80.0451 8.794 80.2311 9.502 80.2311 10.306C80.2311 10.366 80.2071 10.42 80.1591 10.468C80.1231 10.504 80.0751 10.522 80.0151 10.522L78.3591 10.612C78.2151 10.612 78.1431 10.546 78.1431 10.414C78.1431 9.706 77.9211 9.136 77.4771 8.704C77.0451 8.272 76.4631 8.056 75.7311 8.056C74.9991 8.056 74.4111 8.272 73.9671 8.704C73.5231 9.136 73.3011 9.706 73.3011 10.414V15.004C73.3011 15.7 73.5231 16.264 73.9671 16.696C74.4111 17.128 74.9991 17.344 75.7311 17.344C76.4631 17.344 77.0451 17.134 77.4771 16.714C77.9211 16.282 78.1431 15.712 78.1431 15.004C78.1431 14.872 78.2151 14.806 78.3591 14.806L80.0151 14.878C80.0751 14.878 80.1231 14.896 80.1591 14.932C80.2071 14.968 80.2311 15.01 80.2311 15.058C80.2311 15.874 80.0451 16.594 79.6731 17.218C79.3011 17.83 78.7731 18.304 78.0891 18.64C77.4051 18.976 76.6191 19.144 75.7311 19.144ZM85.7119 9.658C86.4679 9.658 87.1339 9.79 87.7099 10.054C88.2859 10.318 88.7299 10.684 89.0419 11.152C89.3539 11.608 89.5099 12.13 89.5099 12.718V18.784C89.5099 18.844 89.4859 18.898 89.4379 18.946C89.4019 18.982 89.3539 19 89.2939 19H87.6379C87.5779 19 87.5239 18.982 87.4759 18.946C87.4399 18.898 87.4219 18.844 87.4219 18.784V18.208C87.4219 18.172 87.4099 18.154 87.3859 18.154C87.3619 18.142 87.3379 18.148 87.3139 18.172C86.7259 18.82 85.8739 19.144 84.7579 19.144C83.8579 19.144 83.1139 18.916 82.5259 18.46C81.9499 18.004 81.6619 17.326 81.6619 16.426C81.6619 15.49 81.9859 14.764 82.6339 14.248C83.2939 13.72 84.2179 13.456 85.4059 13.456H87.3319C87.3919 13.456 87.4219 13.426 87.4219 13.366V12.934C87.4219 12.466 87.2839 12.106 87.0079 11.854C86.7319 11.59 86.3179 11.458 85.7659 11.458C85.3099 11.458 84.9379 11.542 84.6499 11.71C84.3739 11.866 84.1999 12.088 84.1279 12.376C84.0919 12.52 84.0079 12.58 83.8759 12.556L82.1299 12.34C82.0699 12.328 82.0159 12.31 81.9679 12.286C81.9319 12.25 81.9199 12.208 81.9319 12.16C82.0279 11.428 82.4179 10.828 83.1019 10.36C83.7979 9.892 84.6679 9.658 85.7119 9.658ZM85.2799 17.488C85.8679 17.488 86.3719 17.332 86.7919 17.02C87.2119 16.708 87.4219 16.312 87.4219 15.832V14.986C87.4219 14.926 87.3919 14.896 87.3319 14.896H85.8199C85.1839 14.896 84.6799 15.016 84.3079 15.256C83.9479 15.496 83.7679 15.838 83.7679 16.282C83.7679 16.666 83.9059 16.966 84.1819 17.182C84.4699 17.386 84.8359 17.488 85.2799 17.488ZM95.8902 9.694C96.2742 9.694 96.6102 9.772 96.8982 9.928C96.9942 9.976 97.0302 10.066 97.0062 10.198L96.7002 11.818C96.6882 11.962 96.6042 12.004 96.4482 11.944C96.2682 11.884 96.0582 11.854 95.8182 11.854C95.6622 11.854 95.5422 11.86 95.4582 11.872C94.9542 11.896 94.5342 12.076 94.1982 12.412C93.8622 12.736 93.6942 13.162 93.6942 13.69V18.784C93.6942 18.844 93.6702 18.898 93.6222 18.946C93.5862 18.982 93.5382 19 93.4782 19H91.8222C91.7622 19 91.7082 18.982 91.6602 18.946C91.6242 18.898 91.6062 18.844 91.6062 18.784V10.018C91.6062 9.958 91.6242 9.91 91.6602 9.874C91.7082 9.826 91.7622 9.802 91.8222 9.802H93.4782C93.5382 9.802 93.5862 9.826 93.6222 9.874C93.6702 9.91 93.6942 9.958 93.6942 10.018V10.828C93.6942 10.876 93.7002 10.906 93.7122 10.918C93.7362 10.918 93.7602 10.9 93.7842 10.864C94.2882 10.084 94.9902 9.694 95.8902 9.694ZM103.41 11.278C103.41 11.338 103.386 11.392 103.338 11.44C103.302 11.476 103.254 11.494 103.194 11.494H101.358C101.298 11.494 101.268 11.524 101.268 11.584V15.922C101.268 16.378 101.364 16.708 101.556 16.912C101.76 17.116 102.078 17.218 102.51 17.218H103.05C103.11 17.218 103.158 17.242 103.194 17.29C103.242 17.326 103.266 17.374 103.266 17.434V18.784C103.266 18.916 103.194 18.994 103.05 19.018L102.114 19.036C101.166 19.036 100.458 18.874 99.99 18.55C99.522 18.226 99.282 17.614 99.27 16.714V11.584C99.27 11.524 99.24 11.494 99.18 11.494H98.154C98.094 11.494 98.04 11.476 97.992 11.44C97.956 11.392 97.938 11.338 97.938 11.278V10.018C97.938 9.958 97.956 9.91 97.992 9.874C98.04 9.826 98.094 9.802 98.154 9.802H99.18C99.24 9.802 99.27 9.772 99.27 9.712V7.606C99.27 7.546 99.288 7.498 99.324 7.462C99.372 7.414 99.426 7.39 99.486 7.39H101.052C101.112 7.39 101.16 7.414 101.196 7.462C101.244 7.498 101.268 7.546 101.268 7.606V9.712C101.268 9.772 101.298 9.802 101.358 9.802H103.194C103.254 9.802 103.302 9.826 103.338 9.874C103.386 9.91 103.41 9.958 103.41 10.018V11.278Z" fill="#667B87"/>
</svg>
