<svg width="133" height="36" viewBox="0 0 133 36" fill="none" xmlns="http://www.w3.org/2000/svg">
<rect x="0.5" y="0.5" width="35" height="35" rx="17.5" fill="#EAF4FA"/>
<path fill-rule="evenodd" clip-rule="evenodd" d="M15.5002 21.3333C14.1195 21.3333 13.0002 22.4526 13.0002 23.8333C13.0002 24.2936 13.3733 24.6667 13.8335 24.6667H22.1668C22.6271 24.6667 23.0002 24.2936 23.0002 23.8333C23.0002 22.4526 21.8809 21.3333 20.5002 21.3333H15.5002ZM11.3335 23.8333C11.3335 21.5321 13.199 19.6667 15.5002 19.6667H20.5002C22.8013 19.6667 24.6668 21.5321 24.6668 23.8333C24.6668 25.214 23.5475 26.3333 22.1668 26.3333H13.8335C12.4528 26.3333 11.3335 25.214 11.3335 23.8333Z" fill="#667B87"/>
<path fill-rule="evenodd" clip-rule="evenodd" d="M18.0002 11.3333C16.6195 11.3333 15.5002 12.4526 15.5002 13.8333C15.5002 15.214 16.6195 16.3333 18.0002 16.3333C19.3809 16.3333 20.5002 15.214 20.5002 13.8333C20.5002 12.4526 19.3809 11.3333 18.0002 11.3333ZM13.8335 13.8333C13.8335 11.5321 15.699 9.66666 18.0002 9.66666C20.3013 9.66666 22.1668 11.5321 22.1668 13.8333C22.1668 16.1345 20.3013 18 18.0002 18C15.699 18 13.8335 16.1345 13.8335 13.8333Z" fill="#667B87"/>
<rect x="0.5" y="0.5" width="35" height="35" rx="17.5" stroke="#C4D5DF"/>
<path d="M51.098 16C51.014 16 50.958 15.9627 50.93 15.888L50.426 14.25C50.4167 14.222 50.398 14.208 50.37 14.208H46.436C46.408 14.208 46.3893 14.222 46.38 14.25L45.876 15.888C45.848 15.9627 45.792 16 45.708 16H44.574C44.4713 16 44.434 15.9487 44.462 15.846L47.528 6.312C47.556 6.23733 47.612 6.2 47.696 6.2H49.096C49.18 6.2 49.236 6.23733 49.264 6.312L52.358 15.846L52.372 15.902C52.372 15.9673 52.33 16 52.246 16H51.098ZM46.73 13.074C46.7207 13.0927 46.7207 13.1113 46.73 13.13C46.7487 13.1393 46.7673 13.144 46.786 13.144H50.006C50.0247 13.144 50.0387 13.1393 50.048 13.13C50.0667 13.1113 50.0713 13.0927 50.062 13.074L48.438 7.88C48.4287 7.86133 48.4147 7.852 48.396 7.852C48.3773 7.852 48.3633 7.86133 48.354 7.88L46.73 13.074ZM60.4764 7.222C60.4764 7.31533 60.4297 7.362 60.3364 7.362H55.3664C55.329 7.362 55.3104 7.38067 55.3104 7.418V10.428C55.3104 10.4653 55.329 10.484 55.3664 10.484H58.7824C58.8757 10.484 58.9224 10.5307 58.9224 10.624V11.506C58.9224 11.5993 58.8757 11.646 58.7824 11.646H55.3664C55.329 11.646 55.3104 11.6647 55.3104 11.702V14.782C55.3104 14.8193 55.329 14.838 55.3664 14.838H60.3364C60.4297 14.838 60.4764 14.8847 60.4764 14.978V15.86C60.4764 15.9533 60.4297 16 60.3364 16H54.1064C54.013 16 53.9664 15.9533 53.9664 15.86V6.34C53.9664 6.24667 54.013 6.2 54.1064 6.2H60.3364C60.4297 6.2 60.4764 6.24667 60.4764 6.34V7.222ZM62.4735 16C62.3802 16 62.3335 15.9533 62.3335 15.86V6.34C62.3335 6.24667 62.3802 6.2 62.4735 6.2H65.8615C66.8322 6.2 67.6069 6.45667 68.1855 6.97C68.7642 7.474 69.0535 8.15067 69.0535 9V13.2C69.0535 14.0493 68.7642 14.7307 68.1855 15.244C67.6069 15.748 66.8322 16 65.8615 16H62.4735ZM63.6775 14.782C63.6775 14.8193 63.6962 14.838 63.7335 14.838H65.9175C66.4589 14.838 66.8882 14.6747 67.2055 14.348C67.5322 14.012 67.7002 13.564 67.7095 13.004V9.196C67.7095 8.636 67.5462 8.19267 67.2195 7.866C66.9022 7.53 66.4682 7.362 65.9175 7.362H63.7335C63.6962 7.362 63.6775 7.38067 63.6775 7.418V14.782ZM75.0226 6.242C75.0786 6.214 75.1392 6.2 75.2046 6.2H76.3106C76.4039 6.2 76.4506 6.24667 76.4506 6.34V15.86C76.4506 15.9533 76.4039 16 76.3106 16H75.2466C75.1532 16 75.1066 15.9533 75.1066 15.86V7.642C75.1066 7.62333 75.0972 7.60933 75.0786 7.6C75.0692 7.59067 75.0552 7.59067 75.0366 7.6L73.5666 8.104C73.5479 8.11333 73.5246 8.118 73.4966 8.118C73.4406 8.118 73.4079 8.08067 73.3986 8.006L73.3426 7.208C73.3426 7.11467 73.3706 7.05867 73.4266 7.04L75.0226 6.242ZM81.5125 16.14C80.5698 16.14 79.8185 15.874 79.2585 15.342C78.7078 14.8007 78.4325 14.0773 78.4325 13.172V9.028C78.4325 8.12267 78.7078 7.404 79.2585 6.872C79.8185 6.34 80.5698 6.074 81.5125 6.074C82.4551 6.074 83.2065 6.34 83.7665 6.872C84.3358 7.404 84.6205 8.12267 84.6205 9.028V13.172C84.6205 14.0773 84.3358 14.8007 83.7665 15.342C83.2065 15.874 82.4551 16.14 81.5125 16.14ZM81.5125 14.978C82.0538 14.978 82.4831 14.824 82.8005 14.516C83.1178 14.1987 83.2765 13.7787 83.2765 13.256V8.972C83.2765 8.44933 83.1178 8.034 82.8005 7.726C82.4831 7.40867 82.0538 7.25 81.5125 7.25C80.9898 7.25 80.5698 7.40867 80.2525 7.726C79.9351 8.034 79.7765 8.44933 79.7765 8.972V13.256C79.7765 13.7787 79.9351 14.1987 80.2525 14.516C80.5698 14.824 80.9898 14.978 81.5125 14.978Z" fill="#667B87"/>
<path d="M50.552 25.476C50.552 25.556 50.512 25.596 50.432 25.596H46.184C46.152 25.596 46.136 25.612 46.136 25.644V28.224C46.136 28.256 46.152 28.272 46.184 28.272H49.1C49.18 28.272 49.22 28.312 49.22 28.392V29.148C49.22 29.228 49.18 29.268 49.1 29.268H46.184C46.152 29.268 46.136 29.284 46.136 29.316V32.88C46.136 32.96 46.096 33 46.016 33H45.104C45.024 33 44.984 32.96 44.984 32.88V24.72C44.984 24.64 45.024 24.6 45.104 24.6H50.432C50.512 24.6 50.552 24.64 50.552 24.72V25.476ZM53.5587 33.096C52.9667 33.096 52.4507 32.948 52.0107 32.652C51.5707 32.348 51.2627 31.928 51.0867 31.392C50.9427 30.96 50.8707 30.472 50.8707 29.928C50.8707 29.36 50.9387 28.88 51.0747 28.488C51.2507 27.96 51.5587 27.548 51.9987 27.252C52.4387 26.948 52.9627 26.796 53.5707 26.796C54.1467 26.796 54.6467 26.948 55.0707 27.252C55.5027 27.548 55.8107 27.956 55.9947 28.476C56.1387 28.884 56.2107 29.364 56.2107 29.916C56.2107 30.476 56.1387 30.968 55.9947 31.392C55.8187 31.928 55.5147 32.348 55.0827 32.652C54.6507 32.948 54.1427 33.096 53.5587 33.096ZM53.5587 32.1C53.8787 32.1 54.1587 32.012 54.3987 31.836C54.6387 31.652 54.8107 31.396 54.9147 31.068C55.0027 30.764 55.0467 30.388 55.0467 29.94C55.0467 29.492 55.0067 29.12 54.9267 28.824C54.8227 28.496 54.6507 28.244 54.4107 28.068C54.1707 27.884 53.8787 27.792 53.5347 27.792C53.2067 27.792 52.9227 27.884 52.6827 28.068C52.4427 28.244 52.2707 28.496 52.1667 28.824C52.0787 29.104 52.0347 29.476 52.0347 29.94C52.0347 30.404 52.0787 30.78 52.1667 31.068C52.2627 31.396 52.4307 31.652 52.6707 31.836C52.9187 32.012 53.2147 32.1 53.5587 32.1ZM60.3949 26.832C60.6509 26.832 60.8829 26.884 61.0909 26.988C61.1469 27.012 61.1669 27.06 61.1509 27.132L60.9589 28.032C60.9509 28.104 60.9029 28.128 60.8149 28.104C60.6789 28.048 60.5189 28.02 60.3349 28.02L60.1669 28.032C59.7909 28.048 59.4789 28.18 59.2309 28.428C58.9909 28.668 58.8709 28.984 58.8709 29.376V32.88C58.8709 32.96 58.8309 33 58.7509 33H57.8389C57.7589 33 57.7189 32.96 57.7189 32.88V27.012C57.7189 26.932 57.7589 26.892 57.8389 26.892H58.7509C58.8309 26.892 58.8709 26.932 58.8709 27.012V27.648C58.8709 27.672 58.8749 27.688 58.8829 27.696C58.8989 27.696 58.9109 27.688 58.9189 27.672C59.2789 27.112 59.7709 26.832 60.3949 26.832ZM70.0584 24.6C70.1384 24.6 70.1784 24.64 70.1784 24.72V25.488C70.1784 25.568 70.1384 25.608 70.0584 25.608H67.7544C67.7224 25.608 67.7064 25.624 67.7064 25.656V32.88C67.7064 32.96 67.6664 33 67.5864 33H66.6744C66.5944 33 66.5544 32.96 66.5544 32.88V25.656C66.5544 25.624 66.5384 25.608 66.5064 25.608H64.3104C64.2304 25.608 64.1904 25.568 64.1904 25.488V24.72C64.1904 24.64 64.2304 24.6 64.3104 24.6H70.0584ZM72.3171 33C72.2531 33 72.2091 32.968 72.1851 32.904L70.4571 27.024L70.4451 26.988C70.4451 26.924 70.4851 26.892 70.5651 26.892H71.5011C71.5731 26.892 71.6171 26.928 71.6331 27L72.7731 31.356C72.7811 31.372 72.7891 31.38 72.7971 31.38C72.8131 31.38 72.8251 31.372 72.8331 31.356L73.9971 27C74.0131 26.928 74.0571 26.892 74.1291 26.892H74.9571C75.0291 26.892 75.0731 26.928 75.0891 27L76.2771 31.344C76.2851 31.36 76.2931 31.368 76.3011 31.368C76.3171 31.368 76.3291 31.36 76.3371 31.344L77.5251 27C77.5411 26.928 77.5851 26.892 77.6571 26.892L78.5811 26.904C78.6211 26.904 78.6491 26.916 78.6651 26.94C78.6891 26.964 78.6971 26.996 78.6891 27.036L76.9491 32.904C76.9251 32.968 76.8811 33 76.8171 33H75.8811C75.8171 33 75.7731 32.968 75.7491 32.904L74.5731 28.848C74.5651 28.832 74.5531 28.824 74.5371 28.824C74.5291 28.824 74.5211 28.832 74.5131 28.848L73.3971 32.892C73.3811 32.964 73.3371 33 73.2651 33H72.3171ZM82.1055 33.096C81.5135 33.096 80.9975 32.948 80.5575 32.652C80.1175 32.348 79.8095 31.928 79.6335 31.392C79.4895 30.96 79.4175 30.472 79.4175 29.928C79.4175 29.36 79.4855 28.88 79.6215 28.488C79.7975 27.96 80.1055 27.548 80.5455 27.252C80.9855 26.948 81.5095 26.796 82.1175 26.796C82.6935 26.796 83.1935 26.948 83.6175 27.252C84.0495 27.548 84.3575 27.956 84.5415 28.476C84.6855 28.884 84.7575 29.364 84.7575 29.916C84.7575 30.476 84.6855 30.968 84.5415 31.392C84.3655 31.928 84.0615 32.348 83.6295 32.652C83.1975 32.948 82.6895 33.096 82.1055 33.096ZM82.1055 32.1C82.4255 32.1 82.7055 32.012 82.9455 31.836C83.1855 31.652 83.3575 31.396 83.4615 31.068C83.5495 30.764 83.5935 30.388 83.5935 29.94C83.5935 29.492 83.5535 29.12 83.4735 28.824C83.3695 28.496 83.1975 28.244 82.9575 28.068C82.7175 27.884 82.4255 27.792 82.0815 27.792C81.7535 27.792 81.4695 27.884 81.2295 28.068C80.9895 28.244 80.8175 28.496 80.7135 28.824C80.6255 29.104 80.5815 29.476 80.5815 29.94C80.5815 30.404 80.6255 30.78 80.7135 31.068C80.8095 31.396 80.9775 31.652 81.2175 31.836C81.4655 32.012 81.7615 32.1 82.1055 32.1Z" fill="#667B87"/>
</svg>
