<svg width="24" height="20" viewBox="0 0 24 20" fill="none" xmlns="http://www.w3.org/2000/svg">
<g id="Left Arrow">
<path id="Vector" d="M0 10.1647C0 10.4878 0.142161 10.7851 0.400624 11.0306L8.98215 19.5992C9.24064 19.8448 9.51204 19.9611 9.8222 19.9611C10.4555 19.9611 10.9595 19.4958 10.9595 18.8496C10.9595 18.5394 10.8432 18.2293 10.6364 18.0354L7.74145 15.0887L3.38606 11.1211L6.51366 11.3149H22.8625C23.5345 11.3149 23.9998 10.8368 23.9998 10.1647C23.9998 9.49266 23.5345 9.01448 22.8625 9.01448H6.51366L3.399 9.20833L7.74145 5.24068L10.6364 2.29402C10.8432 2.08723 10.9595 1.78999 10.9595 1.4798C10.9595 0.833608 10.4555 0.368347 9.8222 0.368347C9.51204 0.368347 9.24064 0.471734 8.95632 0.756056L0.400624 9.2988C0.142161 9.54435 0 9.84162 0 10.1647Z" fill="#667B87"/>
</g>
</svg>
