<svg width="16" height="18" viewBox="0 0 16 18" fill="none" xmlns="http://www.w3.org/2000/svg">
<path fill-rule="evenodd" clip-rule="evenodd" d="M8 2.33333C4.77834 2.33333 2.16667 4.945 2.16667 8.16666C2.16667 10.0051 3.28006 11.7233 4.83743 13.073L7.70528 15.5585C7.87442 15.7051 8.12558 15.7051 8.29472 15.5585L11.1626 13.073C12.7199 11.7233 13.8333 10.0051 13.8333 8.16666C13.8333 4.945 11.2217 2.33333 8 2.33333ZM0.5 8.16666C0.5 4.02453 3.85786 0.666664 8 0.666664C12.1421 0.666664 15.5 4.02453 15.5 8.16666C15.5 10.6887 13.9919 12.8265 12.2541 14.3325L9.38627 16.818C8.59069 17.5075 7.40931 17.5075 6.61373 16.818L3.74588 14.3325C2.00814 12.8265 0.5 10.6887 0.5 8.16666Z" fill="#533082"/>
<path d="M9.66683 8.16667C9.66683 9.08714 8.92064 9.83333 8.00016 9.83333C7.07969 9.83333 6.3335 9.08714 6.3335 8.16667C6.3335 7.24619 7.07969 6.5 8.00016 6.5C8.92064 6.5 9.66683 7.24619 9.66683 8.16667Z" fill="#533082"/>
</svg>
