<svg width="304" height="94" viewBox="0 0 304 94" fill="none" xmlns="http://www.w3.org/2000/svg">
<g clip-path="url(#clip0_259_11000)">
<path d="M0 6C0 2.68629 2.68629 0 6 0H336C339.314 0 342 2.68629 342 6V38H0V6Z" fill="#EAF4FA"/>
<path d="M15.5 15.99C15.94 15.99 16.3267 16.08 16.66 16.26C16.9933 16.44 17.25 16.6967 17.43 17.03C17.6167 17.3567 17.71 17.7333 17.71 18.16C17.71 18.58 17.6133 18.95 17.42 19.27C17.2333 19.59 16.9667 19.84 16.62 20.02C16.28 20.1933 15.8867 20.28 15.44 20.28H14.02C13.9867 20.28 13.97 20.2967 13.97 20.33V22.88C13.97 22.9133 13.9567 22.9433 13.93 22.97C13.91 22.99 13.8833 23 13.85 23H12.68C12.6467 23 12.6167 22.99 12.59 22.97C12.57 22.9433 12.56 22.9133 12.56 22.88V16.11C12.56 16.0767 12.57 16.05 12.59 16.03C12.6167 16.0033 12.6467 15.99 12.68 15.99H15.5ZM15.29 19.15C15.5967 19.15 15.8433 19.0633 16.03 18.89C16.2167 18.71 16.31 18.4767 16.31 18.19C16.31 17.8967 16.2167 17.66 16.03 17.48C15.8433 17.3 15.5967 17.21 15.29 17.21H14.02C13.9867 17.21 13.97 17.2267 13.97 17.26V19.1C13.97 19.1333 13.9867 19.15 14.02 19.15H15.29ZM23.4702 23C23.4035 23 23.3602 22.9667 23.3402 22.9L23.0402 21.92C23.0268 21.8933 23.0102 21.88 22.9902 21.88H20.5302C20.5102 21.88 20.4935 21.8933 20.4802 21.92L20.1902 22.9C20.1702 22.9667 20.1268 23 20.0602 23H18.7902C18.7502 23 18.7202 22.99 18.7002 22.97C18.6802 22.9433 18.6768 22.9067 18.6902 22.86L20.8502 16.1C20.8702 16.0333 20.9135 16 20.9802 16H22.5502C22.6168 16 22.6602 16.0333 22.6802 16.1L24.8402 22.86C24.8468 22.8733 24.8502 22.89 24.8502 22.91C24.8502 22.97 24.8135 23 24.7402 23H23.4702ZM20.8402 20.73C20.8335 20.77 20.8468 20.79 20.8802 20.79H22.6402C22.6802 20.79 22.6935 20.77 22.6802 20.73L21.7802 17.76C21.7735 17.7333 21.7635 17.7233 21.7502 17.73C21.7368 17.73 21.7268 17.74 21.7202 17.76L20.8402 20.73ZM27.7402 22.99C27.7069 22.99 27.6769 22.98 27.6502 22.96C27.6302 22.9333 27.6202 22.9033 27.6202 22.87V20.34C27.6202 20.3133 27.6169 20.2933 27.6102 20.28L25.5502 16.14C25.5369 16.1133 25.5302 16.0933 25.5302 16.08C25.5302 16.0267 25.5669 16 25.6402 16H26.9002C26.9669 16 27.0136 16.03 27.0402 16.09L28.2902 18.75C28.3102 18.79 28.3302 18.79 28.3502 18.75L29.6002 16.09C29.6269 16.03 29.6736 16 29.7402 16H31.0202C31.0669 16 31.0969 16.0133 31.1102 16.04C31.1302 16.06 31.1302 16.0933 31.1102 16.14L29.0302 20.28C29.0236 20.2933 29.0202 20.3133 29.0202 20.34V22.87C29.0202 22.9033 29.0069 22.9333 28.9802 22.96C28.9602 22.98 28.9336 22.99 28.9002 22.99H27.7402ZM37.5221 16.08C37.5554 16.0267 37.6021 16 37.6621 16H38.8321C38.8654 16 38.8921 16.0133 38.9121 16.04C38.9388 16.06 38.9521 16.0867 38.9521 16.12V22.88C38.9521 22.9133 38.9388 22.9433 38.9121 22.97C38.8921 22.99 38.8654 23 38.8321 23H37.6621C37.6288 23 37.5988 22.99 37.5721 22.97C37.5521 22.9433 37.5421 22.9133 37.5421 22.88V18.47C37.5421 18.4433 37.5354 18.43 37.5221 18.43C37.5088 18.43 37.4954 18.44 37.4821 18.46L36.4221 20.12C36.3888 20.1733 36.3421 20.2 36.2821 20.2H35.6921C35.6321 20.2 35.5854 20.1733 35.5521 20.12L34.4921 18.46C34.4788 18.44 34.4654 18.4333 34.4521 18.44C34.4388 18.44 34.4321 18.4533 34.4321 18.48V22.88C34.4321 22.9133 34.4188 22.9433 34.3921 22.97C34.3721 22.99 34.3454 23 34.3121 23H33.1421C33.1088 23 33.0788 22.99 33.0521 22.97C33.0321 22.9433 33.0221 22.9133 33.0221 22.88V16.12C33.0221 16.0867 33.0321 16.06 33.0521 16.04C33.0788 16.0133 33.1088 16 33.1421 16H34.3121C34.3721 16 34.4188 16.0267 34.4521 16.08L35.9521 18.41C35.9721 18.45 35.9921 18.45 36.0121 18.41L37.5221 16.08ZM46.0305 17.09C46.0305 17.1233 46.0172 17.1533 45.9905 17.18C45.9705 17.2 45.9439 17.21 45.9105 17.21H42.6305C42.5972 17.21 42.5805 17.2267 42.5805 17.26V18.81C42.5805 18.8433 42.5972 18.86 42.6305 18.86H44.7805C44.8139 18.86 44.8405 18.8733 44.8605 18.9C44.8872 18.92 44.9005 18.9467 44.9005 18.98V19.95C44.9005 19.9833 44.8872 20.0133 44.8605 20.04C44.8405 20.06 44.8139 20.07 44.7805 20.07H42.6305C42.5972 20.07 42.5805 20.0867 42.5805 20.12V21.74C42.5805 21.7733 42.5972 21.79 42.6305 21.79H45.9105C45.9439 21.79 45.9705 21.8033 45.9905 21.83C46.0172 21.85 46.0305 21.8767 46.0305 21.91V22.88C46.0305 22.9133 46.0172 22.9433 45.9905 22.97C45.9705 22.99 45.9439 23 45.9105 23H41.2905C41.2572 23 41.2272 22.99 41.2005 22.97C41.1805 22.9433 41.1705 22.9133 41.1705 22.88V16.12C41.1705 16.0867 41.1805 16.06 41.2005 16.04C41.2272 16.0133 41.2572 16 41.2905 16H45.9105C45.9439 16 45.9705 16.0133 45.9905 16.04C46.0172 16.06 46.0305 16.0867 46.0305 16.12V17.09ZM52.0304 16.12C52.0304 16.0867 52.0404 16.06 52.0604 16.04C52.0871 16.0133 52.1171 16 52.1504 16H53.3204C53.3537 16 53.3804 16.0133 53.4004 16.04C53.4271 16.06 53.4404 16.0867 53.4404 16.12V22.88C53.4404 22.9133 53.4271 22.9433 53.4004 22.97C53.3804 22.99 53.3537 23 53.3204 23H52.1904C52.1237 23 52.0771 22.9733 52.0504 22.92L49.4604 18.64C49.4471 18.62 49.4337 18.6133 49.4204 18.62C49.4071 18.62 49.4004 18.6333 49.4004 18.66L49.4204 22.88C49.4204 22.9133 49.4071 22.9433 49.3804 22.97C49.3604 22.99 49.3337 23 49.3004 23H48.1304C48.0971 23 48.0671 22.99 48.0404 22.97C48.0204 22.9433 48.0104 22.9133 48.0104 22.88V16.12C48.0104 16.0867 48.0204 16.06 48.0404 16.04C48.0671 16.0133 48.0971 16 48.1304 16H49.2604C49.3271 16 49.3737 16.0267 49.4004 16.08L51.9804 20.34C51.9937 20.36 52.0071 20.37 52.0204 20.37C52.0337 20.3633 52.0404 20.3467 52.0404 20.32L52.0304 16.12ZM60.4908 16C60.5241 16 60.5508 16.0133 60.5708 16.04C60.5974 16.06 60.6108 16.0867 60.6108 16.12V17.1C60.6108 17.1333 60.5974 17.1633 60.5708 17.19C60.5508 17.21 60.5241 17.22 60.4908 17.22H58.7008C58.6674 17.22 58.6508 17.2367 58.6508 17.27V22.88C58.6508 22.9133 58.6374 22.9433 58.6108 22.97C58.5908 22.99 58.5641 23 58.5308 23H57.3608C57.3274 23 57.2974 22.99 57.2708 22.97C57.2508 22.9433 57.2408 22.9133 57.2408 22.88V17.27C57.2408 17.2367 57.2241 17.22 57.1908 17.22H55.4508C55.4174 17.22 55.3874 17.21 55.3608 17.19C55.3408 17.1633 55.3308 17.1333 55.3308 17.1V16.12C55.3308 16.0867 55.3408 16.06 55.3608 16.04C55.3874 16.0133 55.4174 16 55.4508 16H60.4908ZM70.0123 16.08C70.0457 16.0267 70.0923 16 70.1523 16H71.3223C71.3557 16 71.3823 16.0133 71.4023 16.04C71.429 16.06 71.4423 16.0867 71.4423 16.12V22.88C71.4423 22.9133 71.429 22.9433 71.4023 22.97C71.3823 22.99 71.3557 23 71.3223 23H70.1523C70.119 23 70.089 22.99 70.0623 22.97C70.0423 22.9433 70.0323 22.9133 70.0323 22.88V18.47C70.0323 18.4433 70.0257 18.43 70.0123 18.43C69.999 18.43 69.9857 18.44 69.9723 18.46L68.9123 20.12C68.879 20.1733 68.8323 20.2 68.7723 20.2H68.1823C68.1223 20.2 68.0757 20.1733 68.0423 20.12L66.9823 18.46C66.969 18.44 66.9557 18.4333 66.9423 18.44C66.929 18.44 66.9223 18.4533 66.9223 18.48V22.88C66.9223 22.9133 66.909 22.9433 66.8823 22.97C66.8623 22.99 66.8357 23 66.8023 23H65.6323C65.599 23 65.569 22.99 65.5423 22.97C65.5223 22.9433 65.5123 22.9133 65.5123 22.88V16.12C65.5123 16.0867 65.5223 16.06 65.5423 16.04C65.569 16.0133 65.599 16 65.6323 16H66.8023C66.8623 16 66.909 16.0267 66.9423 16.08L68.4423 18.41C68.4623 18.45 68.4823 18.45 68.5023 18.41L70.0123 16.08ZM78.5208 17.09C78.5208 17.1233 78.5074 17.1533 78.4808 17.18C78.4608 17.2 78.4341 17.21 78.4008 17.21H75.1208C75.0874 17.21 75.0708 17.2267 75.0708 17.26V18.81C75.0708 18.8433 75.0874 18.86 75.1208 18.86H77.2708C77.3041 18.86 77.3308 18.8733 77.3508 18.9C77.3774 18.92 77.3908 18.9467 77.3908 18.98V19.95C77.3908 19.9833 77.3774 20.0133 77.3508 20.04C77.3308 20.06 77.3041 20.07 77.2708 20.07H75.1208C75.0874 20.07 75.0708 20.0867 75.0708 20.12V21.74C75.0708 21.7733 75.0874 21.79 75.1208 21.79H78.4008C78.4341 21.79 78.4608 21.8033 78.4808 21.83C78.5074 21.85 78.5208 21.8767 78.5208 21.91V22.88C78.5208 22.9133 78.5074 22.9433 78.4808 22.97C78.4608 22.99 78.4341 23 78.4008 23H73.7808C73.7474 23 73.7174 22.99 73.6908 22.97C73.6708 22.9433 73.6608 22.9133 73.6608 22.88V16.12C73.6608 16.0867 73.6708 16.06 73.6908 16.04C73.7174 16.0133 73.7474 16 73.7808 16H78.4008C78.4341 16 78.4608 16.0133 78.4808 16.04C78.5074 16.06 78.5208 16.0867 78.5208 16.12V17.09ZM85.3306 16C85.364 16 85.3906 16.0133 85.4106 16.04C85.4373 16.06 85.4506 16.0867 85.4506 16.12V17.1C85.4506 17.1333 85.4373 17.1633 85.4106 17.19C85.3906 17.21 85.364 17.22 85.3306 17.22H83.5406C83.5073 17.22 83.4906 17.2367 83.4906 17.27V22.88C83.4906 22.9133 83.4773 22.9433 83.4506 22.97C83.4306 22.99 83.404 23 83.3706 23H82.2006C82.1673 23 82.1373 22.99 82.1106 22.97C82.0906 22.9433 82.0806 22.9133 82.0806 22.88V17.27C82.0806 17.2367 82.064 17.22 82.0306 17.22H80.2906C80.2573 17.22 80.2273 17.21 80.2006 17.19C80.1806 17.1633 80.1706 17.1333 80.1706 17.1V16.12C80.1706 16.0867 80.1806 16.06 80.2006 16.04C80.2273 16.0133 80.2573 16 80.2906 16H85.3306ZM91.0702 16.12C91.0702 16.0867 91.0802 16.06 91.1002 16.04C91.1269 16.0133 91.1569 16 91.1902 16H92.3602C92.3936 16 92.4202 16.0133 92.4402 16.04C92.4669 16.06 92.4802 16.0867 92.4802 16.12V22.88C92.4802 22.9133 92.4669 22.9433 92.4402 22.97C92.4202 22.99 92.3936 23 92.3602 23H91.1902C91.1569 23 91.1269 22.99 91.1002 22.97C91.0802 22.9433 91.0702 22.9133 91.0702 22.88V20.12C91.0702 20.0867 91.0536 20.07 91.0202 20.07H88.8102C88.7769 20.07 88.7602 20.0867 88.7602 20.12V22.88C88.7602 22.9133 88.7469 22.9433 88.7202 22.97C88.7002 22.99 88.6736 23 88.6402 23H87.4702C87.4369 23 87.4069 22.99 87.3802 22.97C87.3602 22.9433 87.3502 22.9133 87.3502 22.88V16.12C87.3502 16.0867 87.3602 16.06 87.3802 16.04C87.4069 16.0133 87.4369 16 87.4702 16H88.6402C88.6736 16 88.7002 16.0133 88.7202 16.04C88.7469 16.06 88.7602 16.0867 88.7602 16.12V18.81C88.7602 18.8433 88.7769 18.86 88.8102 18.86H91.0202C91.0536 18.86 91.0702 18.8433 91.0702 18.81V16.12ZM97.1195 23.11C96.5995 23.11 96.1395 23.0033 95.7395 22.79C95.3462 22.5767 95.0395 22.28 94.8195 21.9C94.5995 21.5133 94.4895 21.07 94.4895 20.57V18.43C94.4895 17.9367 94.5995 17.5 94.8195 17.12C95.0395 16.74 95.3462 16.4467 95.7395 16.24C96.1395 16.0267 96.5995 15.92 97.1195 15.92C97.6462 15.92 98.1062 16.0267 98.4995 16.24C98.8995 16.4467 99.2095 16.74 99.4295 17.12C99.6495 17.5 99.7595 17.9367 99.7595 18.43V20.57C99.7595 21.07 99.6495 21.5133 99.4295 21.9C99.2095 22.2867 98.8995 22.5867 98.4995 22.8C98.1062 23.0067 97.6462 23.11 97.1195 23.11ZM97.1195 21.9C97.4862 21.9 97.7829 21.7833 98.0095 21.55C98.2362 21.3167 98.3495 21.0067 98.3495 20.62V18.42C98.3495 18.0333 98.2362 17.7233 98.0095 17.49C97.7895 17.25 97.4929 17.13 97.1195 17.13C96.7529 17.13 96.4562 17.25 96.2295 17.49C96.0095 17.7233 95.8995 18.0333 95.8995 18.42V20.62C95.8995 21.0067 96.0095 21.3167 96.2295 21.55C96.4562 21.7833 96.7529 21.9 97.1195 21.9ZM101.96 23C101.927 23 101.897 22.99 101.87 22.97C101.85 22.9433 101.84 22.9133 101.84 22.88V16.12C101.84 16.0867 101.85 16.06 101.87 16.04C101.897 16.0133 101.927 16 101.96 16H104.46C104.96 16 105.397 16.09 105.77 16.27C106.15 16.4433 106.444 16.69 106.65 17.01C106.857 17.33 106.96 17.7 106.96 18.12V20.88C106.96 21.3 106.857 21.67 106.65 21.99C106.444 22.31 106.15 22.56 105.77 22.74C105.397 22.9133 104.96 23 104.46 23H101.96ZM103.25 21.74C103.25 21.7733 103.267 21.79 103.3 21.79H104.51C104.817 21.79 105.064 21.6867 105.25 21.48C105.444 21.2733 105.544 20.9967 105.55 20.65V18.35C105.55 18.0033 105.454 17.7267 105.26 17.52C105.074 17.3133 104.82 17.21 104.5 17.21H103.3C103.267 17.21 103.25 17.2267 103.25 17.26V21.74Z" fill="#667B87"/>
<rect x="12.5" y="50.5" width="63" height="31" rx="3.5" fill="#F7FCFF"/>
<path d="M36.6699 70.4273C36.6092 70.1632 36.5721 69.8856 36.548 69.5905C36.5233 69.2882 36.5112 68.9494 36.5054 68.5694L38.458 67.3621L38.5235 67.3214C38.7983 67.1508 39.0746 66.9792 39.3859 66.8992C39.6576 66.8293 39.9407 66.815 40.2181 66.8571C40.5359 66.9055 40.8281 67.0484 41.1186 67.1904L41.1879 67.2243L41.6282 67.4385C42.0694 67.6532 42.122 67.6675 42.1571 67.6721C42.2165 67.6799 42.2768 67.6749 42.334 67.6573C42.3679 67.6469 42.4174 67.6241 42.8167 67.339L44.9047 65.8481L44.9823 65.7925C45.3025 65.5628 45.6238 65.3323 45.9947 65.2334C46.3176 65.1472 46.6566 65.14 46.9829 65.2123C47.3576 65.2954 47.6884 65.5121 48.0181 65.728L48.098 65.7802L51.4991 67.9966C51.497 68.6178 51.4881 69.1439 51.4516 69.5905C51.4421 69.707 51.4306 69.8207 51.4163 69.932L47.1881 67.1766C46.7192 66.871 46.6603 66.848 46.622 66.8395C46.5568 66.825 46.489 66.8264 46.4244 66.8437C46.3865 66.8538 46.3286 66.8793 45.8732 67.2045L43.7851 68.6954L43.7175 68.7438C43.4352 68.9462 43.1515 69.1497 42.8236 69.2504C42.5376 69.3383 42.236 69.3636 41.9394 69.3245C41.5993 69.2797 41.2857 69.1263 40.9737 68.9737L40.8989 68.9371L40.4586 68.7229C40.0489 68.5235 40.0006 68.5099 39.9676 68.5049C39.9121 68.4964 39.8555 68.4993 39.8011 68.5133C39.7688 68.5216 39.722 68.54 39.3345 68.7796L36.6699 70.4273Z" fill="#667B87"/>
<path d="M43.1665 63.5C43.1665 64.4205 42.4203 65.1667 41.4998 65.1667C40.5793 65.1667 39.8331 64.4205 39.8331 63.5C39.8331 62.5795 40.5793 61.8333 41.4998 61.8333C42.4203 61.8333 43.1665 62.5795 43.1665 63.5Z" fill="#667B87"/>
<path fill-rule="evenodd" clip-rule="evenodd" d="M42.631 58.5H45.369C46.2722 58.5 47.0006 58.5 47.5905 58.5482C48.1979 58.5978 48.7314 58.7027 49.225 58.9541C50.009 59.3536 50.6464 59.991 51.0459 60.775C51.2974 61.2686 51.4022 61.8021 51.4518 62.4095C51.5 62.9994 51.5 63.7278 51.5 64.631V67.369C51.5 68.2722 51.5 69.0006 51.4518 69.5905C51.4022 70.1979 51.2974 70.7314 51.0459 71.225C50.6464 72.009 50.009 72.6464 49.225 73.0459C48.7314 73.2974 48.1979 73.4022 47.5905 73.4518C47.0006 73.5 46.2722 73.5 45.369 73.5H42.631C41.7278 73.5 40.9994 73.5 40.4095 73.4518C39.8021 73.4022 39.2686 73.2974 38.775 73.0459C37.991 72.6464 37.3536 72.009 36.9541 71.225C36.7027 70.7314 36.5978 70.1979 36.5482 69.5905C36.5 69.0006 36.5 68.2722 36.5 67.369V64.631C36.5 63.7278 36.5 62.9994 36.5482 62.4095C36.5978 61.8021 36.7027 61.2686 36.9541 60.775C37.3536 59.991 37.991 59.3536 38.775 58.9541C39.2686 58.7027 39.8021 58.5978 40.4095 58.5482C40.9994 58.5 41.7278 58.5 42.631 58.5ZM40.5452 60.2093C40.0409 60.2505 39.7512 60.3273 39.5317 60.4392C39.0613 60.6788 38.6788 61.0613 38.4392 61.5317C38.3273 61.7512 38.2505 62.0409 38.2093 62.5452C38.1673 63.0592 38.1667 63.7195 38.1667 64.6667V67.3333C38.1667 68.2805 38.1673 68.9408 38.2093 69.4548C38.2505 69.9591 38.3273 70.2488 38.4392 70.4683C38.6788 70.9387 39.0613 71.3212 39.5317 71.5608C39.7512 71.6727 40.0409 71.7495 40.5452 71.7907C41.0592 71.8327 41.7195 71.8333 42.6667 71.8333H45.3333C46.2805 71.8333 46.9408 71.8327 47.4548 71.7907C47.9591 71.7495 48.2488 71.6727 48.4683 71.5608C48.9387 71.3212 49.3212 70.9387 49.5608 70.4683C49.6727 70.2488 49.7495 69.9591 49.7907 69.4548C49.8327 68.9408 49.8333 68.2805 49.8333 67.3333V64.6667C49.8333 63.7195 49.8327 63.0592 49.7907 62.5452C49.7495 62.0409 49.6727 61.7512 49.5608 61.5317C49.3212 61.0613 48.9387 60.6788 48.4683 60.4392C48.2488 60.3273 47.9591 60.2505 47.4548 60.2093C46.9408 60.1673 46.2805 60.1667 45.3333 60.1667H42.6667C41.7195 60.1667 41.0592 60.1673 40.5452 60.2093Z" fill="#667B87"/>
<rect x="12.5" y="50.5" width="63" height="31" rx="3.5" stroke="#C4D5DF"/>
<path d="M86.212 69.928C85.8947 69.928 85.6007 69.8487 85.33 69.69C85.0593 69.5313 84.8447 69.3213 84.686 69.06C84.5273 68.7893 84.448 68.4953 84.448 68.178C84.448 67.6927 84.616 67.282 84.952 66.946C85.2973 66.61 85.7173 66.442 86.212 66.442C86.688 66.442 87.094 66.61 87.43 66.946C87.766 67.282 87.934 67.6927 87.934 68.178C87.934 68.486 87.8547 68.7753 87.696 69.046C87.5467 69.3167 87.3367 69.5313 87.066 69.69C86.8047 69.8487 86.52 69.928 86.212 69.928ZM93.4171 69.928C93.0997 69.928 92.8057 69.8487 92.5351 69.69C92.2644 69.5313 92.0497 69.3213 91.8911 69.06C91.7324 68.7893 91.6531 68.4953 91.6531 68.178C91.6531 67.6927 91.8211 67.282 92.1571 66.946C92.5024 66.61 92.9224 66.442 93.4171 66.442C93.8931 66.442 94.2991 66.61 94.6351 66.946C94.9711 67.282 95.1391 67.6927 95.1391 68.178C95.1391 68.486 95.0597 68.7753 94.9011 69.046C94.7517 69.3167 94.5417 69.5313 94.2711 69.69C94.0097 69.8487 93.7251 69.928 93.4171 69.928ZM100.622 69.928C100.305 69.928 100.011 69.8487 99.7402 69.69C99.4695 69.5313 99.2548 69.3213 99.0962 69.06C98.9375 68.7893 98.8582 68.4953 98.8582 68.178C98.8582 67.6927 99.0262 67.282 99.3622 66.946C99.7075 66.61 100.127 66.442 100.622 66.442C101.098 66.442 101.504 66.61 101.84 66.946C102.176 67.282 102.344 67.6927 102.344 68.178C102.344 68.486 102.265 68.7753 102.106 69.046C101.957 69.3167 101.747 69.5313 101.476 69.69C101.215 69.8487 100.93 69.928 100.622 69.928ZM107.827 69.928C107.51 69.928 107.216 69.8487 106.945 69.69C106.675 69.5313 106.46 69.3213 106.301 69.06C106.143 68.7893 106.063 68.4953 106.063 68.178C106.063 67.6927 106.231 67.282 106.567 66.946C106.913 66.61 107.333 66.442 107.827 66.442C108.303 66.442 108.709 66.61 109.045 66.946C109.381 67.282 109.549 67.6927 109.549 68.178C109.549 68.486 109.47 68.7753 109.311 69.046C109.162 69.3167 108.952 69.5313 108.681 69.69C108.42 69.8487 108.135 69.928 107.827 69.928ZM117.835 69.928C117.518 69.928 117.224 69.8487 116.953 69.69C116.682 69.5313 116.468 69.3213 116.309 69.06C116.15 68.7893 116.071 68.4953 116.071 68.178C116.071 67.6927 116.239 67.282 116.575 66.946C116.92 66.61 117.34 66.442 117.835 66.442C118.311 66.442 118.717 66.61 119.053 66.946C119.389 67.282 119.557 67.6927 119.557 68.178C119.557 68.486 119.478 68.7753 119.319 69.046C119.17 69.3167 118.96 69.5313 118.689 69.69C118.428 69.8487 118.143 69.928 117.835 69.928ZM125.04 69.928C124.723 69.928 124.429 69.8487 124.158 69.69C123.887 69.5313 123.673 69.3213 123.514 69.06C123.355 68.7893 123.276 68.4953 123.276 68.178C123.276 67.6927 123.444 67.282 123.78 66.946C124.125 66.61 124.545 66.442 125.04 66.442C125.516 66.442 125.922 66.61 126.258 66.946C126.594 67.282 126.762 67.6927 126.762 68.178C126.762 68.486 126.683 68.7753 126.524 69.046C126.375 69.3167 126.165 69.5313 125.894 69.69C125.633 69.8487 125.348 69.928 125.04 69.928ZM132.245 69.928C131.928 69.928 131.634 69.8487 131.363 69.69C131.093 69.5313 130.878 69.3213 130.719 69.06C130.561 68.7893 130.481 68.4953 130.481 68.178C130.481 67.6927 130.649 67.282 130.985 66.946C131.331 66.61 131.751 66.442 132.245 66.442C132.721 66.442 133.127 66.61 133.463 66.946C133.799 67.282 133.967 67.6927 133.967 68.178C133.967 68.486 133.888 68.7753 133.729 69.046C133.58 69.3167 133.37 69.5313 133.099 69.69C132.838 69.8487 132.553 69.928 132.245 69.928ZM139.45 69.928C139.133 69.928 138.839 69.8487 138.568 69.69C138.298 69.5313 138.083 69.3213 137.924 69.06C137.766 68.7893 137.686 68.4953 137.686 68.178C137.686 67.6927 137.854 67.282 138.19 66.946C138.536 66.61 138.956 66.442 139.45 66.442C139.926 66.442 140.332 66.61 140.668 66.946C141.004 67.282 141.172 67.6927 141.172 68.178C141.172 68.486 141.093 68.7753 140.934 69.046C140.785 69.3167 140.575 69.5313 140.304 69.69C140.043 69.8487 139.758 69.928 139.45 69.928ZM149.458 69.928C149.141 69.928 148.847 69.8487 148.576 69.69C148.305 69.5313 148.091 69.3213 147.932 69.06C147.773 68.7893 147.694 68.4953 147.694 68.178C147.694 67.6927 147.862 67.282 148.198 66.946C148.543 66.61 148.963 66.442 149.458 66.442C149.934 66.442 150.34 66.61 150.676 66.946C151.012 67.282 151.18 67.6927 151.18 68.178C151.18 68.486 151.101 68.7753 150.942 69.046C150.793 69.3167 150.583 69.5313 150.312 69.69C150.051 69.8487 149.766 69.928 149.458 69.928ZM156.663 69.928C156.346 69.928 156.052 69.8487 155.781 69.69C155.511 69.5313 155.296 69.3213 155.137 69.06C154.979 68.7893 154.899 68.4953 154.899 68.178C154.899 67.6927 155.067 67.282 155.403 66.946C155.749 66.61 156.169 66.442 156.663 66.442C157.139 66.442 157.545 66.61 157.881 66.946C158.217 67.282 158.385 67.6927 158.385 68.178C158.385 68.486 158.306 68.7753 158.147 69.046C157.998 69.3167 157.788 69.5313 157.517 69.69C157.256 69.8487 156.971 69.928 156.663 69.928ZM163.868 69.928C163.551 69.928 163.257 69.8487 162.986 69.69C162.716 69.5313 162.501 69.3213 162.342 69.06C162.184 68.7893 162.104 68.4953 162.104 68.178C162.104 67.6927 162.272 67.282 162.608 66.946C162.954 66.61 163.374 66.442 163.868 66.442C164.344 66.442 164.75 66.61 165.086 66.946C165.422 67.282 165.59 67.6927 165.59 68.178C165.59 68.486 165.511 68.7753 165.352 69.046C165.203 69.3167 164.993 69.5313 164.722 69.69C164.461 69.8487 164.176 69.928 163.868 69.928ZM171.073 69.928C170.756 69.928 170.462 69.8487 170.191 69.69C169.921 69.5313 169.706 69.3213 169.547 69.06C169.389 68.7893 169.309 68.4953 169.309 68.178C169.309 67.6927 169.477 67.282 169.813 66.946C170.159 66.61 170.579 66.442 171.073 66.442C171.549 66.442 171.955 66.61 172.291 66.946C172.627 67.282 172.795 67.6927 172.795 68.178C172.795 68.486 172.716 68.7753 172.557 69.046C172.408 69.3167 172.198 69.5313 171.927 69.69C171.666 69.8487 171.381 69.928 171.073 69.928ZM181.109 62.242C181.184 62.214 181.254 62.2 181.319 62.2H182.663C182.71 62.2 182.747 62.2187 182.775 62.256C182.812 62.284 182.831 62.3213 182.831 62.368V71.832C182.831 71.8787 182.812 71.9207 182.775 71.958C182.747 71.986 182.71 72 182.663 72H181.375C181.328 72 181.286 71.986 181.249 71.958C181.221 71.9207 181.207 71.8787 181.207 71.832V63.88C181.207 63.8613 181.198 63.8473 181.179 63.838C181.16 63.8193 181.142 63.8147 181.123 63.824L179.723 64.258C179.704 64.2673 179.681 64.272 179.653 64.272C179.616 64.272 179.583 64.258 179.555 64.23C179.536 64.202 179.527 64.1647 179.527 64.118L179.485 63.194C179.485 63.1007 179.522 63.0353 179.597 62.998L181.109 62.242ZM189.477 70.516C189.459 70.5347 189.449 70.5533 189.449 70.572C189.459 70.5907 189.477 70.6 189.505 70.6H193.495C193.542 70.6 193.579 70.6187 193.607 70.656C193.645 70.684 193.663 70.7213 193.663 70.768V71.832C193.663 71.8787 193.645 71.9207 193.607 71.958C193.579 71.986 193.542 72 193.495 72H187.475C187.429 72 187.387 71.986 187.349 71.958C187.321 71.9207 187.307 71.8787 187.307 71.832V70.824C187.307 70.74 187.335 70.67 187.391 70.614C188.101 69.858 188.922 68.9293 189.855 67.828L190.513 67.058C191.372 66.0593 191.801 65.3033 191.801 64.79C191.801 64.4073 191.666 64.0947 191.395 63.852C191.125 63.6093 190.775 63.488 190.345 63.488C189.916 63.488 189.566 63.6093 189.295 63.852C189.034 64.0947 188.903 64.4167 188.903 64.818V65.182C188.903 65.2287 188.885 65.2707 188.847 65.308C188.819 65.336 188.782 65.35 188.735 65.35H187.433C187.387 65.35 187.345 65.336 187.307 65.308C187.279 65.2707 187.265 65.2287 187.265 65.182V64.58C187.284 64.076 187.429 63.6373 187.699 63.264C187.97 62.8907 188.334 62.6013 188.791 62.396C189.258 62.1907 189.776 62.088 190.345 62.088C190.971 62.088 191.517 62.2047 191.983 62.438C192.45 62.6713 192.809 62.9933 193.061 63.404C193.313 63.8053 193.439 64.258 193.439 64.762C193.439 65.5273 193.033 66.4093 192.221 67.408C191.773 67.968 191.036 68.808 190.009 69.928L189.477 70.516ZM199.991 70.516C199.972 70.5347 199.963 70.5533 199.963 70.572C199.972 70.5907 199.991 70.6 200.019 70.6H204.009C204.056 70.6 204.093 70.6187 204.121 70.656C204.158 70.684 204.177 70.7213 204.177 70.768V71.832C204.177 71.8787 204.158 71.9207 204.121 71.958C204.093 71.986 204.056 72 204.009 72H197.989C197.942 72 197.9 71.986 197.863 71.958C197.835 71.9207 197.821 71.8787 197.821 71.832V70.824C197.821 70.74 197.849 70.67 197.905 70.614C198.614 69.858 199.436 68.9293 200.369 67.828L201.027 67.058C201.886 66.0593 202.315 65.3033 202.315 64.79C202.315 64.4073 202.18 64.0947 201.909 63.852C201.638 63.6093 201.288 63.488 200.859 63.488C200.43 63.488 200.08 63.6093 199.809 63.852C199.548 64.0947 199.417 64.4167 199.417 64.818V65.182C199.417 65.2287 199.398 65.2707 199.361 65.308C199.333 65.336 199.296 65.35 199.249 65.35H197.947C197.9 65.35 197.858 65.336 197.821 65.308C197.793 65.2707 197.779 65.2287 197.779 65.182V64.58C197.798 64.076 197.942 63.6373 198.213 63.264C198.484 62.8907 198.848 62.6013 199.305 62.396C199.772 62.1907 200.29 62.088 200.859 62.088C201.484 62.088 202.03 62.2047 202.497 62.438C202.964 62.6713 203.323 62.9933 203.575 63.404C203.827 63.8053 203.953 64.258 203.953 64.762C203.953 65.5273 203.547 66.4093 202.735 67.408C202.287 67.968 201.55 68.808 200.523 69.928L199.991 70.516ZM214.145 67.758C214.35 68.1687 214.453 68.64 214.453 69.172C214.453 69.732 214.331 70.2407 214.089 70.698C213.846 71.1367 213.491 71.482 213.025 71.734C212.558 71.986 212.007 72.112 211.373 72.112C210.747 72.112 210.192 71.9907 209.707 71.748C209.221 71.496 208.857 71.132 208.615 70.656C208.372 70.2173 208.251 69.718 208.251 69.158C208.251 68.654 208.358 68.178 208.573 67.73C208.759 67.3473 209.025 67.058 209.371 66.862C209.417 66.834 209.422 66.8013 209.385 66.764C209.151 66.596 208.941 66.3627 208.755 66.064C208.512 65.672 208.391 65.238 208.391 64.762C208.391 64.174 208.563 63.6467 208.909 63.18C209.161 62.816 209.501 62.536 209.931 62.34C210.36 62.1347 210.841 62.032 211.373 62.032C211.923 62.032 212.404 62.1347 212.815 62.34C213.235 62.536 213.571 62.816 213.823 63.18C214.149 63.656 214.313 64.1833 214.313 64.762C214.313 65.2753 214.187 65.7233 213.935 66.106C213.757 66.3673 213.552 66.582 213.319 66.75C213.281 66.7873 213.281 66.82 213.319 66.848C213.673 67.0533 213.949 67.3567 214.145 67.758ZM210.169 64.146C210.057 64.3887 210.001 64.6033 210.001 64.79C210.001 65.1073 210.08 65.392 210.239 65.644C210.463 66.0267 210.836 66.218 211.359 66.218C211.863 66.218 212.245 66.022 212.507 65.63C212.647 65.4247 212.717 65.14 212.717 64.776C212.717 64.5707 212.665 64.356 212.563 64.132C212.441 63.9173 212.278 63.7493 212.073 63.628C211.867 63.4973 211.625 63.432 211.345 63.432C211.083 63.432 210.85 63.4973 210.645 63.628C210.439 63.7493 210.281 63.922 210.169 64.146ZM212.521 70.138C212.717 69.8673 212.815 69.4987 212.815 69.032C212.815 68.6027 212.74 68.2667 212.591 68.024C212.357 67.5947 211.947 67.38 211.359 67.38C210.808 67.38 210.407 67.5853 210.155 67.996C209.996 68.248 209.917 68.598 209.917 69.046C209.917 69.4753 210.001 69.8253 210.169 70.096C210.421 70.5067 210.822 70.712 211.373 70.712C211.895 70.712 212.278 70.5207 212.521 70.138Z" fill="#667B87"/>
</g>
<rect x="0.5" y="0.5" width="303" height="93" rx="5.5" stroke="#C4D5DF"/>
<defs>
<clipPath id="clip0_259_11000">
<rect width="304" height="94" rx="6" fill="white"/>
</clipPath>
</defs>
</svg>
