<svg width="20" height="24" viewBox="0 0 20 24" fill="none" xmlns="http://www.w3.org/2000/svg">
<path fill-rule="evenodd" clip-rule="evenodd" d="M8.46788 5.33333H14.8655C15.3047 5.33332 15.6837 5.3333 15.9959 5.35881C16.3253 5.38573 16.653 5.44516 16.9683 5.60582C17.4387 5.8455 17.8212 6.22795 18.0609 6.69836C18.2215 7.01367 18.2809 7.34136 18.3079 7.67081C18.3334 7.98296 18.3334 8.36193 18.3333 8.80123V11.8654C18.3334 12.3047 18.3334 12.6837 18.3079 12.9959C18.2809 13.3253 18.2215 13.653 18.0609 13.9683C17.8212 14.4387 17.4387 14.8212 16.9683 15.0608C16.653 15.2215 16.3253 15.2809 15.9959 15.3079C15.6837 15.3334 15.3047 15.3333 14.8654 15.3333H13.3333V13.6667H14.8333C15.3138 13.6667 15.624 13.666 15.8601 13.6467C16.0865 13.6282 16.1705 13.5968 16.2117 13.5758C16.3685 13.4959 16.4959 13.3685 16.5758 13.2117C16.5968 13.1705 16.6282 13.0865 16.6467 12.8601C16.666 12.624 16.6667 12.3138 16.6667 11.8333V8.83333C16.6667 8.35287 16.666 8.04264 16.6467 7.80653C16.6282 7.58014 16.5968 7.49621 16.5758 7.45501C16.4959 7.29821 16.3685 7.17072 16.2117 7.09083C16.1705 7.06983 16.0865 7.03844 15.8601 7.01994C15.624 7.00065 15.3138 7 14.8333 7H8.5C8.01954 7 7.70931 7.00065 7.4732 7.01994C7.24681 7.03844 7.16288 7.06983 7.12168 7.09083C6.96487 7.17072 6.83739 7.29821 6.7575 7.45501C6.7365 7.49621 6.7051 7.58014 6.68661 7.80653C6.66732 8.04264 6.66667 8.35287 6.66667 8.83333V9.5H5L5 8.80121C4.99999 8.36192 4.99997 7.98295 5.02548 7.67081C5.05239 7.34136 5.11182 7.01367 5.27249 6.69836C5.51217 6.22795 5.89462 5.8455 6.36503 5.60582C6.68034 5.44516 7.00802 5.38573 7.33748 5.35881C7.64962 5.3333 8.02859 5.33332 8.46788 5.33333Z" fill="#474D58"/>
<path d="M1.66675 12H15.0001V13.6667H1.66675V12Z" fill="#474D58"/>
<path fill-rule="evenodd" clip-rule="evenodd" d="M5.13463 8.66666H11.5322C11.9715 8.66665 12.3505 8.66664 12.6626 8.69214C12.9921 8.71906 13.3197 8.77849 13.6351 8.93915C14.1055 9.17883 14.4879 9.56128 14.7276 10.0317C14.8883 10.347 14.9477 10.6747 14.9746 11.0041C15.0001 11.3163 15.0001 11.6953 15.0001 12.1346V15.1988C15.0001 15.6381 15.0001 16.017 14.9746 16.3292C14.9477 16.6586 14.8883 16.9863 14.7276 17.3016C14.4879 17.772 14.1055 18.1545 13.6351 18.3942C13.3197 18.5548 12.9921 18.6143 12.6626 18.6412C12.3505 18.6667 11.9715 18.6667 11.5322 18.6667H5.13465C4.69535 18.6667 4.31637 18.6667 4.00423 18.6412C3.67477 18.6143 3.34709 18.5548 3.03177 18.3942C2.56137 18.1545 2.17892 17.772 1.93923 17.3016C1.77857 16.9863 1.71914 16.6586 1.69222 16.3292C1.66672 16.017 1.66673 15.6381 1.66675 15.1988V12.1345C1.66673 11.6953 1.66672 11.3163 1.69222 11.0041C1.71914 10.6747 1.77857 10.347 1.93923 10.0317C2.17892 9.56128 2.56137 9.17883 3.03177 8.93915C3.34709 8.77849 3.67477 8.71906 4.00423 8.69214C4.31637 8.66664 4.69534 8.66665 5.13463 8.66666ZM4.13995 10.3533C3.91356 10.3718 3.82963 10.4032 3.78842 10.4242C3.63162 10.5041 3.50414 10.6315 3.42424 10.7883C3.40325 10.8295 3.37185 10.9135 3.35336 11.1399C3.33406 11.376 3.33342 11.6862 3.33342 12.1667V15.1667C3.33342 15.6471 3.33406 15.9574 3.35336 16.1935C3.37185 16.4199 3.40325 16.5038 3.42424 16.545C3.50414 16.7018 3.63162 16.8293 3.78842 16.9092C3.82963 16.9302 3.91356 16.9616 4.13995 16.9801C4.37606 16.9994 4.68629 17 5.16675 17H11.5001C11.9805 17 12.2908 16.9994 12.5269 16.9801C12.7533 16.9616 12.8372 16.9302 12.8784 16.9092C13.0352 16.8293 13.1627 16.7018 13.2426 16.545C13.2636 16.5038 13.295 16.4199 13.3135 16.1935C13.3328 15.9574 13.3334 15.6471 13.3334 15.1667V12.1667C13.3334 11.6862 13.3328 11.376 13.3135 11.1399C13.295 10.9135 13.2636 10.8295 13.2426 10.7883C13.1627 10.6315 13.0352 10.5041 12.8784 10.4242C12.8372 10.4032 12.7533 10.3718 12.5269 10.3533C12.2908 10.334 11.9805 10.3333 11.5001 10.3333H5.16675C4.68629 10.3333 4.37606 10.334 4.13995 10.3533Z" fill="#474D58"/>
</svg>
