<svg width="36" height="36" viewBox="0 0 36 36" fill="none" xmlns="http://www.w3.org/2000/svg">
<rect x="0.5" y="0.5" width="35" height="35" rx="17.5" fill="#EAF4FA"/>
<path fill-rule="evenodd" clip-rule="evenodd" d="M15.5002 21.3333C14.1195 21.3333 13.0002 22.4526 13.0002 23.8333C13.0002 24.2936 13.3733 24.6667 13.8335 24.6667H22.1668C22.6271 24.6667 23.0002 24.2936 23.0002 23.8333C23.0002 22.4526 21.8809 21.3333 20.5002 21.3333H15.5002ZM11.3335 23.8333C11.3335 21.5321 13.199 19.6667 15.5002 19.6667H20.5002C22.8013 19.6667 24.6668 21.5321 24.6668 23.8333C24.6668 25.214 23.5475 26.3333 22.1668 26.3333H13.8335C12.4528 26.3333 11.3335 25.214 11.3335 23.8333Z" fill="#667B87"/>
<path fill-rule="evenodd" clip-rule="evenodd" d="M18.0002 11.3333C16.6195 11.3333 15.5002 12.4526 15.5002 13.8333C15.5002 15.214 16.6195 16.3333 18.0002 16.3333C19.3809 16.3333 20.5002 15.214 20.5002 13.8333C20.5002 12.4526 19.3809 11.3333 18.0002 11.3333ZM13.8335 13.8333C13.8335 11.5321 15.699 9.66666 18.0002 9.66666C20.3013 9.66666 22.1668 11.5321 22.1668 13.8333C22.1668 16.1345 20.3013 18 18.0002 18C15.699 18 13.8335 16.1345 13.8335 13.8333Z" fill="#667B87"/>
<rect x="0.5" y="0.5" width="35" height="35" rx="17.5" stroke="#C4D5DF"/>
</svg>
