<svg width="20" height="20" viewBox="0 0 20 20" fill="none" xmlns="http://www.w3.org/2000/svg">
<path d="M10 16.0832C10.4704 16.0832 10.8864 15.7148 10.8864 15.2304V10.8734H15.2041C15.6785 10.8734 16.0834 10.4804 16.0834 9.99984C16.0834 9.51571 15.6748 9.13325 15.2041 9.13325H10.8864V4.76924C10.8864 4.28487 10.4704 3.9165 10 3.9165C9.52594 3.9165 9.12073 4.28839 9.12073 4.76924V9.13325H4.79598C4.32518 9.13325 3.91669 9.51571 3.91669 9.99984C3.91669 10.4804 4.32151 10.8734 4.79598 10.8734H9.12073V15.2304C9.12073 15.7113 9.52594 16.0832 10 16.0832Z" fill="#667B87" stroke="#667B87" stroke-width="0.5"/>
</svg>
