<svg width="16" height="16" viewBox="0 0 16 16" fill="none" xmlns="http://www.w3.org/2000/svg">
<g id="Arrows">
<g id="Right Arrow">
<path id="Vector" d="M16 8.10982C16 8.32522 15.9052 8.52338 15.7329 8.68709L10.0119 14.3995C9.83958 14.5632 9.65864 14.6407 9.45187 14.6407C9.02968 14.6407 8.69366 14.3306 8.69366 13.8998C8.69366 13.693 8.77119 13.4862 8.90906 13.3569L10.839 11.3925L13.7426 8.7474L11.6576 8.87664H0.758341C0.310338 8.87664 0.000130653 8.55785 0.000130653 8.10982C0.000130653 7.66178 0.310338 7.34299 0.758341 7.34299H11.6576L13.734 7.47223L10.839 4.82713L8.90906 2.86269C8.77119 2.72483 8.69366 2.52667 8.69366 2.31988C8.69366 1.88908 9.02968 1.57891 9.45187 1.57891C9.65864 1.57891 9.83958 1.64783 10.0291 1.83738L15.7329 7.53254C15.9052 7.69624 16 7.89442 16 8.10982Z" fill="#667B87"/>
</g>
</g>
</svg>
