<svg width="40" height="40" viewBox="0 0 40 40" fill="none" xmlns="http://www.w3.org/2000/svg">
<rect x="0.5" y="0.5" width="39" height="39" rx="19.5" fill="#EAF4FA"/>
<path d="M12.6701 24.4272C12.6094 24.1631 12.5723 23.8855 12.5482 23.5904C12.5235 23.2881 12.5114 22.9493 12.5056 22.5693L14.4582 21.362L14.5237 21.3213C14.7985 21.1507 15.0748 20.9791 15.3861 20.8991C15.6578 20.8292 15.9409 20.8149 16.2183 20.8571C16.5361 20.9054 16.8283 21.0483 17.1188 21.1903L17.1881 21.2242L17.6284 21.4384C18.0696 21.6531 18.1222 21.6674 18.1573 21.672C18.2167 21.6799 18.277 21.6748 18.3342 21.6572C18.3681 21.6468 18.4176 21.624 18.8169 21.3389L20.9049 19.848L20.9825 19.7925C21.3027 19.5627 21.624 19.3322 21.9948 19.2333C22.3178 19.1471 22.6568 19.1399 22.9831 19.2122C23.3578 19.2954 23.6886 19.512 24.0183 19.7279L24.0982 19.7801L27.4993 21.9965C27.4972 22.6177 27.4883 23.1438 27.4518 23.5904C27.4423 23.7069 27.4307 23.8206 27.4165 23.9319L23.1883 21.1765C22.7194 20.871 22.6605 20.8479 22.6222 20.8394C22.5569 20.8249 22.4892 20.8263 22.4246 20.8436C22.3867 20.8537 22.3288 20.8793 21.8734 21.2044L19.7853 22.6953L19.7176 22.7438C19.4354 22.9462 19.1517 23.1496 18.8238 23.2504C18.5378 23.3382 18.2362 23.3635 17.9396 23.3244C17.5995 23.2796 17.2859 23.1262 16.9739 22.9736L16.8991 22.9371L16.4588 22.7228C16.0491 22.5234 16.0008 22.5098 15.9677 22.5048C15.9123 22.4963 15.8556 22.4992 15.8013 22.5132C15.7689 22.5215 15.7222 22.5399 15.3347 22.7795L12.6701 24.4272Z" fill="#667B87"/>
<path d="M19.1666 17.4999C19.1666 18.4204 18.4205 19.1666 17.5 19.1666C16.5795 19.1666 15.8333 18.4204 15.8333 17.4999C15.8333 16.5794 16.5795 15.8333 17.5 15.8333C18.4205 15.8333 19.1666 16.5794 19.1666 17.4999Z" fill="#667B87"/>
<path fill-rule="evenodd" clip-rule="evenodd" d="M18.631 12.5H21.369C22.2722 12.5 23.0006 12.5 23.5905 12.5482C24.1979 12.5978 24.7314 12.7027 25.225 12.9541C26.009 13.3536 26.6464 13.991 27.0459 14.775C27.2974 15.2686 27.4022 15.8021 27.4518 16.4095C27.5 16.9994 27.5 17.7278 27.5 18.631V21.369C27.5 22.2722 27.5 23.0006 27.4518 23.5905C27.4022 24.1979 27.2974 24.7314 27.0459 25.225C26.6464 26.009 26.009 26.6464 25.225 27.0459C24.7314 27.2974 24.1979 27.4022 23.5905 27.4518C23.0006 27.5 22.2722 27.5 21.369 27.5H18.631C17.7278 27.5 16.9994 27.5 16.4095 27.4518C15.8021 27.4022 15.2686 27.2974 14.775 27.0459C13.991 26.6464 13.3536 26.009 12.9541 25.225C12.7027 24.7314 12.5978 24.1979 12.5482 23.5905C12.5 23.0006 12.5 22.2722 12.5 21.369V18.631C12.5 17.7278 12.5 16.9994 12.5482 16.4095C12.5978 15.8021 12.7027 15.2686 12.9541 14.775C13.3536 13.991 13.991 13.3536 14.775 12.9541C15.2686 12.7027 15.8021 12.5978 16.4095 12.5482C16.9994 12.5 17.7278 12.5 18.631 12.5ZM16.5452 14.2093C16.0409 14.2505 15.7512 14.3273 15.5317 14.4392C15.0613 14.6788 14.6788 15.0613 14.4392 15.5317C14.3273 15.7512 14.2505 16.0409 14.2093 16.5452C14.1673 17.0592 14.1667 17.7195 14.1667 18.6667V21.3333C14.1667 22.2805 14.1673 22.9408 14.2093 23.4548C14.2505 23.9591 14.3273 24.2488 14.4392 24.4683C14.6788 24.9387 15.0613 25.3212 15.5317 25.5608C15.7512 25.6727 16.0409 25.7495 16.5452 25.7907C17.0592 25.8327 17.7195 25.8333 18.6667 25.8333H21.3333C22.2805 25.8333 22.9408 25.8327 23.4548 25.7907C23.9591 25.7495 24.2488 25.6727 24.4683 25.5608C24.9387 25.3212 25.3212 24.9387 25.5608 24.4683C25.6727 24.2488 25.7495 23.9591 25.7907 23.4548C25.8327 22.9408 25.8333 22.2805 25.8333 21.3333V18.6667C25.8333 17.7195 25.8327 17.0592 25.7907 16.5452C25.7495 16.0409 25.6727 15.7512 25.5608 15.5317C25.3212 15.0613 24.9387 14.6788 24.4683 14.4392C24.2488 14.3273 23.9591 14.2505 23.4548 14.2093C22.9408 14.1673 22.2805 14.1667 21.3333 14.1667H18.6667C17.7195 14.1667 17.0592 14.1673 16.5452 14.2093Z" fill="#667B87"/>
<rect x="0.5" y="0.5" width="39" height="39" rx="19.5" stroke="#C4D5DF"/>
</svg>
