<svg width="16" height="16" viewBox="0 0 16 16" fill="none" xmlns="http://www.w3.org/2000/svg">
<path fill-rule="evenodd" clip-rule="evenodd" d="M6.00002 10.6666C4.89545 10.6666 4.00002 11.562 4.00002 12.6666C4.00002 13.0348 4.2985 13.3333 4.66669 13.3333H11.3334C11.7015 13.3333 12 13.0348 12 12.6666C12 11.562 11.1046 10.6666 10 10.6666H6.00002ZM2.66669 12.6666C2.66669 10.8256 4.15907 9.33325 6.00002 9.33325H10C11.841 9.33325 13.3334 10.8256 13.3334 12.6666C13.3334 13.7712 12.4379 14.6666 11.3334 14.6666H4.66669C3.56212 14.6666 2.66669 13.7712 2.66669 12.6666Z" fill="#667B87"/>
<path fill-rule="evenodd" clip-rule="evenodd" d="M8.00002 2.66659C6.89545 2.66659 6.00002 3.56202 6.00002 4.66659C6.00002 5.77115 6.89545 6.66659 8.00002 6.66659C9.10459 6.66659 10 5.77115 10 4.66659C10 3.56202 9.10459 2.66659 8.00002 2.66659ZM4.66669 4.66659C4.66669 2.82564 6.15907 1.33325 8.00002 1.33325C9.84097 1.33325 11.3334 2.82564 11.3334 4.66659C11.3334 6.50753 9.84097 7.99992 8.00002 7.99992C6.15907 7.99992 4.66669 6.50753 4.66669 4.66659Z" fill="#667B87"/>
</svg>
