<svg width="20" height="20" viewBox="0 0 20 20" fill="none" xmlns="http://www.w3.org/2000/svg">
<path fill-rule="evenodd" clip-rule="evenodd" d="M10 3.33332C6.77834 3.33332 4.16667 5.945 4.16667 9.16666C4.16667 11.0051 5.28006 12.7233 6.83743 14.073L9.70528 16.5585C9.87442 16.7051 10.1256 16.7051 10.2947 16.5585L13.1626 14.073C14.7199 12.7233 15.8333 11.0051 15.8333 9.16666C15.8333 5.945 13.2217 3.33332 10 3.33332ZM2.5 9.16666C2.5 5.02452 5.85786 1.66666 10 1.66666C14.1421 1.66666 17.5 5.02452 17.5 9.16666C17.5 11.6887 15.9919 13.8265 14.2541 15.3325L11.3863 17.818C10.5907 18.5075 9.40931 18.5075 8.61373 17.818L5.74588 15.3325C4.00814 13.8265 2.5 11.6887 2.5 9.16666Z" fill="#667B87"/>
<path d="M11.6666 9.16667C11.6666 10.0871 10.9204 10.8333 9.99992 10.8333C9.07944 10.8333 8.33325 10.0871 8.33325 9.16667C8.33325 8.24619 9.07944 7.5 9.99992 7.5C10.9204 7.5 11.6666 8.24619 11.6666 9.16667Z" fill="#667B87"/>
</svg>
