<svg width="16" height="16" viewBox="0 0 16 16" fill="none" xmlns="http://www.w3.org/2000/svg">
<path fill-rule="evenodd" clip-rule="evenodd" d="M8 2.66668C5.42267 2.66668 3.33333 4.75601 3.33333 7.33334C3.33333 8.80407 4.22405 10.1787 5.46994 11.2584L7.76423 13.2468C7.89954 13.3641 8.10046 13.3641 8.23577 13.2468L10.5301 11.2584C11.776 10.1787 12.6667 8.80407 12.6667 7.33334C12.6667 4.75601 10.5773 2.66668 8 2.66668ZM2 7.33334C2 4.01963 4.68629 1.33334 8 1.33334C11.3137 1.33334 14 4.01963 14 7.33334C14 9.35094 12.7935 11.0612 11.4033 12.266L9.10902 14.2544C8.47255 14.806 7.52745 14.806 6.89098 14.2544L4.5967 12.266C3.20651 11.0612 2 9.35094 2 7.33334Z" fill="#667B87"/>
<path d="M9.33317 7.33333C9.33317 8.06971 8.73622 8.66667 7.99984 8.66667C7.26346 8.66667 6.6665 8.06971 6.6665 7.33333C6.6665 6.59695 7.26346 6 7.99984 6C8.73622 6 9.33317 6.59695 9.33317 7.33333Z" fill="#667B87"/>
</svg>
