<svg width="20" height="21" viewBox="0 0 20 21" fill="none" xmlns="http://www.w3.org/2000/svg">
<path fill-rule="evenodd" clip-rule="evenodd" d="M2.6367 6.07078C2.80817 5.07631 3.37616 4.27857 3.98798 3.66677C4.96553 2.68924 6.58253 2.80543 7.41028 3.91267L8.76151 5.72014C9.50556 6.71542 9.40564 8.10611 8.52695 8.9848L8.43431 9.07744C8.10888 9.40288 8.10888 9.93051 8.43432 10.256L10.244 12.0656C10.5694 12.391 11.097 12.391 11.4225 12.0656L11.5151 11.973C12.3938 11.0943 13.7845 10.9943 14.7798 11.7384L16.6009 13.0998C17.7009 13.9222 17.8164 15.5287 16.8452 16.4999C16.2265 17.1185 15.4201 17.6958 14.4134 17.8696C12.56 18.1896 9.00764 18.1863 5.66063 14.8393C2.31207 11.4907 2.31792 7.9196 2.6367 6.07078ZM5.16648 4.84529C4.68638 5.32538 4.37004 5.82671 4.27913 6.35397C4.02206 7.84492 3.98433 10.806 6.83914 13.6608C9.69529 16.5169 12.6398 16.4845 14.1298 16.2272C14.6673 16.1344 15.1773 15.8108 15.6666 15.3214C15.9199 15.0681 15.8898 14.6491 15.6029 14.4347L13.7818 13.0733C13.4501 12.8253 12.9865 12.8586 12.6936 13.1515L12.601 13.2441C11.6247 14.2204 10.0418 14.2204 9.06545 13.2441L7.2558 11.4345C6.27949 10.4582 6.27949 8.87524 7.2558 7.89893L7.34844 7.80629C7.64134 7.51339 7.67464 7.04983 7.42663 6.71807L6.0754 4.9106C5.85556 4.61653 5.4261 4.58567 5.16648 4.84529Z" fill="#533082"/>
</svg>
