<svg width="37" height="12" viewBox="0 0 37 12" fill="none" xmlns="http://www.w3.org/2000/svg">
<g clip-path="url(#clip0_201_687)">
<path d="M14.048 0.210885L9.20375 11.817H6.04333L3.6606 2.5555C3.515 1.9844 3.38995 1.77625 2.94972 1.53543C2.23027 1.14323 1.04491 0.776824 0 0.54804L0.0702321 0.204003H5.15773C5.49046 0.203318 5.81245 0.322289 6.06539 0.539378C6.31833 0.756467 6.4855 1.05733 6.53666 1.38749L7.7957 8.09621L10.9081 0.195404L14.048 0.210885ZM26.431 8.0274C26.4447 4.96547 22.2137 4.7969 22.2428 3.42763C22.2514 3.01135 22.6471 2.56753 23.5104 2.45572C24.5215 2.35756 25.5401 2.53588 26.4584 2.97178L26.9843 0.510196C26.0897 0.17316 25.1425 -0.00157423 24.187 -0.00585938C21.2322 -0.00585938 19.1509 1.57155 19.1355 3.83015C19.115 5.50217 20.6189 6.43279 21.7529 6.98841C22.916 7.55779 23.3066 7.92247 23.3031 8.43164C23.2946 9.21089 22.3747 9.5532 21.5131 9.56696C20.0108 9.59104 19.1372 9.15928 18.4435 8.83417L17.9022 11.3766C18.5994 11.7 19.8892 11.9804 21.227 11.9941C24.3669 11.9941 26.4207 10.4357 26.431 8.02224V8.0274ZM34.2353 11.8066H37L34.5864 0.210885H32.0341C31.7617 0.209716 31.4952 0.290093 31.2685 0.441757C31.0418 0.593421 30.8652 0.809493 30.7614 1.06238L26.2751 11.817H29.415L30.0385 10.083H33.8738L34.2353 11.8066ZM30.8984 7.69541L32.4726 3.35538L33.3788 7.71432L30.8984 7.69541ZM18.3201 0.200565L15.8483 11.8066H12.8575L15.331 0.200565H18.3201Z" fill="#211A7C"/>
</g>
<defs>
<clipPath id="clip0_201_687">
<rect width="37" height="12" fill="white"/>
</clipPath>
</defs>
</svg>
